<svg width="114" height="115" viewBox="0 0 114 115" fill="none" xmlns="http://www.w3.org/2000/svg">
<g clip-path="url(#clip0)">
<path d="M104.919 10.1961H98.7924V6.06564C98.7924 3.01282 96.3084 0.528809 93.2556 0.528809C90.201 0.528809 87.7161 3.01282 87.7161 6.06564V10.1961H83.9919V6.06564C83.9919 3.01282 81.5078 0.528809 78.455 0.528809C75.4005 0.528809 72.9156 3.01282 72.9156 6.06564V10.1961H68.4285C67.477 10.1961 66.7099 10.9658 66.7099 11.9147C66.7099 12.8636 67.477 13.6333 68.4285 13.6333H72.9156V17.7629C72.9156 20.8184 75.4005 23.3024 78.455 23.3024C81.5078 23.3024 83.9919 20.8184 83.9919 17.7629V13.6333H87.7161V17.7629C87.7161 20.8184 90.201 23.3024 93.2556 23.3024C96.3084 23.3024 98.7924 20.8184 98.7924 17.7629V13.6333H104.919C106.033 13.6333 106.94 14.5414 106.94 15.6546V29.1697C105.862 29.1697 12.6897 29.1697 7.22328 29.1697V15.6546C7.22328 14.5414 8.13043 13.6333 9.24458 13.6333H15.3702V17.7629C15.3702 20.8184 17.8542 23.3024 20.9071 23.3024C23.9625 23.3024 26.4465 20.8184 26.4465 17.7629V13.6333H30.1708V17.7629C30.1708 20.8184 32.6557 23.3024 35.7076 23.3024C38.7631 23.3024 41.2471 20.8184 41.2471 17.7629V13.6333H61.5531C62.502 13.6333 63.2718 12.8636 63.2718 11.9147C63.2718 10.9658 62.502 10.1961 61.5531 10.1961H41.2471V6.06564C41.2471 3.01282 38.7631 0.528809 35.7076 0.528809C32.6557 0.528809 30.1708 3.01282 30.1708 6.06564V10.1961H26.4465V6.06564C26.4465 3.01282 23.9625 0.528809 20.9071 0.528809C17.8542 0.528809 15.3702 3.01282 15.3702 6.06564V10.1961H9.24458C6.23524 10.1961 3.78516 12.6453 3.78516 15.6546V105.128C3.78516 110.312 8.00432 114.529 13.1889 114.529H16.1774C17.1263 114.529 17.896 113.761 17.896 112.81C17.896 111.861 17.1263 111.091 16.1774 111.091H13.1889C9.89951 111.091 7.22328 108.416 7.22328 105.128V96.6598H106.94V105.128C106.94 108.416 104.263 111.091 100.975 111.091H23.0527C22.1039 111.091 21.3333 111.861 21.3333 112.81C21.3333 113.761 22.1039 114.529 23.0527 114.529H100.975C106.158 114.529 110.378 110.312 110.378 105.128C110.378 101.531 110.378 19.4755 110.378 15.6546C110.378 12.6453 107.928 10.1961 104.919 10.1961ZM79.9379 19.2485C79.5596 19.6285 79.0325 19.8651 78.455 19.8651C77.2956 19.8651 76.3537 18.9232 76.3537 17.7629C76.3537 11.7703 76.3537 12.0643 76.3537 6.06564C76.3537 4.90887 77.2956 3.96693 78.455 3.96693C79.6127 3.96693 80.5546 4.90887 80.5546 6.06564C80.5546 18.7092 80.7825 18.4039 79.9379 19.2485ZM95.3551 17.7629C95.3551 18.9232 94.4132 19.8651 93.2556 19.8651C92.0962 19.8651 91.1543 18.9232 91.1543 17.7629C91.1543 11.7677 91.1543 12.0643 91.1543 6.06564C91.1543 4.90887 92.0962 3.96693 93.2556 3.96693C94.4132 3.96693 95.3551 4.90887 95.3551 6.06564V17.7629ZM33.6089 6.06564C33.6089 4.90887 34.5509 3.96693 35.7076 3.96693C36.8679 3.96693 37.8098 4.90887 37.8098 6.06564V17.7629C37.8098 18.9232 36.8679 19.8651 35.7076 19.8651C34.5509 19.8651 33.6089 18.9232 33.6089 17.7629C33.6089 14.2604 33.6089 9.56987 33.6089 6.06564ZM18.8084 6.06564C18.8084 4.90887 19.7503 3.96693 20.9071 3.96693C22.0673 3.96693 23.0093 4.90887 23.0093 6.06564V17.7629C23.0093 18.9232 22.0673 19.8651 20.9071 19.8651C19.7503 19.8651 18.8084 18.9232 18.8084 17.7629C18.8084 14.2604 18.8084 9.56987 18.8084 6.06564ZM24.4165 93.2216H7.22328V75.3891H24.4165V93.2216ZM24.4165 71.951H7.22328V54.1211H24.4165V71.951ZM24.4165 50.4377H7.22328C7.22328 46.8013 7.22328 36.2016 7.22328 32.6078H24.4165V50.4377ZM45.047 93.2216H27.8538V75.3891H45.047V93.2216ZM45.047 71.951H27.8538V54.1211H45.047V71.951ZM45.047 50.4377H27.8538V32.6078H45.047V50.4377ZM65.6784 93.2216H48.4851V75.3891H65.6784V93.2216ZM65.6784 71.951H48.4851V54.1211H65.6784V71.951ZM65.6784 50.4377H48.4851V32.6078H65.6784V50.4377ZM86.3089 93.2216H69.1156V75.3891H86.3089V93.2216ZM86.3089 71.951H69.1156V54.1211H86.3089V71.951ZM86.3089 50.4377H69.1156V32.6078H86.3089V50.4377ZM106.94 93.2216H89.747V75.3891H106.94V93.2216ZM106.94 71.951H89.747V54.1211H106.94V71.951ZM106.94 50.4377H89.747V32.6078H106.94V50.4377Z" fill="black"/>
<path d="M74.435 69.4582C75.1587 70.1818 76.3589 70.1183 76.999 69.3077L85.1869 58.9377C85.7748 58.1923 85.6478 57.1112 84.9025 56.5233C84.1571 55.9353 83.0768 56.0623 82.4889 56.8068L75.4987 65.6609L72.9086 63.0699C72.2372 62.3984 71.1491 62.3984 70.4777 63.0699C69.8062 63.7413 69.8062 64.8294 70.4777 65.5008L74.435 69.4582Z" fill="black"/>
<path d="M13.9238 47.9606C14.4518 47.9606 14.9475 47.7179 15.2728 47.3065L23.4598 36.9356C24.0477 36.1911 23.9208 35.11 23.1763 34.5221C22.4309 33.9341 21.3498 34.0602 20.7618 34.8056L13.7725 43.6588L11.1824 41.0687C10.5109 40.3972 9.42201 40.3972 8.75143 41.0687C8.07999 41.7401 8.07999 42.8282 8.75143 43.4996C12.9784 47.7266 12.9819 47.9606 13.9238 47.9606Z" fill="black"/>
<path d="M34.3778 90.9899C34.9066 90.9899 35.4023 90.7473 35.7276 90.3359L43.9146 79.965C44.5025 79.2205 44.3755 78.1394 43.6302 77.5506C42.8857 76.9626 41.8046 77.0896 41.2166 77.835L34.2264 86.6882L31.6363 84.098C30.9649 83.4266 29.8768 83.4266 29.2054 84.098C28.5339 84.7695 28.5339 85.8575 29.2054 86.5281C33.4324 90.756 33.4358 90.9899 34.3778 90.9899Z" fill="black"/>
</g>
<defs>
<clipPath id="clip0">
<path d="M0 0.528809H114V114.529H0V0.528809Z" fill="white"/>
</clipPath>
</defs>
</svg>
