<svg width="114" height="115" viewBox="0 0 114 115" fill="none" xmlns="http://www.w3.org/2000/svg">
<g clip-path="url(#clip0)">
<path d="M68.4042 40.4012C68.4042 41.4503 69.2537 42.3019 70.3049 42.3019H89.3124C90.3635 42.3019 91.2131 41.4503 91.2131 40.4012C91.2131 39.352 90.3635 38.5005 89.3124 38.5005H70.3049C69.2537 38.5003 68.4042 39.3518 68.4042 40.4012Z" fill="black"/>
<path d="M79.8091 51.8057C79.8091 52.8548 80.6587 53.7064 81.7098 53.7064H93.1144C94.1655 53.7064 95.0151 52.8548 95.0151 51.8057C95.0151 50.7566 94.1655 49.905 93.1144 49.905H81.7098C80.6587 49.9048 79.8091 50.7564 79.8091 51.8057Z" fill="black"/>
<path d="M77.9082 30.8974C78.9593 30.8974 79.8088 30.0458 79.8088 28.9966C79.8088 27.9475 78.9593 27.0959 77.9082 27.0959H74.1066C73.0554 27.0959 72.2059 27.9475 72.2059 28.9966C72.2059 30.0458 73.0554 30.8974 74.1066 30.8974H77.9082Z" fill="black"/>
<path d="M55.099 49.9048C54.0479 49.9048 53.1983 50.7563 53.1983 51.8055C53.1983 52.8546 54.0479 53.7062 55.099 53.7062H74.1065C75.1577 53.7062 76.0072 52.8546 76.0072 51.8055C76.0072 50.7563 75.1577 49.9048 74.1065 49.9048H55.099Z" fill="black"/>
<path d="M64.6027 103.126H28.4884C25.3445 103.126 22.7861 100.568 22.7861 97.4239V9.98882C22.7861 8.93969 21.9365 8.08813 20.8854 8.08813C15.6451 8.08813 11.3815 12.3515 11.3815 17.592C11.3815 18.6411 12.2311 19.4927 13.2822 19.4927C14.3333 19.4927 15.1829 18.6411 15.1829 17.592C15.1829 15.1133 16.7719 12.9997 18.9845 12.2147V97.4239C18.9845 102.664 23.2478 106.928 28.4884 106.928H64.6027C65.6539 106.928 66.5034 106.076 66.5034 105.027C66.5034 103.978 65.6539 103.126 64.6027 103.126Z" fill="black"/>
<path d="M36.0915 42.3019H62.7022C63.7533 42.3019 64.6029 41.4503 64.6029 40.4012C64.6029 39.352 63.7533 38.5005 62.7022 38.5005H36.0915C35.0403 38.5005 34.1908 39.352 34.1908 40.4012C34.1908 41.4503 35.0403 42.3019 36.0915 42.3019Z" fill="black"/>
<path d="M36.0915 30.8974H43.6945C44.7456 30.8974 45.5951 30.0458 45.5951 28.9966C45.5951 27.9475 44.7456 27.0959 43.6945 27.0959H36.0915C35.0403 27.0959 34.1908 27.9475 34.1908 28.9966C34.1908 30.0458 35.0403 30.8974 36.0915 30.8974Z" fill="black"/>
<path d="M66.5034 27.0957H51.2973C50.2461 27.0957 49.3966 27.9473 49.3966 28.9964C49.3966 30.0455 50.2461 30.8971 51.2973 30.8971H66.5034C67.5546 30.8971 68.4041 30.0455 68.4041 28.9964C68.4043 27.9473 67.5546 27.0957 66.5034 27.0957Z" fill="black"/>
<path d="M93.1141 0.528809H20.8851C11.4743 0.528809 3.81431 8.16786 3.77823 17.5691V17.5918V17.6127V17.6357V17.6584C3.80295 23.7199 7.07419 29.367 12.3296 32.4084C13.2382 32.9329 14.3996 32.6231 14.926 31.7165C15.4543 30.8079 15.1407 29.6448 14.2341 29.12C10.1363 26.7459 7.5874 22.34 7.57982 17.6129C7.59319 10.2873 13.5559 4.3304 20.8851 4.3304H93.1141C100.449 4.3304 106.419 10.2989 106.419 17.6357V97.4676C106.419 98.4312 106.149 99.3988 105.642 100.262C105.112 101.167 105.412 102.332 106.317 102.864C106.621 103.042 106.951 103.126 107.278 103.126C107.93 103.126 108.565 102.792 108.919 102.189C109.77 100.743 110.221 99.1099 110.221 97.4676V17.6357C110.221 8.20217 102.548 0.528809 93.1141 0.528809Z" fill="black"/>
<path d="M98.8159 87.9202C98.8159 81.6305 93.701 76.5156 87.4113 76.5156C81.1217 76.5156 76.0068 81.6305 76.0068 87.9202C76.0068 94.2099 81.1217 99.3248 87.4113 99.3248C93.701 99.3248 98.8159 94.2099 98.8159 87.9202ZM87.4113 95.5232C83.2182 95.5232 79.8084 92.1132 79.8084 87.9202C79.8084 83.7272 83.2184 80.3172 87.4113 80.3172C91.6045 80.3172 95.0143 83.7272 95.0143 87.9202C95.0143 92.1132 91.6045 95.5232 87.4113 95.5232Z" fill="black"/>
<path d="M83.981 101.227C83.0744 100.703 81.911 101.014 81.3844 101.923L77.2922 109.015L76.6422 108.034C76.3134 107.534 75.7679 107.218 75.171 107.184L73.9962 107.114L78.1571 99.9102C78.6816 99.0016 78.37 97.8384 77.4614 97.3136C76.5529 96.7871 75.3897 97.0989 74.8631 98.0093L69.1667 107.876C68.8379 108.446 68.8283 109.148 69.1399 109.727C69.4516 110.307 70.0409 110.686 70.7005 110.723L73.9944 110.921L75.8134 113.675C76.1651 114.209 76.7618 114.529 77.3986 114.529H77.4577C78.1134 114.508 78.7159 114.148 79.0467 113.578L84.6786 103.823C85.2031 102.915 84.8915 101.752 83.981 101.227Z" fill="black"/>
<path d="M100.01 98.0986C99.4833 97.1883 98.3181 96.8764 97.4133 97.403C96.5029 97.9276 96.1911 99.091 96.7156 99.9993L100.827 107.114L99.6523 107.184C99.0556 107.22 98.5101 107.536 98.1793 108.034L97.5331 109.015L93.4618 101.959C92.9334 101.05 91.77 100.739 90.8635 101.263C89.9549 101.788 89.6433 102.951 90.1678 103.86L95.7788 113.578C96.1096 114.149 96.7121 114.508 97.3678 114.529H97.4269C98.0617 114.529 98.6604 114.209 99.0139 113.675L100.831 110.923L104.123 110.724C104.783 110.686 105.372 110.307 105.684 109.728C105.996 109.148 105.984 108.447 105.657 107.877L100.01 98.0986Z" fill="black"/>
<path d="M36.0915 53.7064H47.496C48.5472 53.7064 49.3967 52.8548 49.3967 51.8057C49.3967 50.7566 48.5472 49.905 47.496 49.905H36.0915C35.0403 49.905 34.1908 50.7566 34.1908 51.8057C34.1908 52.8548 35.0403 53.7064 36.0915 53.7064Z" fill="black"/>
<path d="M36.0915 65.111H58.9006C59.9517 65.111 60.8012 64.2594 60.8012 63.2103C60.8012 62.1611 59.9517 61.3096 58.9006 61.3096H36.0915C35.0403 61.3096 34.1908 62.1611 34.1908 63.2103C34.1908 64.2594 35.0403 65.111 36.0915 65.111Z" fill="black"/>
<path d="M36.2924 88.7696C36.7599 89.7085 37.9024 90.0887 38.8413 89.6212C39.7802 89.1516 40.1624 88.0094 39.6908 87.0703C37.8091 83.3068 37.3872 79.9311 38.5579 78.0359C39.1814 77.0267 40.2686 76.5153 41.7931 76.5153C42.6997 76.5153 43.038 76.8269 43.251 77.1312C44.667 79.1726 43.3214 85.3899 41.9129 89.1534C41.5993 89.9916 41.9129 90.9345 42.6656 91.4192C43.4145 91.9001 44.4048 91.7956 45.0378 91.1646C45.8495 90.3549 46.7296 89.547 47.4956 88.8912V89.8207C47.4956 90.5885 47.9576 91.2824 48.6684 91.5751C49.3791 91.8716 50.1946 91.7081 50.7401 91.1646C51.6088 90.2979 52.6161 89.4481 53.4638 88.8362C53.4411 88.8836 53.4182 88.9293 53.3955 88.973C53.1046 89.5621 53.1369 90.2618 53.483 90.8204C53.8309 91.3793 54.441 91.7214 55.0986 91.7214H62.7015C63.7527 91.7214 64.6022 90.8699 64.6022 89.8207C64.6022 88.7716 63.7527 87.9201 62.7015 87.9201H57.7539C57.9078 87.0153 57.87 86.0953 57.4118 85.354C56.9271 84.5691 56.0831 84.1185 55.0986 84.1185C53.9238 84.1185 52.5421 84.833 51.28 85.7189C51.1832 84.89 50.6927 84.2078 49.9476 83.8999C49.4402 83.6908 48.7862 83.4173 47.1991 84.3695C47.8244 81.0945 48.007 77.3196 46.3761 74.9665C45.6633 73.9381 44.291 72.7141 41.7933 72.7141C38.946 72.7141 36.6479 73.8944 35.3232 76.0386C33.4281 79.1062 33.7796 83.746 36.2924 88.7696Z" fill="black"/>
<path d="M87.4114 63.2103C87.4114 62.1611 86.5619 61.3096 85.5108 61.3096H66.5032C65.4521 61.3096 64.6025 62.1611 64.6025 63.2103C64.6025 64.2594 65.4521 65.111 66.5032 65.111H85.5108C86.5619 65.111 87.4114 64.2594 87.4114 63.2103Z" fill="black"/>
</g>
<defs>
<clipPath id="clip0">
<path d="M0 0.528809H114V114.529H0V0.528809Z" fill="white"/>
</clipPath>
</defs>
</svg>
