<svg width="114" height="116" viewBox="0 0 114 116" fill="none" xmlns="http://www.w3.org/2000/svg">
<g clip-path="url(#clip0)">
<path d="M75.9975 61.8679C92.7588 61.8679 106.397 48.0087 106.397 30.9752C106.397 13.9417 92.7588 0.0825195 75.9975 0.0825195C59.2363 0.0825195 45.5985 13.9417 45.5985 30.9752C45.5985 48.0087 59.2363 61.8679 75.9975 61.8679ZM75.9975 3.94396C90.665 3.94396 102.597 16.0693 102.597 30.9752C102.597 45.8811 90.6653 58.0064 75.9975 58.0064C61.3298 58.0064 49.3982 45.8811 49.3982 30.9752C49.3982 16.0693 61.3301 3.94396 75.9975 3.94396Z" fill="black"/>
<path d="M112.978 81.176C110.883 77.4842 106.218 76.2235 102.717 78.2857L80.8484 89.102C77.4494 90.83 74.0181 90.83 66.4981 90.83C59.1473 90.83 47.9242 88.9437 47.8123 88.9262C46.7674 88.7545 45.7964 89.4629 45.6254 90.5114C45.4524 91.5638 46.1517 92.5601 47.1853 92.7338C47.6584 92.8148 58.8301 94.6917 66.4981 94.6917C74.3866 94.6917 78.3462 94.6917 82.5298 92.5659L104.497 81.6937C105.375 81.1782 106.399 81.0411 107.381 81.3074C108.36 81.5758 109.18 82.215 109.686 83.1069C110.195 84.0009 110.33 85.0415 110.068 86.038C109.805 87.0344 109.177 87.8664 108.244 88.4149L82.5545 104.663C82.5013 104.699 77.0199 108.207 64.5983 108.207C53.8294 108.207 37.1879 98.8894 36.9483 98.7561C36.7773 98.6713 32.6563 96.6226 24.6994 96.6226C23.6507 96.6226 22.7996 97.4877 22.7996 98.5534C22.7996 99.6191 23.6507 100.484 24.6994 100.484C31.6096 100.484 35.17 102.174 35.1775 102.174V102.172C35.8938 102.577 52.8412 112.069 64.5983 112.069C78.3159 112.069 84.3994 108.053 84.6009 107.916L110.197 91.726C111.954 90.695 113.212 89.0287 113.737 87.0381C114.265 85.0433 113.993 82.9619 112.978 81.176Z" fill="black"/>
<path d="M75.9978 40.6293C73.9022 40.6293 72.1978 38.8975 72.1978 36.7677C72.1978 35.7019 71.3486 34.8369 70.2979 34.8369C69.2473 34.8369 68.3981 35.7019 68.3981 36.7677C68.3981 40.3551 70.8281 43.3536 74.0979 44.2168V44.491C74.0979 45.5567 74.9471 46.4217 75.9978 46.4217C77.0485 46.4217 77.8976 45.5567 77.8976 44.491V44.2168C81.1675 43.3538 83.5975 40.3551 83.5975 36.7677C83.5975 32.5082 80.1889 29.0445 75.9978 29.0445C73.9022 29.0445 72.1978 27.3127 72.1978 25.1829C72.1978 23.0533 73.902 21.3212 75.9978 21.3212C78.0934 21.3212 79.7977 23.053 79.7977 25.1829C79.7977 26.2486 80.6469 27.1136 81.6976 27.1136C82.7483 27.1136 83.5975 26.2486 83.5975 25.1829C83.5975 21.5954 81.1675 18.597 77.8976 17.7338V17.4595C77.8976 16.3938 77.0485 15.5288 75.9978 15.5288C74.9471 15.5288 74.0979 16.3938 74.0979 17.4595V17.7338C70.8281 18.5967 68.3981 21.5954 68.3981 25.1829C68.3981 29.4423 71.8066 32.906 75.9978 32.906C78.0934 32.906 79.7977 34.6378 79.7977 36.7677C79.7977 38.8973 78.0936 40.6293 75.9978 40.6293Z" fill="black"/>
<path d="M13.2995 61.8679H1.89987C0.85119 61.8679 0 62.7329 0 63.7986C0 64.8644 0.85119 65.7294 1.89987 65.7294H13.2995C14.3464 65.7294 15.1994 66.5962 15.1994 67.6601V110.138C15.1994 111.202 14.3464 112.068 13.2995 112.068H1.89987C0.85119 112.068 0 112.933 0 113.999C0 115.065 0.85119 115.93 1.89987 115.93H13.2995C16.442 115.93 18.9994 113.331 18.9994 110.137V67.6603C18.9994 64.4668 16.442 61.8679 13.2995 61.8679Z" fill="black"/>
<path d="M24.6994 73.4525H39.8991C42.1162 73.4525 45.8839 76.3256 49.2087 78.8586C53.3772 82.0368 57.3158 85.0373 60.7983 85.0373H72.198C75.0839 85.0373 76.5165 86.3675 76.5545 86.4023C76.925 86.7788 77.4115 86.968 77.8978 86.968C78.3843 86.968 78.8705 86.7788 79.241 86.4023C79.9838 85.6473 79.9838 84.427 79.241 83.6722C78.9903 83.4174 76.6572 81.1756 72.198 81.1756H60.7983C58.5812 81.1756 54.8135 78.3025 51.4886 75.7694C47.3202 72.5913 43.3815 69.5908 39.8991 69.5908H24.6994C23.6507 69.5908 22.7996 70.4558 22.7996 71.5215C22.7996 72.5872 23.6507 73.4525 24.6994 73.4525Z" fill="black"/>
<path d="M9.49975 103.38C9.49975 101.783 8.22108 100.484 6.64984 100.484C5.0786 100.484 3.79993 101.783 3.79993 103.38C3.79993 104.977 5.0786 106.276 6.64984 106.276C8.22108 106.276 9.49975 104.977 9.49975 103.38Z" fill="black"/>
</g>
<defs>
<clipPath id="clip0">
<path d="M0 0.0808105H114V115.932H0V0.0808105Z" fill="white"/>
</clipPath>
</defs>
</svg>
