<svg width="114" height="115" viewBox="0 0 114 115" fill="none" xmlns="http://www.w3.org/2000/svg">
<g clip-path="url(#clip0)">
<path d="M68.4569 42.3286H68.438C67.3893 42.3286 66.5474 43.1798 66.5474 44.2285C66.5474 45.2772 67.4082 46.1284 68.4569 46.1284C69.5076 46.1284 70.3568 45.2772 70.3568 44.2285C70.3568 43.1798 69.5076 42.3286 68.4569 42.3286Z" fill="black"/>
<path d="M45.6571 42.3286H45.6382C44.5895 42.3286 43.7476 43.1798 43.7476 44.2285C43.7476 45.2772 44.6084 46.1284 45.6571 46.1284C46.7078 46.1284 47.557 45.2772 47.557 44.2285C47.557 43.1798 46.7078 42.3286 45.6571 42.3286Z" fill="black"/>
<path d="M23.2198 51.2224C23.9797 52.7672 24.9735 54.7887 27.0749 55.4271C28.1407 58.4708 31.2853 67.0323 34.5191 71.8828C36.9625 75.5459 42.6834 84.1282 56.9997 84.1282C71.316 84.1282 77.0371 75.5459 79.4803 71.8828C82.7121 67.0341 85.8547 58.4783 86.9245 55.4308C89.174 54.7602 90.2 52.5239 91 50.7778C91.0835 50.6068 93.0994 46.5066 93.0994 40.4286C93.0994 37.9604 91.3191 35.4716 87.3994 34.8673V25.2286C87.3997 24.9817 87.0519 0.528809 56.9997 0.528809C26.9475 0.528809 26.6 28.7436 26.6 29.0286C26.6 30.0773 27.4512 30.9286 28.4999 30.9286C29.5486 30.9286 30.3998 30.0773 30.3998 29.0286C30.3998 28.0198 30.7019 4.32886 56.9997 4.32886C83.1815 4.32886 83.5958 24.3814 83.5996 25.2288V36.6287C83.5996 37.6775 84.4508 38.5287 85.4995 38.5287C87.2532 38.5287 89.2996 39.0265 89.2996 40.4286C89.2996 45.5606 87.6143 49.0507 87.5212 49.2484C86.634 51.1844 86.216 51.8285 85.4998 51.8285C84.6808 51.8285 83.955 52.3511 83.6967 53.1281C83.6606 53.2401 79.9367 64.3495 76.319 69.774C74.0353 73.1998 69.2834 80.3286 56.9999 80.3286C44.7165 80.3286 39.9646 73.1998 37.6808 69.774C34.0671 64.3553 30.3392 53.2404 30.3031 53.1281C30.0446 52.3511 29.317 51.8285 28.5001 51.8285C27.8844 51.8285 27.5538 51.4237 26.6305 49.5447L26.4005 49.0792C26.3815 49.0449 24.7 45.6193 24.7 40.4286C24.7 38.8573 26.7654 38.5287 28.5001 38.5287C29.5488 38.5287 30.4 37.6775 30.4 36.6287C30.4 35.58 29.5488 34.7288 28.5001 34.7288C22.897 34.7288 20.9002 37.6739 20.9002 40.4288C20.9002 46.5068 22.9161 50.607 22.9996 50.778L23.2198 51.2224Z" fill="black"/>
<path d="M83.2803 37.4741C82.6952 36.6002 81.5171 36.3646 80.6449 36.9477L76.6492 39.6116C75.0209 36.7142 71.9543 34.7285 68.3994 34.7285C63.8109 34.7285 59.9748 37.9984 59.0913 42.3284H54.9076C54.0241 37.9984 50.188 34.7285 45.5995 34.7285C42.0446 34.7285 38.978 36.7139 37.3497 39.6116L33.3539 36.9477C32.478 36.3644 31.2999 36.5999 30.7186 37.4741C30.1372 38.348 30.3728 39.5281 31.2449 40.1094L36.183 43.4003C36.1583 43.6777 36.0995 43.9455 36.0995 44.2288C36.0995 49.4669 40.3611 53.7288 45.5995 53.7288C50.188 53.7288 54.0241 50.4589 54.9076 46.1289H59.0913C59.9748 50.4591 63.8109 53.7288 68.3994 53.7288C73.6376 53.7288 77.8994 49.4672 77.8994 44.2288C77.8994 43.9458 77.8404 43.6777 77.8159 43.4003L82.7539 40.1094C83.6261 39.5278 83.8619 38.348 83.2803 37.4741ZM45.5997 49.9285C42.4572 49.9285 39.8998 47.3711 39.8998 44.2285C39.8998 41.086 42.4572 38.5286 45.5997 38.5286C48.7423 38.5286 51.2997 41.086 51.2997 44.2285C51.2997 47.3711 48.7423 49.9285 45.5997 49.9285ZM68.3996 49.9285C65.257 49.9285 62.6996 47.3711 62.6996 44.2285C62.6996 41.086 65.257 38.5286 68.3996 38.5286C71.5421 38.5286 74.0996 41.086 74.0996 44.2285C74.0996 47.3711 71.5421 49.9285 68.3996 49.9285Z" fill="black"/>
<path d="M59.7451 101.547C53.574 105.661 51.484 111.769 51.3967 112.028C51.0661 113.021 51.602 114.091 52.5937 114.426C52.7952 114.492 52.9985 114.526 53.1997 114.526C53.9919 114.526 54.7312 114.025 55.001 113.234C55.0182 113.183 56.8041 108.076 61.8543 104.709C62.7264 104.128 62.962 102.948 62.3807 102.074C61.7971 101.2 60.6172 100.962 59.7451 101.547Z" fill="black"/>
<path d="M113.943 112.166L112.003 104.428C109.898 98.116 99.4666 91.7283 83.5997 91.7283C82.9992 91.7283 82.4199 90.8523 81.5364 89.4102C80.1722 87.1797 78.3026 84.1282 74.0999 84.1282C67.999 84.1282 50.333 93.554 38.3192 111.573C37.7379 112.447 37.9735 113.627 38.8456 114.209C39.7195 114.792 40.8976 114.555 41.4809 113.682C52.8087 96.6908 69.4792 87.9282 74.0999 87.9282C76.074 87.9282 76.9804 89.245 78.2952 91.3938C78.7968 92.2108 79.3611 93.1076 80.0642 93.862C76.4314 96.6797 69.9488 102.399 68.4572 108.366C68.2027 109.385 68.8219 110.416 69.8385 110.671C69.9944 110.711 70.1482 110.728 70.3021 110.728C71.1533 110.728 71.9266 110.152 72.1432 109.29C73.6348 103.324 82.0688 97.0328 84.176 95.5432C98.5987 95.6953 107.018 101.488 108.357 105.49L110.257 113.09C110.474 113.952 111.247 114.528 112.098 114.528C112.252 114.528 112.406 114.511 112.562 114.471C113.578 114.217 114.197 113.185 113.943 112.166Z" fill="black"/>
<path d="M39.8998 99.3282C40.3863 99.3282 40.8726 99.142 41.2431 98.7715C41.9859 98.0285 41.9859 96.8278 41.2431 96.085C39.5825 94.4224 37.6312 93.4002 35.8433 92.7639C36.0637 92.5492 36.2803 92.3344 36.493 92.1217C37.6728 90.9419 38.7863 89.8284 39.8996 89.8284C44.4881 89.8284 47.7883 94.6391 47.8188 94.6829C48.4001 95.5551 49.5782 95.7906 50.4541 95.2093C51.3263 94.6279 51.5618 93.4481 50.9805 92.5739C50.8021 92.3079 46.5403 86.0283 39.8998 86.0283C37.2133 86.0283 35.4026 87.8389 33.8067 89.4349C32.6268 90.6148 31.5133 91.7283 30.4 91.7283C14.1362 91.7283 4.84526 95.8835 1.9572 104.567L0.0572864 112.166C-0.197208 113.185 0.421995 114.216 1.43864 114.471C1.5945 114.511 1.74835 114.528 1.90221 114.528C2.75342 114.528 3.5267 113.952 3.74334 113.09L5.6034 105.629C6.43568 103.13 8.97016 95.5283 30.4003 95.5283C30.4497 95.5283 35.3497 95.5664 38.557 98.7715C38.9271 99.142 39.4136 99.3282 39.8998 99.3282Z" fill="black"/>
<path d="M66.4999 65.1284C67.5486 65.1284 68.3998 64.2772 68.3998 63.2285V61.3286C68.3998 60.2837 67.5506 59.4343 66.5037 59.4287C66.4694 59.4287 62.89 59.3888 57.6004 57.6257C57.2089 57.4965 56.791 57.4965 56.3996 57.6257C51.11 59.3888 47.5304 59.4287 47.5001 59.4287C46.4514 59.4287 45.6002 60.2799 45.6002 61.3286V63.2285C45.6002 64.2772 46.4514 65.1284 47.5001 65.1284C48.5488 65.1284 49.4 64.2772 49.4 63.2285V63.0973C51.0588 62.913 53.7092 62.4741 56.9999 61.4272C60.2907 62.4741 62.9412 62.913 64.5997 63.0973V63.2285C64.6 64.2772 65.4512 65.1284 66.4999 65.1284Z" fill="black"/>
<path d="M53.1997 65.1284C52.151 65.1284 51.2998 65.9796 51.2998 67.0283C51.2998 68.077 52.151 68.9283 53.1997 68.9283H60.7996C61.8483 68.9283 62.6995 68.077 62.6995 67.0283C62.6995 65.9796 61.8483 65.1284 60.7996 65.1284H53.1997Z" fill="black"/>
</g>
<defs>
<clipPath id="clip0">
<path d="M0 0.528809H114V114.529H0V0.528809Z" fill="white"/>
</clipPath>
</defs>
</svg>
