<svg width="8" height="47" viewBox="0 0 8 47" fill="none" xmlns="http://www.w3.org/2000/svg">
<path d="M3.80191 0.783203C1.69952 0.783203 0 2.48028 0 4.57965V27.3583C0 29.4577 1.69952 31.1548 3.80191 31.1548C5.9043 31.1548 7.60382 29.454 7.60382 27.3583V4.57965C7.60382 2.48028 5.90448 0.783203 3.80191 0.783203Z" fill="white"/>
<path d="M7.2958 41.4768C7.10578 40.9833 6.83964 40.5657 6.49738 40.2241C6.30736 40.0723 6.11716 39.8824 5.88916 39.7686C5.69914 39.6168 5.47096 39.5066 5.24279 39.4269C5.01462 39.3092 4.78662 39.2371 4.52048 39.199C3.30761 38.9333 1.97316 39.3546 1.10254 40.2241C0.760279 40.5657 0.494315 40.9834 0.304112 41.4768C0.114088 41.9323 0 42.4259 0 42.9195C0 43.4131 0.114088 43.9065 0.304112 44.3622C0.494137 44.8177 0.760279 45.2352 1.10254 45.6149C1.48276 45.9565 1.90096 46.2222 2.35713 46.4122C2.81329 46.6019 3.3076 46.7158 3.80192 46.7158C4.29623 46.7158 4.78662 46.6019 5.24279 46.4122C5.69896 46.2224 6.11341 45.9567 6.49738 45.6149C6.83964 45.2352 7.1056 44.8177 7.2958 44.3622C7.48583 43.9067 7.59991 43.4131 7.59991 42.9195C7.59991 42.4259 7.48583 41.9323 7.2958 41.4768Z" fill="white"/>
</svg>
