<svg width="114" height="115" viewBox="0 0 114 115" fill="none" xmlns="http://www.w3.org/2000/svg">
<g clip-path="url(#clip0)">
<path d="M14.6568 38.5374C15.6639 38.832 16.7184 38.2524 17.011 37.2435C22.6388 17.9147 40.645 4.41531 60.8003 4.41531C64.0266 4.41531 67.2338 4.75152 70.3574 5.4186C70.289 8.15259 71.4689 10.028 72.2288 11.2326C72.4397 11.567 72.7267 12.023 72.7608 12.0856C72.7608 18.8991 71.368 20.0086 71.3832 20.0124C68.3032 20.0124 63.2493 22.7635 61.3492 26.3109C60.1827 28.4865 60.2775 30.7892 61.6132 32.7955C62.529 34.1693 63.3175 35.6967 64.0814 37.1749C65.6963 40.3024 67.488 43.7718 70.302 43.7718C70.8967 43.7718 71.5388 43.6159 72.2342 43.2684C74.4496 42.1607 76.038 39.0105 77.5732 35.9666C78.2497 34.6251 79.2434 32.6568 79.8323 32.0316C81.7607 32.2939 82.7032 34.0379 83.9782 36.8007C84.9167 38.8337 85.8877 40.9332 87.7952 41.887C91.0061 43.4926 101.564 41.8111 107.399 39.3334C108.272 38.9629 108.737 38.0052 108.49 37.0894C104.502 22.3454 93.67 10.081 79.5112 4.28394C78.5405 3.88494 77.4287 4.35052 77.0317 5.3213C76.6347 6.29208 77.1001 7.4018 78.0711 7.79879C90.6131 12.9364 100.328 23.5669 104.346 36.4433C98.4335 38.5276 90.8449 39.1546 89.494 38.4877C88.7798 38.1306 88.0615 36.5782 87.4287 35.2082C86.1043 32.3393 84.2899 28.4101 79.6578 28.2048C77.2638 28.0603 75.9147 30.8154 74.18 34.2564C73.1615 36.2741 71.6245 39.3236 70.399 39.9261C69.6941 39.7609 68.2938 37.0496 67.4578 35.4307C66.6845 33.9335 65.8085 32.2367 64.775 30.6883C64.2145 29.8484 64.1916 29.0504 64.699 28.1044C66.0042 25.6685 69.9203 23.8122 71.3832 23.8122C74.8183 23.8122 76.5606 19.8679 76.5606 12.0854C76.5606 10.9797 75.9926 10.079 75.4453 9.20687C74.6397 7.93194 73.8095 6.61159 74.3015 4.35809C74.52 3.3568 73.9045 2.36108 72.9108 2.11037C68.976 1.11866 64.9005 0.615234 60.8003 0.615234C38.9655 0.615234 19.4582 15.2415 13.363 36.1832C13.0684 37.1903 13.6497 38.2448 14.6568 38.5374Z" fill="black"/>
<path d="M83.5927 51.0034C83.0436 51.1593 82.293 51.3759 82.0935 51.3911C79.4677 51.3911 77.8034 53.4241 76.5892 54.9079C76.1257 55.4741 75.2878 56.4905 74.7539 56.5059C73.8951 56.0764 72.9927 55.86 72.0711 55.86C69.8309 55.86 67.8912 57.1919 67.4579 59.0311C67.1519 60.3231 67.6024 62.0919 69.7777 63.1807C72.8633 64.7235 76.0535 66.3177 77.4727 67.7369C78.4493 68.7135 80.1384 69.2739 82.1087 69.2739C85.1012 69.2739 89.0798 67.8204 90.4458 63.7202C90.9853 62.1053 92.2756 60.8702 93.5238 59.677C94.9715 58.2881 96.3415 56.9791 96.3604 55.0998C96.3738 53.9901 95.8817 52.9301 94.9011 51.9477C93.5654 50.614 91.7472 49.9355 89.4937 49.9355C87.3317 49.9355 85.1695 50.5532 83.5927 51.0034ZM92.5606 55.0484C92.4713 55.4227 91.525 56.3289 90.8962 56.9312C89.4616 58.303 87.6775 60.0112 86.8417 62.5192C85.9032 65.3311 82.7339 65.4736 82.1087 65.4736C81.0009 65.4736 80.3056 65.181 80.1611 65.0519C78.3028 63.1936 74.9874 61.535 71.4761 59.7814C71.4686 59.7776 71.4628 59.7756 71.4552 59.7718C71.8124 59.6255 72.4736 59.616 73.055 59.9048C73.6686 60.2125 74.2994 60.3683 74.9264 60.3683C77.0296 60.3683 78.3578 58.7458 79.5283 57.315C80.3853 56.2719 81.2688 55.1909 82.0933 55.1909C82.7677 55.1909 83.5526 54.9667 84.6356 54.657C86.0739 54.2466 87.8636 53.7354 89.4939 53.7354C90.7194 53.7354 91.6087 54.03 92.2128 54.634C92.4769 54.9003 92.5492 55.0484 92.5606 55.0484Z" fill="black"/>
<path d="M109.729 43.1786C109.584 42.1375 108.611 41.4136 107.587 41.5561C106.548 41.7006 105.82 42.6601 105.965 43.6994C106.254 45.7875 106.4 47.9136 106.4 50.0151C106.4 74.9773 86.2409 95.3167 61.3473 95.6113C54.5908 91.2964 48.2582 86.0106 51.0797 79.4291C56.1451 67.6053 51.4313 63.1992 49.4171 61.3144L49.0391 60.9553C48.4633 60.3815 47.8136 59.9901 47.2415 59.6463C45.8508 58.8122 45.4766 58.588 46.2231 56.3478C46.7172 54.8601 47.3745 54.1667 48.1326 53.3629C49.89 51.5046 51.2333 49.6561 51.2333 44.2828C51.2333 41.1553 49.6469 38.6607 46.8804 37.439C43.7434 36.0521 39.5539 36.5421 37.3387 38.5525C35.9555 39.8103 35.49 41.5223 36.0638 43.2454C37.4184 47.302 34.3233 53.1654 28.5398 57.503C27.0083 58.6506 26.5523 58.1242 26.2787 57.8107C24.582 55.8556 24.7132 50.2943 26.1057 48.9036C27.0386 47.9706 27.316 46.7794 26.8467 45.7173C25.3077 42.227 15.4903 42.4968 13.543 42.5881C12.6176 42.6318 11.8577 43.3349 11.7437 44.2545C11.5023 46.219 11.3999 47.9423 11.3999 50.0153C11.3999 72.7964 26.826 92.5163 48.9117 97.9732C49.9263 98.2259 50.9599 97.6027 51.2106 96.5843C51.4633 95.5658 50.8401 94.5361 49.8217 94.2854C29.4366 89.2478 15.2 71.042 15.2 50.0148C15.2 48.6963 15.2456 47.5315 15.3463 46.3441C18.561 46.3403 21.2914 46.7126 22.6841 47.1383C20.5048 50.5412 20.7441 57.2311 23.408 60.3015C25.3175 62.5018 28.0878 62.5929 30.82 60.5429C38.1198 55.0689 41.593 47.8052 39.6683 42.0444C39.6076 41.8563 39.5468 41.6797 39.8963 41.3624C40.8958 40.4542 43.4399 40.0703 45.3436 40.914C46.7497 41.5352 47.4337 42.6373 47.4337 44.2828C47.4337 48.5711 46.5691 49.4869 45.3721 50.7523C44.4848 51.6928 43.3791 52.8613 42.6172 55.1471C40.9092 60.2791 43.649 61.9243 45.2866 62.9066C45.7103 63.1593 46.1093 63.3987 46.3525 63.6418C46.4912 63.7806 46.6488 63.9288 46.8218 64.0903C48.4938 65.652 51.6023 68.561 47.5876 77.9299C43.0351 88.5528 54.7733 95.9591 59.7856 99.1226C60.0895 99.3125 60.4411 99.4151 60.8002 99.4151C88.0386 99.4151 110.2 77.2535 110.2 50.0151C110.2 47.7386 110.042 45.4395 109.729 43.1786Z" fill="black"/>
<path d="M92.5508 92.7062C83.3244 99.5804 72.3443 103.215 60.7998 103.215C31.4658 103.215 7.5999 79.351 7.5999 50.0152C7.5999 48.9665 6.74869 48.1152 5.69997 48.1152C4.65126 48.1152 3.80005 48.9665 3.80005 50.0152C3.80005 80.8085 28.3481 105.959 58.9001 106.968V112.715C58.9001 113.764 59.7513 114.615 60.8 114.615C61.8488 114.615 62.7 113.764 62.7 112.715V106.939C74.3678 106.561 85.443 102.742 94.8215 95.7539C95.6631 95.1269 95.8361 93.9374 95.2091 93.0938C94.5819 92.2539 93.3945 92.0792 92.5508 92.7062Z" fill="black"/>
<path d="M62.2537 77.5977C59.8825 77.5977 57.101 80.3261 56.0864 82.7751C55.2942 84.6884 55.5298 86.4725 56.7343 87.6771C57.8685 88.8113 59.552 89.463 61.3533 89.463C63.1546 89.463 64.8379 88.8113 65.9741 87.6771C67.2356 86.4155 67.5436 84.561 66.8404 82.4578C66.3673 81.0366 65.4288 79.5337 64.3344 78.4373C63.7907 77.896 63.0517 77.5977 62.2537 77.5977ZM63.2873 84.9887C62.4437 85.8324 60.2512 85.8094 59.4302 85.0097C59.4037 84.9279 59.4055 84.453 59.9089 83.6207C60.5644 82.5397 61.4898 81.7758 61.9914 81.5042C62.5309 82.1445 62.9985 82.9463 63.2359 83.6588C63.4469 84.2876 63.4659 84.8119 63.2873 84.9887Z" fill="black"/>
</g>
<defs>
<clipPath id="clip0">
<path d="M0 0.615234H114V114.615H0V0.615234Z" fill="white"/>
</clipPath>
</defs>
</svg>
