<svg width="362" height="363" viewBox="0 0 362 363" fill="none" xmlns="http://www.w3.org/2000/svg">
<mask id="mask0" mask-type="alpha" maskUnits="userSpaceOnUse" x="0" y="0" width="362" height="363">
<path d="M181 362.312C280.964 362.312 362 281.276 362 181.312C362 81.349 280.964 0.3125 181 0.3125C81.0365 0.3125 0 81.349 0 181.312C0 281.276 81.0365 362.312 181 362.312Z" fill="#C4C4C4"/>
</mask>
<g mask="url(#mask0)">
<path d="M141.6 300.812L141.5 311.112L133.5 311.312L124.6 311.513L107.6 312.013L69.4 313.112L63.7 313.312L47.1 301.913L45.5 300.812L37 295.013V257.712L46.2 248.512H55.2V218.512L66 207.712V167.312L68.6 169.913V195.012L81.9 208.312V228.312L90.1 220.113V197.913L105.2 182.812V216.712H116.3V195.913H132.2V179.512L141.5 170.212V300.612C141.6 300.712 141.6 300.712 141.6 300.812Z" fill="#49607C"/>
<path opacity="0.85" d="M63.1 242.012H60.3C59.7 242.012 59.2 241.512 59.2 240.912V238.112C59.2 237.512 59.7 237.012 60.3 237.012H63.1C63.7 237.012 64.2 237.512 64.2 238.112V240.912C64.2 241.512 63.7 242.012 63.1 242.012Z" fill="url(#paint0_linear)"/>
<path opacity="0.85" d="M46.5 267.613H43.7C43.1 267.613 42.6 267.113 42.6 266.513V263.713C42.6 263.113 43.1 262.613 43.7 262.613H46.5C47.1 262.613 47.6 263.113 47.6 263.713V266.513C47.6 267.113 47.1 267.613 46.5 267.613Z" fill="url(#paint1_linear)"/>
<path opacity="0.85" d="M63 267.613H60.2C59.6 267.613 59.1 267.113 59.1 266.513V263.713C59.1 263.113 59.6 262.613 60.2 262.613H63C63.6 262.613 64.1 263.113 64.1 263.713V266.513C64.1 267.113 63.6 267.613 63 267.613Z" fill="url(#paint2_linear)"/>
<path opacity="0.85" d="M79.4 267.613H76.6C76 267.613 75.5 267.113 75.5 266.513V263.713C75.5 263.113 76 262.613 76.6 262.613H79.4C80 262.613 80.5 263.113 80.5 263.713V266.513C80.6 267.113 80.1 267.613 79.4 267.613Z" fill="url(#paint3_linear)"/>
<path opacity="0.85" d="M95.9 267.613H93.1C92.5 267.613 92 267.113 92 266.513V263.713C92 263.113 92.5 262.613 93.1 262.613H95.9C96.5 262.613 97 263.113 97 263.713V266.513C97 267.113 96.5 267.613 95.9 267.613Z" fill="url(#paint4_linear)"/>
<path opacity="0.85" d="M127 208.812H124.2C123.6 208.812 123.1 208.312 123.1 207.712V204.913C123.1 204.313 123.6 203.812 124.2 203.812H127C127.6 203.812 128.1 204.313 128.1 204.913V207.712C128.2 208.312 127.7 208.812 127 208.812Z" fill="url(#paint5_linear)"/>
<path opacity="0.85" d="M97.5 232.712H94.7C94.1 232.712 93.6 232.212 93.6 231.612V228.812C93.6 228.212 94.1 227.712 94.7 227.712H97.5C98.1 227.712 98.6 228.212 98.6 228.812V231.612C98.6 232.212 98.1 232.712 97.5 232.712Z" fill="url(#paint6_linear)"/>
<path opacity="0.85" d="M127.4 237.812H124.6C124 237.812 123.5 237.312 123.5 236.712V233.913C123.5 233.313 124 232.812 124.6 232.812H127.4C128 232.812 128.5 233.313 128.5 233.913V236.712C128.5 237.312 128 237.812 127.4 237.812Z" fill="url(#paint7_linear)"/>
<path opacity="0.85" d="M63.1 227.413H60.3C59.7 227.413 59.2 226.913 59.2 226.313V223.513C59.2 222.913 59.7 222.413 60.3 222.413H63.1C63.7 222.413 64.2 222.913 64.2 223.513V226.313C64.2 226.913 63.7 227.413 63.1 227.413Z" fill="url(#paint8_linear)"/>
<path d="M292.044 104.862H96.8425V137.791H292.044V104.862Z" fill="#5E7086"/>
<path d="M96.8425 129.531L159.42 104.862H229.58L292.158 129.531H96.8425Z" fill="#385170"/>
<path d="M294.987 104.862H92.995V109.388H294.987V104.862Z" fill="#979EA7"/>
<path d="M184.768 89.5842C184.089 89.1315 182.958 87.5473 182.505 86.4157C182.052 85.2841 182.618 83.0209 180.015 81.5498C177.3 80.1918 176.055 80.305 174.584 78.6076C173.226 76.9102 173.678 73.2891 170.963 73.7417C170.963 73.7417 170.51 73.8548 170.17 74.0812C169.831 74.3075 169.152 73.968 169.039 74.1943C168.926 74.4207 169.039 74.9865 169.039 75.2128C169.039 75.4391 168.02 77.7023 167.907 78.6076C167.907 79.5129 168.36 79.626 168.926 79.2866C169.378 78.9471 170.51 77.8155 170.51 77.8155C170.51 77.8155 171.528 78.8339 171.642 79.3997C171.755 79.9655 171.302 80.984 170.623 81.5498C169.944 82.2287 168.02 85.7367 167.794 86.5288C167.681 87.3209 168.926 91.7342 169.152 92.0737C169.378 92.4132 170.397 91.0552 170.397 91.0552C170.397 91.0552 170.284 90.2631 169.944 89.5842C169.605 89.0184 168.813 87.321 168.926 86.8683C168.926 86.4157 172.094 83.134 172.094 83.134L173.226 84.2656C173.226 84.2656 172.321 90.9421 173.339 92.979H174.81C174.81 92.979 174.357 86.642 174.81 85.3972C175.15 86.0762 176.055 86.4157 176.055 86.4157C176.055 86.4157 175.942 87.6604 176.055 88.4526C176.168 89.2447 176.847 89.8105 176.847 89.8105C176.847 89.8105 175.602 92.0737 175.602 92.979H177.073C177.073 92.979 176.847 91.9605 177.073 91.621C177.3 91.2816 178.205 90.2631 178.205 89.5842C178.205 88.9052 177.752 86.7552 177.752 86.7552C177.752 86.7552 178.884 87.3209 179.45 87.0946C179.45 87.8868 180.581 88.5657 180.581 88.5657C180.581 88.5657 179.336 91.8474 179.336 92.979C179.676 93.2053 180.808 93.0921 180.808 93.0921V91.9605C180.808 91.9605 181.826 89.0184 181.939 88.1131C182.052 87.321 181.826 86.7552 181.826 86.7552C181.826 86.7552 182.844 88.792 183.976 89.6973C185.221 91.1684 185.447 90.15 184.768 89.5842Z" fill="#6C7C90"/>
<path d="M221.206 86.8682C221.093 86.0761 219.056 82.5681 218.377 81.8891C217.698 81.2102 217.358 80.3049 217.358 79.7391C217.472 79.1733 218.49 78.1548 218.49 78.1548C218.49 78.1548 219.508 79.2864 220.074 79.6259C220.527 79.9654 221.093 79.8522 221.093 78.947C221.093 78.0417 219.961 75.7785 219.961 75.5521C219.961 75.3258 220.074 74.6469 219.961 74.5337C219.848 74.3074 219.282 74.6469 218.83 74.4205C218.49 74.1942 218.037 74.0811 218.037 74.0811C215.322 73.6284 215.887 77.2496 214.416 78.947C213.058 80.6444 211.7 80.4181 208.985 81.8891C206.269 83.2471 206.948 85.6234 206.495 86.755C206.042 87.8867 204.798 89.3577 204.232 89.9235C203.553 90.3762 203.779 91.5078 205.024 90.6025C206.269 89.6972 207.174 87.6603 207.174 87.6603C207.174 87.6603 206.948 88.2261 207.061 89.0183C207.174 89.8104 208.192 92.8657 208.192 92.8657V93.9973C208.192 93.9973 209.324 94.1105 209.664 93.8841C209.777 92.7525 208.532 89.4709 208.532 89.4709C208.532 89.4709 209.664 88.7919 209.664 87.9998C210.229 88.2261 211.361 87.6603 211.361 87.6603C211.361 87.6603 210.908 89.8104 210.908 90.4893C210.908 91.1683 211.814 92.1867 212.04 92.5262C212.266 92.8657 212.04 93.8841 212.04 93.8841H213.511C213.511 92.9789 212.266 90.7157 212.266 90.7157C212.266 90.7157 212.945 90.263 213.058 89.3577C213.171 88.5656 213.058 87.3208 213.058 87.3208C213.058 87.3208 213.964 86.9814 214.303 86.3024C214.756 87.5472 214.303 93.8841 214.303 93.8841H215.774C216.793 91.8473 215.887 85.1708 215.887 85.1708L217.019 84.0392C217.019 84.0392 220.074 87.3208 220.187 87.7735C220.187 88.2261 219.395 89.8104 219.169 90.4893C218.83 91.0551 218.716 91.9604 218.716 91.9604C218.716 91.9604 219.735 93.2052 219.961 92.9789C219.961 92.0736 221.319 87.5472 221.206 86.8682Z" fill="#6C7C90"/>
<path d="M200.158 81.663C200.158 81.663 201.403 77.3628 199.705 76.9102C198.008 76.4576 198.121 79.8524 198.121 79.8524L197.442 79.2866C197.442 79.2866 198.461 75.5523 197.442 73.8549C196.65 72.4969 195.292 71.9311 194.839 71.818V69.3284C196.197 69.2153 197.216 68.0837 197.216 66.8389C197.216 65.481 196.197 64.4626 194.953 64.3494L196.65 63.1046L198.461 62.652L196.763 62.3125L194.613 63.4441L192.463 62.3125L190.766 62.652L192.576 63.1046L194.274 64.3494C193.029 64.4626 192.01 65.5942 192.01 66.8389C192.01 68.1968 193.029 69.2153 194.387 69.3284V71.818C193.821 71.9311 192.576 72.4969 191.784 73.8549C190.766 75.6654 191.784 79.2866 191.784 79.2866L191.105 79.8524C191.105 79.8524 191.218 76.4576 189.521 76.9102C187.824 77.3628 189.068 81.663 189.068 81.663C189.068 81.663 187.597 83.134 187.031 84.492C186.466 85.7367 187.371 89.471 187.484 90.7158C187.597 91.9606 187.824 93.5448 187.824 93.5448H188.616C188.616 93.5448 188.502 89.1315 189.521 88.5657C190.653 87.9999 190.879 89.471 190.992 90.4895C190.992 91.5079 190.992 93.5448 190.992 93.5448H191.784C191.784 93.5448 191.897 89.0184 192.237 88.4526C192.576 87.8868 194.726 88.6789 194.726 88.6789C194.726 88.6789 196.876 87.8868 197.216 88.4526C197.555 89.0184 197.668 93.5448 197.668 93.5448H198.461C198.461 93.5448 198.461 91.5079 198.461 90.4895C198.461 89.471 198.8 87.9999 199.932 88.5657C201.063 89.1315 200.837 93.5448 200.837 93.5448H201.629C201.629 93.5448 201.742 91.9606 201.969 90.7158C202.082 89.471 202.987 85.8499 202.421 84.492C201.629 83.134 200.158 81.663 200.158 81.663ZM194.274 68.989C193.142 68.8758 192.35 67.9705 192.35 66.8389C192.35 65.5942 193.368 64.6889 194.5 64.6889C195.745 64.6889 196.65 65.7073 196.65 66.8389C196.65 67.9705 195.745 68.8758 194.726 68.989H194.274Z" fill="#6C7C90"/>
<path d="M109.403 175.359H95.3714V287.954H109.403V175.359Z" fill="#9FA5AD"/>
<path d="M109.743 291.35H95.0319C94.0135 291.35 93.2213 290.558 93.2213 289.539C93.2213 288.521 94.0135 287.729 95.0319 287.729H109.743C110.761 287.729 111.553 288.521 111.553 289.539C111.553 290.558 110.761 291.35 109.743 291.35Z" fill="#979EA7"/>
<path d="M112.006 294.971H92.7687C91.7502 294.971 90.9581 294.179 90.9581 293.16C90.9581 292.142 91.7502 291.35 92.7687 291.35H112.006C113.024 291.35 113.817 292.142 113.817 293.16C113.817 294.179 113.024 294.971 112.006 294.971Z" fill="#979EA7"/>
<path d="M144.03 175.359H129.998V287.954H144.03V175.359Z" fill="#979EA7"/>
<path d="M144.37 291.35H129.659C128.641 291.35 127.848 290.558 127.848 289.539C127.848 288.521 128.641 287.729 129.659 287.729H144.37C145.388 287.729 146.18 288.521 146.18 289.539C146.18 290.558 145.388 291.35 144.37 291.35Z" fill="url(#paint9_linear)"/>
<path d="M146.633 294.971H127.396C126.377 294.971 125.585 294.179 125.585 293.16C125.585 292.142 126.377 291.35 127.396 291.35H146.633C147.652 291.35 148.444 292.142 148.444 293.16C148.444 294.179 147.652 294.971 146.633 294.971Z" fill="url(#paint10_linear)"/>
<path d="M178.658 175.359H164.626V287.954H178.658V175.359Z" fill="#9FA5AD"/>
<path d="M178.997 291.35H164.286C163.268 291.35 162.476 290.558 162.476 289.539C162.476 288.521 163.268 287.729 164.286 287.729H178.997C180.015 287.729 180.808 288.521 180.808 289.539C180.808 290.558 180.015 291.35 178.997 291.35Z" fill="url(#paint11_linear)"/>
<path d="M181.26 294.971H162.023C161.004 294.971 160.212 294.179 160.212 293.16C160.212 292.142 161.004 291.35 162.023 291.35H181.26C182.279 291.35 183.071 292.142 183.071 293.16C183.071 294.179 182.279 294.971 181.26 294.971Z" fill="url(#paint12_linear)"/>
<path d="M224.714 175.359H210.682V287.954H224.714V175.359Z" fill="#9FA5AD"/>
<path d="M225.053 291.35H210.342C209.324 291.35 208.532 290.558 208.532 289.539C208.532 288.521 209.324 287.729 210.342 287.729H225.053C226.072 287.729 226.864 288.521 226.864 289.539C226.864 290.558 225.959 291.35 225.053 291.35Z" fill="#979EA7"/>
<path d="M227.317 294.971H208.079C207.061 294.971 206.269 294.179 206.269 293.16C206.269 292.142 207.061 291.35 208.079 291.35H227.317C228.335 291.35 229.127 292.142 229.127 293.16C229.127 294.179 228.335 294.971 227.317 294.971Z" fill="#979EA7"/>
<path d="M259.228 175.359H245.196V287.954H259.228V175.359Z" fill="#9FA5AD"/>
<path d="M259.567 291.35H244.856C243.838 291.35 243.046 290.558 243.046 289.539C243.046 288.521 243.838 287.729 244.856 287.729H259.567C260.586 287.729 261.378 288.521 261.378 289.539C261.378 290.558 260.586 291.35 259.567 291.35Z" fill="url(#paint13_linear)"/>
<path d="M261.831 294.971H242.593C241.575 294.971 240.783 294.179 240.783 293.16C240.783 292.142 241.575 291.35 242.593 291.35H261.831C262.849 291.35 263.641 292.142 263.641 293.16C263.641 294.179 262.849 294.971 261.831 294.971Z" fill="url(#paint14_linear)"/>
<path d="M293.855 175.359H279.823V287.954H293.855V175.359Z" fill="#9FA5AD"/>
<path d="M294.194 291.35H279.484C278.465 291.35 277.673 290.558 277.673 289.539C277.673 288.521 278.465 287.729 279.484 287.729H294.194C295.213 287.729 296.005 288.521 296.005 289.539C296.005 290.558 295.213 291.35 294.194 291.35Z" fill="#979EA7"/>
<path d="M296.458 294.971H277.22C276.202 294.971 275.41 294.179 275.41 293.16C275.41 292.142 276.202 291.35 277.22 291.35H296.458C297.476 291.35 298.268 292.142 298.268 293.16C298.268 294.179 297.476 294.971 296.458 294.971Z" fill="#979EA7"/>
<path d="M307.774 299.61V306.399C307.774 307.192 307.547 307.871 307.208 308.549C306.416 310.021 304.945 311.039 303.134 311.039H86.0922C84.2817 311.039 82.8106 310.021 82.0184 308.549C81.679 307.871 81.4526 307.192 81.4526 306.399V299.61C81.4526 297.12 83.4895 294.97 86.0922 294.97H303.134C305.624 294.97 307.774 297.007 307.774 299.61Z" fill="#5E7086"/>
<path opacity="0.45" d="M307.208 308.436C306.416 309.907 304.945 310.927 303.134 310.927H86.0922C84.2817 310.927 82.8106 309.907 82.0184 308.436C82.8106 306.965 84.2817 305.948 86.0922 305.948H303.134C304.945 306.061 306.416 307.078 307.208 308.436Z" fill="url(#paint15_linear)"/>
<g opacity="0.45">
<path opacity="0.45" d="M95.3714 180.566C98.9925 181.698 103.745 183.056 109.403 184.64V175.361H95.3714V180.566Z" fill="url(#paint16_linear)"/>
<path opacity="0.45" d="M129.999 189.506C134.412 190.411 139.165 191.429 144.03 192.335V175.361H129.999V189.506Z" fill="url(#paint17_linear)"/>
<path opacity="0.45" d="M164.626 195.616C169.152 196.295 173.905 196.861 178.658 197.314V175.247H164.626V195.616Z" fill="#9599A0"/>
<path opacity="0.45" d="M210.682 199.464C215.322 199.577 219.961 199.69 224.714 199.577V175.247H210.682V199.464Z" fill="url(#paint18_linear)"/>
<path opacity="0.45" d="M245.196 198.898C249.835 198.559 254.588 198.219 259.228 197.653V175.361H245.196V198.898Z" fill="url(#paint19_linear)"/>
<path opacity="0.45" d="M279.823 175.361V194.711C284.463 193.919 289.215 192.9 293.855 191.769V175.361H279.823Z" fill="url(#paint20_linear)"/>
</g>
<path d="M302.681 163.93V175.246H86.5449V163.93H92.6555V164.496C92.6555 165.288 93.2213 165.854 94.0135 165.854H105.33C106.122 165.854 106.687 165.288 106.687 164.496V163.93H119.814V164.496C119.814 165.288 120.38 165.854 121.172 165.854H132.488C133.28 165.854 133.846 165.288 133.846 164.496V163.93H146.973V164.496C146.973 165.288 147.538 165.854 148.331 165.854H159.647C160.439 165.854 161.004 165.288 161.004 164.496V163.93H174.018V164.496C174.018 165.288 174.584 165.854 175.376 165.854H186.692C187.484 165.854 188.05 165.288 188.05 164.496V163.93H201.063V164.496C201.063 165.288 201.629 165.854 202.421 165.854H213.737C214.529 165.854 215.095 165.288 215.095 164.496V163.93H228.109V164.496C228.109 165.288 228.675 165.854 229.467 165.854H240.783C241.575 165.854 242.141 165.288 242.141 164.496V163.93H255.154V164.496C255.154 165.288 255.72 165.854 256.512 165.854H267.828C268.62 165.854 269.186 165.288 269.186 164.496V163.93H282.199V164.496C282.199 165.288 282.765 165.854 283.557 165.854H294.873C295.666 165.854 296.231 165.288 296.231 164.496V163.93H302.681Z" fill="#9FA5AD"/>
<path d="M303 144.312V164.728H296.878V165.194C296.878 165.846 296.311 166.312 295.517 166.312H284.179C283.385 166.312 282.818 165.846 282.818 165.194V164.728H269.778V165.194C269.778 165.846 269.212 166.312 268.417 166.312H257.079C256.285 166.312 255.719 165.846 255.719 165.194V164.728H242.679V165.194C242.679 165.846 242.112 166.312 241.318 166.312H229.98C229.186 166.312 228.619 165.846 228.619 165.194V164.728H215.58V165.194C215.58 165.846 215.013 166.312 214.219 166.312H202.881C202.087 166.312 201.52 165.846 201.52 165.194V164.728H188.48V165.194C188.48 165.846 187.914 166.312 187.119 166.312H175.781C174.987 166.312 174.42 165.846 174.42 165.194V164.728H161.381V165.194C161.381 165.846 160.814 166.312 160.021 166.312H148.682C147.888 166.312 147.321 165.846 147.321 165.194V164.728H134.282V165.194C134.282 165.846 133.715 166.312 132.922 166.312H121.583C120.79 166.312 120.222 165.846 120.222 165.194V164.728H107.182V165.194C107.182 165.846 106.615 166.312 105.822 166.312H94.4835C93.6897 166.312 93.1228 165.846 93.1228 165.194V164.728H87V144.312H303Z" fill="#6C7C90"/>
<path d="M308 139.261H81V148.88H308V139.261Z" fill="#979EA7"/>
<path d="M301.437 129.53H87.4501V139.149H301.437V129.53Z" fill="#5E7086"/>
<path d="M229.58 96.2607H159.42V129.53H229.58V96.2607Z" fill="#979EA7"/>
<path d="M234.559 92.8657H154.328V98.7501H234.559V92.8657Z" fill="#5E7086"/>
<path fill-rule="evenodd" clip-rule="evenodd" d="M38 267.722L40 276.722C43 286.722 47 306.722 52 303.722C57 299.722 62 273.722 66 268.722C71 263.722 76 280.722 81 293.722C85 306.722 90 316.722 95 312.722C100 309.722 104 293.722 109 286.722C114 280.722 119 283.722 123 281.722C128 280.722 133 273.722 138 270.722C142 267.722 147 267.722 152 267.722C157 267.722 161 267.722 166 272.722C171 276.722 175 286.722 180 285.722C185 283.722 190 270.722 194 272.722C199 273.722 204 289.722 209 301.722C213 312.722 218 319.722 223 311.722C228 303.722 232 280.722 237 268.722C242 257.722 247 257.722 251 258.722C256 260.722 261 263.722 266 275.722C270 286.722 275 306.722 280 309.722C284 312.722 289 299.722 294 293.722C299 286.722 303 286.722 308 291.722C313 296.722 318 306.722 322 299.722C327 293.722 332 270.722 337 270.722C341 270.722 346 293.722 351 307.722C356 322.722 360 329.722 363 332.722L365 335.722V345.722H363C360 345.722 356 345.722 351 345.722C346 345.722 341 345.722 337 345.722C332 345.722 327 345.722 322 345.722C318 345.722 313 345.722 308 345.722C303 345.722 299 345.722 294 345.722C289 345.722 284 345.722 280 345.722C275 345.722 270 345.722 266 345.722C261 345.722 256 345.722 251 345.722C247 345.722 242 345.722 237 345.722C232 345.722 228 345.722 223 345.722C218 345.722 213 345.722 209 345.722C204 345.722 199 345.722 194 345.722C190 345.722 185 345.722 180 345.722C175 345.722 171 345.722 166 345.722C161 345.722 157 345.722 152 345.722C147 345.722 142 345.722 138 345.722C133 345.722 128 345.722 123 345.722C119 345.722 114 345.722 109 345.722C104 345.722 100 345.722 95 345.722C90 345.722 85 345.722 81 345.722C76 345.722 71 345.722 66 345.722C62 345.722 57 345.722 52 345.722C47 345.722 43 345.722 40 345.722H38V267.722Z" fill="#FEFCBF"/>
<path fill-rule="evenodd" clip-rule="evenodd" d="M23 285.722L25 294.722C28 304.722 32 324.722 37 321.722C42 317.722 47 291.722 51 286.722C56 281.722 61 298.722 66 311.722C70 324.722 75 334.722 80 330.722C85 327.722 89 311.722 94 304.722C99 298.722 104 301.722 108 299.722C113 298.722 118 291.722 123 288.722C127 285.722 132 285.722 137 285.722C142 285.722 146 285.722 151 290.722C156 294.722 160 304.722 165 303.722C170 301.722 175 288.722 179 290.722C184 291.722 189 307.722 194 319.722C198 330.722 203 337.722 208 329.722C213 321.722 217 298.722 222 286.722C227 275.722 232 275.722 236 276.722C241 278.722 246 281.722 251 293.722C255 304.722 260 324.722 265 327.722C269 330.722 274 317.722 279 311.722C284 304.722 288 304.722 293 309.722C298 314.722 303 324.722 307 317.722C312 311.722 317 288.722 322 288.722C326 288.722 331 311.722 336 325.722C341 340.722 345 347.722 348 350.722L350 353.722V363.722H348C345 363.722 341 363.722 336 363.722C331 363.722 326 363.722 322 363.722C317 363.722 312 363.722 307 363.722C303 363.722 298 363.722 293 363.722C288 363.722 284 363.722 279 363.722C274 363.722 269 363.722 265 363.722C260 363.722 255 363.722 251 363.722C246 363.722 241 363.722 236 363.722C232 363.722 227 363.722 222 363.722C217 363.722 213 363.722 208 363.722C203 363.722 198 363.722 194 363.722C189 363.722 184 363.722 179 363.722C175 363.722 170 363.722 165 363.722C160 363.722 156 363.722 151 363.722C146 363.722 142 363.722 137 363.722C132 363.722 127 363.722 123 363.722C118 363.722 113 363.722 108 363.722C104 363.722 99 363.722 94 363.722C89 363.722 85 363.722 80 363.722C75 363.722 70 363.722 66 363.722C61 363.722 56 363.722 51 363.722C47 363.722 42 363.722 37 363.722C32 363.722 28 363.722 25 363.722H23V285.722Z" fill="#FAF089"/>
</g>
<defs>
<linearGradient id="paint0_linear" x1="58.767" y1="231.689" x2="74.81" y2="274.583" gradientUnits="userSpaceOnUse">
<stop offset="2.7e-07" stop-color="white"/>
<stop offset="1" stop-color="white" stop-opacity="0"/>
</linearGradient>
<linearGradient id="paint1_linear" x1="42.1887" y1="257.275" x2="58.2319" y2="300.169" gradientUnits="userSpaceOnUse">
<stop offset="2.7e-07" stop-color="white"/>
<stop offset="1" stop-color="white" stop-opacity="0"/>
</linearGradient>
<linearGradient id="paint2_linear" x1="58.6539" y1="257.275" x2="74.6971" y2="300.169" gradientUnits="userSpaceOnUse">
<stop offset="2.7e-07" stop-color="white"/>
<stop offset="1" stop-color="white" stop-opacity="0"/>
</linearGradient>
<linearGradient id="paint3_linear" x1="75.1191" y1="257.275" x2="91.1624" y2="300.169" gradientUnits="userSpaceOnUse">
<stop offset="2.7e-07" stop-color="white"/>
<stop offset="1" stop-color="white" stop-opacity="0"/>
</linearGradient>
<linearGradient id="paint4_linear" x1="91.5844" y1="257.275" x2="107.628" y2="300.169" gradientUnits="userSpaceOnUse">
<stop offset="2.7e-07" stop-color="white"/>
<stop offset="1" stop-color="white" stop-opacity="0"/>
</linearGradient>
<linearGradient id="paint5_linear" x1="122.71" y1="198.476" x2="138.753" y2="241.37" gradientUnits="userSpaceOnUse">
<stop offset="2.7e-07" stop-color="white"/>
<stop offset="1" stop-color="white" stop-opacity="0"/>
</linearGradient>
<linearGradient id="paint6_linear" x1="93.157" y1="222.43" x2="109.2" y2="265.325" gradientUnits="userSpaceOnUse">
<stop offset="2.7e-07" stop-color="white"/>
<stop offset="1" stop-color="white" stop-opacity="0"/>
</linearGradient>
<linearGradient id="paint7_linear" x1="123.048" y1="227.498" x2="139.091" y2="270.391" gradientUnits="userSpaceOnUse">
<stop offset="2.7e-07" stop-color="white"/>
<stop offset="1" stop-color="white" stop-opacity="0"/>
</linearGradient>
<linearGradient id="paint8_linear" x1="58.767" y1="217.125" x2="74.81" y2="260.019" gradientUnits="userSpaceOnUse">
<stop offset="2.7e-07" stop-color="white"/>
<stop offset="1" stop-color="white" stop-opacity="0"/>
</linearGradient>
<linearGradient id="paint9_linear" x1="134.572" y1="299.9" x2="139.516" y2="278.975" gradientUnits="userSpaceOnUse">
<stop stop-color="#D8AE6B"/>
<stop offset="1" stop-color="#FFF3C2"/>
</linearGradient>
<linearGradient id="paint10_linear" x1="133.709" y1="302.606" x2="140.087" y2="284.403" gradientUnits="userSpaceOnUse">
<stop stop-color="#D8AE6B"/>
<stop offset="1" stop-color="#FFF3C2"/>
</linearGradient>
<linearGradient id="paint11_linear" x1="169.16" y1="299.9" x2="174.105" y2="278.975" gradientUnits="userSpaceOnUse">
<stop stop-color="#D8AE6B"/>
<stop offset="1" stop-color="#FFF3C2"/>
</linearGradient>
<linearGradient id="paint12_linear" x1="168.298" y1="302.606" x2="174.676" y2="284.403" gradientUnits="userSpaceOnUse">
<stop stop-color="#D8AE6B"/>
<stop offset="1" stop-color="#FFF3C2"/>
</linearGradient>
<linearGradient id="paint13_linear" x1="249.804" y1="299.9" x2="254.749" y2="278.975" gradientUnits="userSpaceOnUse">
<stop stop-color="#D8AE6B"/>
<stop offset="1" stop-color="#FFF3C2"/>
</linearGradient>
<linearGradient id="paint14_linear" x1="248.942" y1="302.606" x2="255.32" y2="284.403" gradientUnits="userSpaceOnUse">
<stop stop-color="#D8AE6B"/>
<stop offset="1" stop-color="#FFF3C2"/>
</linearGradient>
<linearGradient id="paint15_linear" x1="180.686" y1="359.385" x2="203.904" y2="274.68" gradientUnits="userSpaceOnUse">
<stop offset="2.7e-07"/>
<stop offset="1" stop-opacity="0"/>
</linearGradient>
<linearGradient id="paint16_linear" x1="96.2112" y1="117.562" x2="118.139" y2="330.396" gradientUnits="userSpaceOnUse">
<stop offset="2.7e-07"/>
<stop offset="1" stop-opacity="0"/>
</linearGradient>
<linearGradient id="paint17_linear" x1="129.979" y1="114.083" x2="151.907" y2="326.919" gradientUnits="userSpaceOnUse">
<stop offset="2.7e-07"/>
<stop offset="1" stop-opacity="0"/>
</linearGradient>
<linearGradient id="paint18_linear" x1="209.265" y1="105.914" x2="231.193" y2="318.75" gradientUnits="userSpaceOnUse">
<stop offset="2.7e-07"/>
<stop offset="1" stop-opacity="0"/>
</linearGradient>
<linearGradient id="paint19_linear" x1="243.523" y1="102.384" x2="265.451" y2="315.221" gradientUnits="userSpaceOnUse">
<stop offset="2.7e-07"/>
<stop offset="1" stop-opacity="0"/>
</linearGradient>
<linearGradient id="paint20_linear" x1="277.963" y1="98.8355" x2="299.892" y2="311.672" gradientUnits="userSpaceOnUse">
<stop offset="2.7e-07"/>
<stop offset="1" stop-opacity="0"/>
</linearGradient>
</defs>
</svg>
