<svg width="362" height="345" viewBox="0 0 362 345" fill="none" xmlns="http://www.w3.org/2000/svg">
<path d="M196.121 137.801H195.477V149.737H196.121V137.801Z" fill="#2C2F35"/>
<path d="M196.489 136.989C196.489 137.314 196.213 137.558 195.845 137.558C195.477 137.558 195.201 137.314 195.201 136.989C195.201 136.664 195.477 136.421 195.845 136.421C196.213 136.421 196.489 136.664 196.489 136.989Z" fill="#2C2F35"/>
<path d="M203.48 120.02H202.836V131.955H203.48V120.02Z" fill="#2C2F35"/>
<path d="M203.756 119.208C203.756 119.533 203.48 119.776 203.112 119.776C202.744 119.776 202.468 119.533 202.468 119.208C202.468 118.883 202.744 118.64 203.112 118.64C203.48 118.64 203.756 118.883 203.756 119.208Z" fill="#2C2F35"/>
<path d="M212.679 76.6628H212.035V88.5979H212.679V76.6628Z" fill="#2C2F35"/>
<path d="M212.311 76.1755C212.616 76.1755 212.863 75.9574 212.863 75.6884C212.863 75.4193 212.616 75.2012 212.311 75.2012C212.006 75.2012 211.759 75.4193 211.759 75.6884C211.759 75.9574 212.006 76.1755 212.311 76.1755Z" fill="#2C2F35"/>
<path d="M238.067 76.3376H237.423V88.2732H238.067V76.3376Z" fill="#2C2F35"/>
<path d="M247.082 120.02H246.438V131.955H247.082V120.02Z" fill="#2C2F35"/>
<path d="M254.165 137.801H253.521V149.737H254.165V137.801Z" fill="#2C2F35"/>
<path d="M254.073 148.6H195.477V194.149H254.073V148.6Z" fill="#979EA7"/>
<path d="M247.45 126.109H202.836V132.199H247.45V126.109Z" fill="#979EA7"/>
<path d="M238.159 82.3462H212.035V93.7131H238.159V82.3462Z" fill="#979EA7"/>
<path d="M252.141 293.043H198.053L197.961 194.068L252.234 193.906L252.141 293.043Z" fill="#979EA7"/>
<path d="M242.667 154.527H207.159V185.867H242.667V154.527Z" fill="#142D4C"/>
<path d="M224.821 184.487C233.763 184.487 241.011 178.089 241.011 170.197C241.011 162.305 233.763 155.907 224.821 155.907C215.88 155.907 208.631 162.305 208.631 170.197C208.631 178.089 215.88 184.487 224.821 184.487Z" fill="#ECECEC"/>
<path d="M204.952 230.524C203.94 230.524 203.204 229.793 203.204 228.981V200.482C203.204 199.589 204.032 198.939 204.952 198.939C205.964 198.939 206.699 199.67 206.699 200.482V229.062C206.699 229.874 205.964 230.524 204.952 230.524Z" fill="#142D4C"/>
<path d="M211.667 230.524C210.655 230.524 209.919 229.793 209.919 228.981V200.482C209.919 199.589 210.747 198.939 211.667 198.939C212.679 198.939 213.415 199.67 213.415 200.482V229.062C213.415 229.874 212.679 230.524 211.667 230.524Z" fill="#142D4C"/>
<path d="M218.382 230.524C217.37 230.524 216.634 229.793 216.634 228.981V200.482C216.634 199.589 217.462 198.939 218.382 198.939C219.394 198.939 220.13 199.67 220.13 200.482V229.062C220.222 229.874 219.394 230.524 218.382 230.524Z" fill="#142D4C"/>
<path d="M225.189 230.524C224.177 230.524 223.441 229.793 223.441 228.981V200.482C223.441 199.589 224.269 198.939 225.189 198.939C226.201 198.939 226.937 199.67 226.937 200.482V229.062C226.937 229.874 226.109 230.524 225.189 230.524Z" fill="#142D4C"/>
<path d="M231.904 230.524C230.892 230.524 230.156 229.793 230.156 228.981V200.482C230.156 199.589 230.984 198.939 231.904 198.939C232.916 198.939 233.652 199.67 233.652 200.482V229.062C233.652 229.874 232.824 230.524 231.904 230.524Z" fill="#142D4C"/>
<path d="M238.619 230.524C237.607 230.524 236.871 229.793 236.871 228.981V200.482C236.871 199.589 237.699 198.939 238.619 198.939C239.631 198.939 240.367 199.67 240.367 200.482V229.062C240.367 229.874 239.539 230.524 238.619 230.524Z" fill="#142D4C"/>
<path d="M245.334 230.524C244.322 230.524 243.587 229.793 243.587 228.981V200.482C243.587 199.589 244.414 198.939 245.334 198.939C246.346 198.939 247.082 199.67 247.082 200.482V229.062C247.082 229.874 246.254 230.524 245.334 230.524Z" fill="#142D4C"/>
<path d="M204.952 272.663C203.94 272.663 203.204 271.932 203.204 271.12V242.541C203.204 241.648 204.032 240.998 204.952 240.998C205.964 240.998 206.699 241.729 206.699 242.541V271.12C206.699 272.013 205.964 272.663 204.952 272.663Z" fill="#142D4C"/>
<path d="M211.667 272.663C210.655 272.663 209.919 271.932 209.919 271.12V242.541C209.919 241.648 210.747 240.998 211.667 240.998C212.679 240.998 213.415 241.729 213.415 242.541V271.12C213.415 272.013 212.679 272.663 211.667 272.663Z" fill="#142D4C"/>
<path d="M218.382 272.663C217.37 272.663 216.634 271.932 216.634 271.12V242.541C216.634 241.648 217.462 240.998 218.382 240.998C219.394 240.998 220.13 241.729 220.13 242.541V271.12C220.222 272.013 219.394 272.663 218.382 272.663Z" fill="#142D4C"/>
<path d="M225.189 272.663C224.177 272.663 223.441 271.932 223.441 271.12V242.541C223.441 241.648 224.269 240.998 225.189 240.998C226.201 240.998 226.937 241.729 226.937 242.541V271.12C226.937 272.013 226.109 272.663 225.189 272.663Z" fill="#142D4C"/>
<path d="M231.904 272.663C230.892 272.663 230.156 271.932 230.156 271.12V242.541C230.156 241.648 230.984 240.998 231.904 240.998C232.916 240.998 233.652 241.729 233.652 242.541V271.12C233.652 272.013 232.824 272.663 231.904 272.663Z" fill="#142D4C"/>
<path d="M238.619 272.663C237.607 272.663 236.871 271.932 236.871 271.12V242.541C236.871 241.648 237.699 240.998 238.619 240.998C239.631 240.998 240.367 241.729 240.367 242.541V271.12C240.367 272.013 239.539 272.663 238.619 272.663Z" fill="#142D4C"/>
<path d="M245.334 272.663C244.322 272.663 243.587 271.932 243.587 271.12V242.541C243.587 241.648 244.414 240.998 245.334 240.998C246.346 240.998 247.082 241.729 247.082 242.541V271.12C247.082 272.013 246.254 272.663 245.334 272.663Z" fill="#142D4C"/>
<path d="M247.358 132.199H202.744C202.744 132.199 201.732 146.002 195.477 148.6C209.367 148.6 254.073 148.6 254.073 148.6C254.073 148.6 247.082 142.998 247.358 132.199Z" fill="#385170"/>
<path d="M247.358 126.109C247.358 126.109 239.447 117.909 238.067 93.7129C218.566 93.9565 211.943 93.7129 211.943 93.7129C211.943 93.7129 210.287 120.263 202.652 126.109C218.382 126.272 247.358 126.109 247.358 126.109Z" fill="#142D4C"/>
<path d="M215.254 92.6575C214.518 92.6575 213.967 92.1703 213.967 91.5208V86.1621C213.967 85.5125 214.518 85.0254 215.254 85.0254C215.99 85.0254 216.542 85.5125 216.542 86.1621V91.5208C216.542 92.1703 215.99 92.6575 215.254 92.6575Z" fill="#142D4C"/>
<path d="M220.958 92.6575C220.222 92.6575 219.67 92.1703 219.67 91.5208V86.1621C219.67 85.5125 220.222 85.0254 220.958 85.0254C221.693 85.0254 222.245 85.5125 222.245 86.1621V91.5208C222.245 92.1703 221.601 92.6575 220.958 92.6575Z" fill="#142D4C"/>
<path d="M228.133 92.6575C227.397 92.6575 226.845 92.1703 226.845 91.5208V86.1621C226.845 85.5125 227.397 85.0254 228.133 85.0254C228.869 85.0254 229.421 85.5125 229.421 86.1621V91.5208C229.421 92.1703 228.869 92.6575 228.133 92.6575Z" fill="#142D4C"/>
<path d="M235.4 92.6575C234.664 92.6575 234.112 92.1703 234.112 91.5208V86.1621C234.112 85.5125 234.664 85.0254 235.4 85.0254C236.136 85.0254 236.688 85.5125 236.688 86.1621V91.5208C236.688 92.1703 236.044 92.6575 235.4 92.6575Z" fill="#142D4C"/>
<path d="M238.067 82.3462C238.067 82.3462 225.557 45.4034 224.545 15.8491C222.613 34.1175 217.094 77.5558 212.035 82.3462C224.085 82.3462 238.067 82.3462 238.067 82.3462Z" fill="#142D4C"/>
<path d="M238.251 75.3634C238.251 75.6883 237.975 75.8508 237.699 75.8508C237.331 75.8508 237.147 75.6071 237.147 75.3634C237.147 75.0384 237.423 74.876 237.699 74.876C238.067 74.876 238.251 75.1197 238.251 75.3634Z" fill="#2C2F35"/>
<path d="M247.358 119.208C247.358 119.533 247.082 119.776 246.714 119.776C246.346 119.776 246.07 119.533 246.07 119.208C246.07 118.883 246.346 118.64 246.714 118.64C247.082 118.64 247.358 118.883 247.358 119.208Z" fill="#2C2F35"/>
<path d="M254.441 136.989C254.441 137.314 254.165 137.558 253.797 137.558C253.429 137.558 253.153 137.314 253.153 136.989C253.153 136.664 253.429 136.421 253.797 136.421C254.165 136.421 254.441 136.664 254.441 136.989Z" fill="#2C2F35"/>
<path d="M228.961 160.698C228.501 161.672 228.041 162.728 227.673 163.702L226.385 166.706C225.557 168.736 224.637 170.684 223.809 172.714L223.257 172.146C225.649 171.659 228.041 171.171 230.524 170.765L234.204 170.116C235.4 169.954 236.595 169.71 237.883 169.548C236.687 169.872 235.492 170.197 234.296 170.522L230.708 171.334C228.317 171.902 225.925 172.389 223.533 172.876L222.705 173.039L223.073 172.308C223.993 170.359 224.913 168.33 225.833 166.381L227.305 163.458C227.857 162.565 228.317 161.591 228.961 160.698Z" fill="#2C2F35"/>
<path d="M252.141 193.906H197.869V196.422H252.141V193.906Z" fill="#385170"/>
<path d="M238.803 101.264L211.299 101.183L212.035 93.7129H238.159L238.803 101.264Z" fill="#385170"/>
<path opacity="0.52" d="M224.453 16.4172L226.109 292.961L198.053 293.042L197.869 194.068H195.477L195.661 148.519C195.661 148.519 202.928 146.245 202.928 126.109C209.643 119.857 212.679 99.8839 212.127 82.5897C216.91 77.0686 223.809 29.5705 224.453 16.4172Z" fill="#385170"/>
<mask id="mask0" mask-type="alpha" maskUnits="userSpaceOnUse" x="0" y="0" width="362" height="345">
<path d="M181 344.212C280.964 344.212 362 267.228 362 172.262C362 77.2971 280.964 0.3125 181 0.3125C81.0365 0.3125 0 77.2971 0 172.262C0 267.228 81.0365 344.212 181 344.212Z" fill="#C4C4C4"/>
</mask>
<g mask="url(#mask0)">
<path d="M212.391 237.117L139.188 224.923L212.19 212.634L211.789 210.348L138.988 222.637L201.059 188.532L199.856 186.532L137.584 220.731L183.812 168.432L181.907 166.908L135.779 219.017L160.347 155.095L158.041 154.333L133.473 218.35V146.14H131.066V218.35L105.596 151.951L103.289 152.714L128.86 219.398L81.1283 165.384L79.2231 166.908L126.854 220.731L61.5743 184.817L60.371 186.818L125.451 222.637L54.956 210.824L54.5549 213.11L125.15 224.923L52.2485 237.117L52.6496 239.403L125.751 227.114L61.1732 262.552L62.3765 264.552L126.754 229.305L78.5211 283.891L80.3261 285.415L128.86 230.544L104.192 294.846L106.498 295.608L131.066 231.496V299.8H133.473V231.401L158.743 297.323L161.049 296.561L135.879 230.925L181.907 283.034L183.812 281.509L137.684 229.305L201.36 264.362L202.564 262.361L138.587 227.209L211.889 239.403L212.391 237.117Z" fill="#ECECEC"/>
<path d="M137.175 147.748C140.357 144.973 140.569 140.273 137.648 137.249C134.727 134.227 129.779 134.026 126.597 136.8C123.414 139.575 123.202 144.276 126.123 147.299C129.044 150.322 133.992 150.523 137.175 147.748Z" fill="#142D4C"/>
<path d="M169.439 149.729C170.435 145.735 167.835 141.732 163.631 140.786C159.427 139.84 155.213 142.31 154.217 146.303C153.221 150.297 155.821 154.301 160.025 155.247C164.229 156.192 168.443 153.722 169.439 149.729Z" fill="#142D4C"/>
<path d="M193.024 167.568C196.079 164.665 196.079 159.961 193.024 157.059C189.969 154.158 185.017 154.158 181.963 157.059C178.908 159.961 178.908 164.665 181.963 167.568C185.017 170.47 189.969 170.47 193.024 167.568Z" fill="#142D4C"/>
<path d="M206.775 191.486C211.095 191.486 214.597 188.159 214.597 184.055C214.597 179.951 211.095 176.625 206.775 176.625C202.455 176.625 198.954 179.951 198.954 184.055C198.954 188.159 202.455 191.486 206.775 191.486Z" fill="#142D4C"/>
<path d="M217.405 217.588C221.724 217.588 225.226 214.261 225.226 210.157C225.226 206.053 221.724 202.727 217.405 202.727C213.086 202.727 209.583 206.053 209.583 210.157C209.583 214.261 213.086 217.588 217.405 217.588Z" fill="#142D4C"/>
<path d="M224.976 241.031C225.666 236.98 222.769 233.164 218.505 232.508C214.24 231.852 210.224 234.605 209.534 238.656C208.843 242.708 211.741 246.523 216.005 247.179C220.269 247.835 224.287 245.083 224.976 241.031Z" fill="#142D4C"/>
<path d="M207.577 273.221C211.897 273.221 215.399 269.895 215.399 265.791C215.399 261.687 211.897 258.36 207.577 258.36C203.257 258.36 199.756 261.687 199.756 265.791C199.756 269.895 203.257 273.221 207.577 273.221Z" fill="#142D4C"/>
<path d="M195.809 289.057C196.798 285.063 194.191 281.063 189.987 280.122C185.781 279.183 181.571 281.659 180.582 285.654C179.592 289.649 182.199 293.649 186.404 294.588C190.609 295.528 194.819 293.051 195.809 289.057Z" fill="#142D4C"/>
<path d="M168.07 307.078C171.125 304.176 171.125 299.471 168.07 296.569C165.016 293.668 160.063 293.668 157.009 296.569C153.954 299.471 153.954 304.176 157.009 307.078C160.063 309.98 165.016 309.98 168.07 307.078Z" fill="#142D4C"/>
<path d="M132.069 314.375C136.389 314.375 139.89 311.049 139.89 306.945C139.89 302.841 136.389 299.514 132.069 299.514C127.749 299.514 124.247 302.841 124.247 306.945C124.247 311.049 127.749 314.375 132.069 314.375Z" fill="#142D4C"/>
<path d="M107.902 307.234C110.956 304.332 110.956 299.627 107.902 296.726C104.848 293.824 99.895 293.824 96.8406 296.726C93.786 299.627 93.786 304.332 96.8406 307.234C99.895 310.136 104.848 310.136 107.902 307.234Z" fill="#142D4C"/>
<path d="M83.9978 289.986C84.9871 285.991 82.3803 281.991 78.1755 281.051C73.9706 280.112 69.76 282.588 68.7708 286.583C67.7815 290.577 70.3883 294.577 74.5932 295.517C78.798 296.457 83.0086 293.98 83.9978 289.986Z" fill="#142D4C"/>
<path d="M57.1621 273.984C61.4819 273.984 64.9837 270.657 64.9837 266.553C64.9837 262.449 61.4819 259.123 57.1621 259.123C52.8423 259.123 49.3405 262.449 49.3405 266.553C49.3405 270.657 52.8423 273.984 57.1621 273.984Z" fill="#142D4C"/>
<path d="M52.0214 245.965C55.3787 243.382 55.897 238.704 53.179 235.514C50.461 232.325 45.536 231.833 42.1787 234.415C38.8213 236.997 38.3031 241.676 41.0211 244.866C43.7391 248.055 48.6641 248.546 52.0214 245.965Z" fill="#142D4C"/>
<path d="M52.0615 216.707C55.4188 214.125 55.9371 209.446 53.2191 206.256C50.5011 203.067 45.5762 202.574 42.2188 205.157C38.8615 207.738 38.3432 212.418 41.0612 215.607C43.7792 218.797 48.7042 219.289 52.0615 216.707Z" fill="#142D4C"/>
<path d="M65.7442 184.179C66.6509 180.167 63.9622 176.216 59.7387 175.355C55.5153 174.494 51.3565 177.048 50.4497 181.06C49.543 185.073 52.2318 189.023 56.4552 189.884C60.6786 190.746 64.8375 188.191 65.7442 184.179Z" fill="#142D4C"/>
<path d="M84.3532 163.353C85.349 159.359 82.7485 155.355 78.545 154.409C74.3414 153.463 70.1265 155.934 69.1309 159.927C68.1351 163.92 70.7356 167.924 74.9392 168.87C79.1427 169.816 83.3576 167.346 84.3532 163.353Z" fill="#142D4C"/>
<path d="M102.888 155.095C107.208 155.095 110.71 151.769 110.71 147.665C110.71 143.561 107.208 140.234 102.888 140.234C98.5688 140.234 95.0669 143.561 95.0669 147.665C95.0669 151.769 98.5688 155.095 102.888 155.095Z" fill="#142D4C"/>
<path d="M131.868 231.21C128.459 231.21 125.651 228.543 125.651 225.304C125.651 222.065 128.459 219.398 131.868 219.398C135.278 219.398 138.085 222.065 138.085 225.304C138.186 228.543 135.378 231.21 131.868 231.21ZM131.868 221.684C129.762 221.684 128.058 223.303 128.058 225.304C128.058 227.305 129.762 228.924 131.868 228.924C133.974 228.924 135.679 227.305 135.679 225.304C135.679 223.303 133.974 221.684 131.868 221.684Z" fill="#313338"/>
<path d="M208.58 266.172C215.8 254.074 219.911 240.07 219.911 225.209C219.911 220.16 219.41 215.111 218.508 210.252C217.505 205.108 216.001 200.059 214.095 195.296H214.196H214.095C206.775 177.196 192.937 162.145 175.388 152.618V152.428L175.188 152.523C171.077 150.332 166.865 148.427 162.453 146.903C152.926 143.568 142.698 141.758 131.969 141.758C121.439 141.758 111.311 143.568 101.885 146.807L101.585 146.521V146.903C91.9583 150.237 83.2342 155.19 75.5129 161.287L75.212 161.192L75.3123 161.382C56.1594 176.72 44.0259 199.678 44.0259 225.209C44.0259 230.353 44.5273 235.307 45.4298 240.165L45.1289 240.451H45.4298C46.232 244.642 47.335 248.644 48.8392 252.549C50.5439 257.312 52.75 261.885 55.3572 266.172L54.8558 266.934L55.7583 266.744C71.0004 291.702 99.3788 308.564 131.868 308.564C137.785 308.564 143.5 307.992 149.116 306.945L149.417 307.23V306.849C158.943 305.039 167.868 301.705 175.99 297.228V297.132C180.402 294.656 184.614 291.893 188.525 288.749L188.926 288.94L188.826 288.559C196.647 282.271 203.265 274.65 208.38 266.172H208.68H208.58ZM187.121 287.225L174.887 282.367C178.397 279.985 181.706 277.222 184.815 274.269L187.321 287.035C187.221 287.13 187.221 287.225 187.121 287.225ZM57.5633 265.219L64.4824 253.883C66.0868 257.312 67.8918 260.551 70.0979 263.6L57.8641 265.6C57.6636 265.41 57.5633 265.315 57.5633 265.219ZM47.8364 239.498L58.1649 228.448C58.3655 232.449 58.8669 236.45 59.7694 240.26L47.8364 239.498ZM77.1173 163.002L90.5544 167.098C87.145 169.289 83.9361 171.766 81.0281 174.434L77.1173 163.002ZM216.301 238.546C209.884 233.211 206.976 230.925 205.772 229.972C205.772 229.877 205.772 229.877 205.772 229.781C208.079 229.019 213.594 227.209 217.505 225.971C217.405 230.162 217.003 234.354 216.301 238.546ZM212.391 252.74C207.176 247.31 204.87 244.928 203.767 243.88C205.973 243.118 211.789 241.213 216.101 239.784C215.198 244.261 213.995 248.548 212.391 252.74ZM89.7522 282.938C92.3594 284.653 95.0669 286.177 97.8746 287.606L89.5516 294.656L89.7522 282.938ZM60.4713 225.304C60.4713 187.866 92.56 157.381 131.969 157.381C171.377 157.381 203.466 187.866 203.466 225.304C203.466 262.742 171.377 293.227 131.969 293.227C92.56 293.227 60.4713 262.742 60.4713 225.304ZM123.244 295.037L116.325 303.801L113.518 293.322C116.626 294.084 119.935 294.656 123.244 295.037ZM111.412 292.75L102.587 301.134L99.7799 288.464C103.49 290.274 107.401 291.607 111.412 292.75ZM65.8863 193.677L59.4685 182.817L72.7051 183.198C70.1982 186.437 67.8918 189.961 65.8863 193.677ZM61.8752 202.917L53.9533 194.439L65.2846 194.915C63.981 197.487 62.878 200.155 61.8752 202.917ZM58.566 216.54L48.9395 209.871L61.073 205.108C59.9699 208.824 59.0674 212.634 58.566 216.54ZM124.749 155.381L131.868 144.521L138.085 155.381C136.08 155.19 133.974 155.095 131.868 155.095C129.562 155 127.155 155.19 124.749 155.381ZM205.572 231.306C207.778 233.02 211.789 236.355 214.998 239.022C208.48 241.118 205.171 242.261 203.566 242.832C204.569 239.022 205.271 235.211 205.572 231.306ZM202.965 244.738C204.469 246.167 208.079 249.882 210.887 252.835H199.956C201.16 250.263 202.162 247.596 202.965 244.738ZM205.772 228.448C205.772 227.4 205.873 226.352 205.873 225.304C205.873 223.589 205.772 221.875 205.672 220.16L216.201 225.114C210.586 226.828 207.477 227.781 205.772 228.448ZM202.965 205.68L216.001 210.634L205.572 217.874C205.07 213.682 204.168 209.681 202.965 205.68ZM199.054 195.772L210.987 196.249L202.263 203.489C201.36 200.917 200.257 198.345 199.054 195.772ZM192.436 184.913L205.672 185.008L198.252 194.153C196.547 190.914 194.541 187.866 192.436 184.913ZM192.436 183.769L198.051 173.767C200.759 176.91 203.265 180.34 205.572 183.865L192.436 183.769ZM191.232 183.388C189.427 181.102 187.522 179.006 185.516 177.006L196.547 173.862L191.232 183.388ZM184.012 175.481C180.803 172.433 177.294 169.67 173.583 167.289L187.522 164.24L184.012 175.481ZM163.255 161.668L173.583 155L171.377 165.955C168.87 164.336 166.063 162.907 163.255 161.668ZM150.319 157.191L161.249 149.189L161.55 160.906C157.94 159.477 154.23 158.144 150.319 157.191ZM140.492 155.476L146.81 146.521L148.915 156.905C146.108 156.334 143.3 155.857 140.492 155.476ZM139.389 155L133.072 144.045C137.584 144.14 141.996 144.521 146.308 145.188L139.389 155ZM123.746 154.714L117.428 145.283C121.74 144.616 126.152 144.14 130.665 144.14L123.746 154.714ZM122.843 155.571C120.336 155.857 117.93 156.238 115.523 156.81L116.827 146.617L122.843 155.571ZM102.487 160.811L102.688 148.903L113.116 157.286C109.506 158.239 105.997 159.382 102.487 160.811ZM92.3594 165.955L90.4541 155.571L100.381 161.764C97.6741 163.002 94.9666 164.431 92.3594 165.955ZM74.2093 181.483L68.9949 172.719L79.8248 175.481C77.8192 177.387 75.914 179.387 74.2093 181.483ZM73.1062 182.055L59.8696 181.674C62.0757 178.339 64.5827 175.196 67.2901 172.243L73.1062 182.055ZM64.5827 193.677L53.4519 193.2C54.9561 189.866 56.6608 186.722 58.6663 183.579L64.5827 193.677ZM61.1732 203.87L48.2375 208.919C49.3406 204.06 50.8447 199.297 52.75 194.82L61.1732 203.87ZM57.8641 217.493L46.5328 221.779C46.7334 217.969 47.1345 214.254 47.8364 210.538L57.8641 217.493ZM58.3655 218.54C58.1649 220.731 58.0647 223.018 58.0647 225.304C58.0647 225.59 58.0647 225.971 58.0647 226.257L47.7361 222.637L58.3655 218.54ZM63.6802 252.168L51.5467 251.692L60.2708 242.261C61.073 245.69 62.2763 249.025 63.6802 252.168ZM77.4181 272.65L66.1871 275.603L71.0004 265.029C72.9057 267.696 75.1118 270.268 77.4181 272.65ZM88.3483 281.986L77.1173 287.225L79.1228 274.365C81.9306 277.127 85.0392 279.604 88.3483 281.986ZM88.5489 283.129L88.248 295.037C84.6381 292.941 81.1284 290.655 77.9195 288.178L88.5489 283.129ZM98.5766 288.464L101.284 301.038C97.273 299.609 93.4625 297.799 89.7522 295.894L98.5766 288.464ZM112.314 293.512L115.423 304.944C111.412 304.182 107.401 303.134 103.59 301.896L112.314 293.512ZM124.147 295.799L131.066 306.468C126.253 306.373 121.439 305.992 116.827 305.23L124.147 295.799ZM125.15 295.227C127.356 295.418 129.662 295.513 131.969 295.513C133.974 295.513 135.879 295.418 137.885 295.227L132.47 306.278L125.15 295.227ZM149.316 293.512L148.414 304.563L139.991 295.037C143.2 294.751 146.308 294.275 149.316 293.512ZM162.854 289.035L161.651 300.943L151.623 292.846C155.534 291.988 159.244 290.655 162.854 289.035ZM172.982 283.7L174.486 294.941L164.96 288.082C167.767 286.749 170.375 285.32 172.982 283.7ZM192.235 265.886L197.449 276.365L185.817 273.412C188.124 270.935 190.33 268.458 192.235 265.886ZM198.954 254.836L206.274 265.124L193.338 264.267C195.544 261.314 197.349 258.17 198.954 254.836ZM199.856 253.978H211.889C210.485 257.408 208.881 260.837 207.076 264.076L199.856 253.978ZM217.405 224.351L205.973 219.017L216.301 211.872C217.003 215.968 217.405 220.065 217.405 224.351ZM215.8 209.3L203.065 204.441L212.09 196.916C213.694 200.917 214.898 205.108 215.8 209.3ZM199.355 194.629L206.575 185.675C208.38 188.723 209.984 191.867 211.288 195.106L199.355 194.629ZM196.848 172.528L185.115 175.863L188.625 164.526C191.533 167.003 194.341 169.67 196.848 172.528ZM186.92 163.097L172.681 166.241L174.887 155.095C179.099 157.381 183.11 160.144 186.92 163.097ZM172.982 154.047L162.854 160.525L162.553 149.379C166.063 150.713 169.572 152.237 172.982 154.047ZM149.918 156.048L147.812 145.569C152.024 146.331 156.135 147.379 160.046 148.713L149.918 156.048ZM115.824 145.474L114.42 156.715L104.092 148.522C107.902 147.284 111.813 146.236 115.824 145.474ZM101.284 160.906L90.5544 154.238C94.0641 152.428 97.6741 150.808 101.484 149.379L101.284 160.906ZM89.1505 155L91.1561 166.05L78.3206 162.145C81.73 159.477 85.34 157.096 89.1505 155ZM76.1145 163.764L79.7245 174.243L68.0924 171.29C70.5993 168.623 73.3068 166.146 76.1145 163.764ZM46.4325 225.304C46.4325 224.637 46.4325 224.066 46.4325 223.399L57.463 227.305L47.5356 238.069C46.8336 233.878 46.4325 229.591 46.4325 225.304ZM48.037 240.737L59.3683 241.404L50.7444 250.644C49.6414 247.5 48.7389 244.166 48.037 240.737ZM51.5467 252.835L63.3793 253.311L56.8613 264.076C54.7555 260.456 52.9505 256.741 51.5467 252.835ZM69.7971 264.743L64.8835 275.508C62.4768 272.65 60.371 269.697 58.3655 266.553L69.7971 264.743ZM65.9865 276.841L78.0198 273.698L76.0142 286.654C72.4043 283.605 68.9949 280.366 65.9865 276.841ZM133.573 306.468L138.888 295.704L147.311 305.135C142.899 305.897 138.286 306.373 133.573 306.468ZM150.52 293.608L160.648 301.8C157.038 303.039 153.328 303.991 149.617 304.754L150.52 293.608ZM162.854 300.943L164.057 288.94L173.884 295.989C170.375 297.895 166.664 299.514 162.854 300.943ZM175.689 295.037L174.085 283.319L186.118 288.082C182.809 290.655 179.299 292.941 175.689 295.037ZM188.424 286.177L186.218 274.555L197.449 277.413C194.642 280.557 191.633 283.51 188.424 286.177ZM198.653 275.984L193.338 265.41L205.672 266.267C203.566 269.697 201.26 272.936 198.653 275.984Z" fill="#ECECEC"/>
<path opacity="0.52" d="M125.15 295.227C127.055 295.418 129.06 295.513 131.066 295.513V299.8H132.37V149.57H131.166V155C129.06 155 126.955 155.095 124.849 155.286L131.969 144.426L132.37 145.188V141.758C132.269 141.758 132.169 141.758 131.969 141.758C121.439 141.758 111.311 143.568 101.885 146.807L101.585 146.521V146.903C91.9583 150.237 83.2342 155.19 75.5129 161.287L75.212 161.192L75.3123 161.382C56.1594 176.72 44.0259 199.678 44.0259 225.209C44.0259 230.353 44.5273 235.307 45.4298 240.165L45.1289 240.451H45.4298C46.232 244.642 47.335 248.644 48.8392 252.549C50.5439 257.312 52.75 261.885 55.3572 266.172L54.8558 266.934L55.7583 266.744C71.0004 291.702 99.3788 308.564 131.868 308.564C131.969 308.564 132.069 308.564 132.269 308.564V305.992L125.15 295.227ZM131.066 293.227C123.345 293.131 115.824 291.893 108.805 289.607L131.066 231.591V293.227ZM70.5993 260.075L126.854 229.305L85.0392 276.556C79.3234 271.792 74.4098 266.267 70.5993 260.075ZM77.4181 272.65L66.1871 275.603L71.0004 265.029C72.9057 267.696 75.1117 270.268 77.4181 272.65ZM59.0674 213.872C58.8669 214.73 58.7666 215.587 58.566 216.54L48.9394 209.871L61.073 205.108C60.371 207.204 59.8696 209.395 59.4685 211.586L54.9561 210.824L54.555 213.11L59.0674 213.872ZM58.0647 226.257L47.7361 222.637L58.3655 218.54C58.1649 220.731 58.0647 223.018 58.0647 225.304C57.9644 225.59 58.0647 225.876 58.0647 226.257ZM61.3738 214.254L125.15 224.923L61.2735 235.592C60.7721 232.258 60.4713 228.734 60.4713 225.209C60.4713 221.494 60.7721 217.874 61.3738 214.254ZM85.34 173.767L126.854 220.731L70.9001 189.961C74.8109 183.865 79.7245 178.435 85.34 173.767ZM74.2093 181.483L68.9949 172.719L79.8248 175.481C77.8192 177.387 75.914 179.387 74.2093 181.483ZM125.451 222.637L61.7749 211.967C63.2791 204.822 65.9865 198.059 69.5965 191.867L125.451 222.637ZM65.8863 193.677L62.5771 188.056L67.591 190.819C67.0896 191.771 66.4879 192.724 65.8863 193.677ZM61.8752 202.917L53.9533 194.439L65.2846 194.915C63.981 197.487 62.878 200.155 61.8752 202.917ZM125.751 227.114L69.396 258.075C65.786 251.882 63.1788 245.119 61.7749 237.879L125.751 227.114ZM128.86 230.544L106.598 288.749C99.3788 286.177 92.7605 282.462 86.9444 277.985L128.86 230.544ZM131.066 157.381V218.35L109.005 160.906C116.024 158.715 123.345 157.477 131.066 157.381ZM130.665 144.045L123.746 154.619L117.428 145.188C121.74 144.521 126.152 144.14 130.665 144.045ZM122.843 155.571C120.336 155.857 117.93 156.238 115.523 156.81L116.827 146.617L122.843 155.571ZM115.824 145.474L114.42 156.715L104.092 148.522C107.902 147.284 111.813 146.236 115.824 145.474ZM102.788 148.998L113.217 157.381C111.512 157.763 109.908 158.334 108.203 158.81L106.498 154.333L104.192 155L105.896 159.668C104.793 160.049 103.59 160.43 102.487 160.906L102.788 148.998ZM106.799 161.668L128.96 219.398L87.2453 172.338C93.0613 167.86 99.6796 164.24 106.799 161.668ZM101.484 149.379L101.284 160.906L90.5544 154.238C94.0641 152.333 97.7744 150.713 101.484 149.379ZM100.482 161.764C97.6741 163.002 94.9666 164.431 92.4597 165.955L90.5544 155.571L100.482 161.764ZM89.1505 155L91.1561 166.05L78.3206 162.145C81.73 159.477 85.34 157.096 89.1505 155ZM77.1173 163.002L90.5544 167.098C88.8497 168.241 87.145 169.385 85.5406 170.623L82.1311 166.813L80.2259 168.241L83.7356 172.147C82.8331 172.909 81.8303 173.671 81.0281 174.434L77.1173 163.002ZM76.1145 163.764L79.7245 174.243L68.0924 171.29C70.5993 168.623 73.3068 166.146 76.1145 163.764ZM67.2901 172.243L73.1062 182.055L59.8696 181.674C62.0757 178.339 64.5827 175.196 67.2901 172.243ZM72.8054 183.198C71.4015 185.008 70.0979 186.913 68.8946 188.818L64.7832 186.627L62.9782 188.628L59.5688 182.912L72.8054 183.198ZM58.566 183.579L60.371 186.722V186.818L60.4713 186.913L64.4824 193.772L53.3516 193.296C54.9561 189.866 56.6608 186.722 58.566 183.579ZM52.75 194.82L61.1732 203.87L48.2375 208.919C49.2403 204.06 50.7444 199.297 52.75 194.82ZM47.8364 210.538L57.8641 217.493L46.5328 221.779C46.7334 217.969 47.1345 214.254 47.8364 210.538ZM46.4325 225.304C46.4325 224.637 46.4325 224.066 46.4325 223.399L57.463 227.305L47.5356 238.069C46.8336 233.878 46.4325 229.591 46.4325 225.304ZM47.8364 239.498L58.1649 228.448C58.2652 231.02 58.566 233.497 58.9672 235.974L54.1539 236.831L54.9561 238.927L59.3683 238.26C59.4685 238.927 59.6691 239.594 59.7694 240.26L47.8364 239.498ZM48.037 240.737L59.3683 241.404L50.7444 250.644C49.6414 247.5 48.7389 244.166 48.037 240.737ZM60.1705 242.261C61.073 245.69 62.176 248.929 63.5799 252.168L51.4464 251.692L60.1705 242.261ZM51.5467 252.835L63.3793 253.311L56.8613 264.076C54.7555 260.456 52.9505 256.741 51.5467 252.835ZM57.5633 265.219L64.4824 253.883C65.3849 255.693 66.2874 257.503 67.2901 259.218L62.9782 261.599L64.2818 263.409L68.4935 261.218C68.9949 261.98 69.4962 262.838 69.9976 263.6L57.7638 265.6C57.6636 265.41 57.5633 265.315 57.5633 265.219ZM58.3655 266.648L69.6968 264.838L64.7832 275.603C62.4768 272.745 60.371 269.697 58.3655 266.648ZM65.9865 276.841L78.0198 273.698L76.0142 286.654C72.4043 283.605 68.9949 280.366 65.9865 276.841ZM79.1228 274.365C80.5267 275.698 82.0309 277.032 83.535 278.27L80.4264 281.795L82.2314 283.319L85.4403 279.699C86.4431 280.461 87.3455 281.224 88.4486 281.986L77.2176 287.225L79.1228 274.365ZM88.248 295.037C84.6381 292.941 81.1284 290.655 77.9195 288.178L88.5489 283.224L88.248 295.037ZM89.7522 282.938C92.3594 284.653 95.0669 286.177 97.8746 287.606L89.5516 294.656L89.7522 282.938ZM89.8525 295.894L98.5766 288.464L101.284 301.038C97.3732 299.609 93.4624 297.895 89.8525 295.894ZM99.7799 288.559C101.685 289.416 103.69 290.274 105.696 290.94L104.192 294.846L106.498 295.608L108.002 291.607C109.105 291.988 110.309 292.369 111.412 292.655L102.587 301.038L99.7799 288.559ZM103.59 301.896L112.314 293.608L115.423 305.039C111.311 304.182 107.401 303.134 103.59 301.896ZM113.518 293.322C116.726 294.084 119.935 294.656 123.244 295.037L116.325 303.801L113.518 293.322ZM116.827 305.23L124.147 295.894L131.066 306.564C126.152 306.468 121.439 305.992 116.827 305.23Z" fill="#385170"/>
<path d="M113.518 313.994C113.518 310.184 114.119 306.373 114.52 302.563C115.022 298.752 115.523 294.941 116.125 291.226C117.328 283.7 118.531 276.175 119.835 268.649C121.139 261.123 122.643 253.597 124.147 246.167L128.86 223.78L132.57 206.251L135.98 223.875L140.492 246.643C141.796 254.264 143.3 261.79 144.503 269.411C145.807 277.032 147.01 284.653 148.113 292.274C149.116 299.895 150.219 307.611 151.021 315.328C148.715 307.897 146.609 300.467 144.603 292.941C142.598 285.415 140.693 277.985 138.888 270.459C136.982 262.933 135.378 255.407 133.673 247.881L128.86 225.209L135.98 225.304L130.865 247.596C129.061 255.026 127.356 262.457 125.451 269.887C123.646 277.318 121.64 284.653 119.634 292.084L116.526 303.134L114.921 308.659C114.42 310.279 113.818 312.089 113.518 313.994Z" fill="#142D4C"/>
<path d="M132.37 231.592C135.859 231.592 138.687 228.904 138.687 225.59C138.687 222.276 135.859 219.588 132.37 219.588C128.881 219.588 126.052 222.276 126.052 225.59C126.052 228.904 128.881 231.592 132.37 231.592Z" fill="#142D4C"/>
<path fill-rule="evenodd" clip-rule="evenodd" d="M47.1302 252.198L49.1357 260.772C52.144 270.298 56.1551 289.35 61.169 286.493C66.1828 282.682 71.1967 257.914 75.2078 253.15C80.2216 248.387 85.2355 264.582 90.2493 276.966C94.2604 289.35 99.2742 298.877 104.288 295.066C109.302 292.208 113.313 276.966 118.327 270.298C123.341 264.582 128.355 267.44 132.366 265.535C137.379 264.582 142.393 257.914 147.407 255.056C151.418 252.198 156.432 252.198 161.446 252.198C166.46 252.198 170.471 252.198 175.485 256.961C180.499 260.772 184.51 270.298 189.524 269.345C194.537 267.44 199.551 255.056 203.562 256.961C208.576 257.914 213.59 273.156 218.604 284.587C222.615 295.066 227.629 301.735 232.643 294.114C237.656 286.493 241.668 264.582 246.681 253.15C251.695 242.672 256.709 242.672 260.72 243.624C265.734 245.529 270.748 248.387 275.762 259.819C279.773 270.298 284.787 289.35 289.801 292.208C293.812 295.066 298.825 282.682 303.839 276.966C308.853 270.298 312.864 270.298 317.878 275.061C322.892 279.824 327.906 289.35 331.917 282.682C336.931 276.966 341.945 255.056 346.958 255.056C350.97 255.056 355.983 276.966 360.997 290.303C366.011 304.593 370.022 311.261 373.03 314.119L375.036 316.977V326.503H373.03C370.022 326.503 366.011 326.503 360.997 326.503C355.983 326.503 350.97 326.503 346.958 326.503C341.945 326.503 336.931 326.503 331.917 326.503C327.906 326.503 322.892 326.503 317.878 326.503C312.864 326.503 308.853 326.503 303.839 326.503C298.825 326.503 293.812 326.503 289.801 326.503C284.787 326.503 279.773 326.503 275.762 326.503C270.748 326.503 265.734 326.503 260.72 326.503C256.709 326.503 251.695 326.503 246.681 326.503C241.668 326.503 237.656 326.503 232.643 326.503C227.629 326.503 222.615 326.503 218.604 326.503C213.59 326.503 208.576 326.503 203.562 326.503C199.551 326.503 194.537 326.503 189.524 326.503C184.51 326.503 180.499 326.503 175.485 326.503C170.471 326.503 166.46 326.503 161.446 326.503C156.432 326.503 151.418 326.503 147.407 326.503C142.393 326.503 137.379 326.503 132.366 326.503C128.355 326.503 123.341 326.503 118.327 326.503C113.313 326.503 109.302 326.503 104.288 326.503C99.2742 326.503 94.2604 326.503 90.2493 326.503C85.2355 326.503 80.2216 326.503 75.2078 326.503C71.1967 326.503 66.1828 326.503 61.169 326.503C56.1551 326.503 52.144 326.503 49.1357 326.503H47.1302V252.198Z" fill="#FEFCBF"/>
<path fill-rule="evenodd" clip-rule="evenodd" d="M32.0886 269.345L34.0942 277.919C37.1025 287.445 41.1136 306.498 46.1274 303.64C51.1413 299.829 56.1551 275.061 60.1662 270.298C65.18 265.535 70.1939 281.729 75.2077 294.113C79.2188 306.498 84.2327 316.024 89.2465 312.213C94.2604 309.356 98.2714 294.113 103.285 287.445C108.299 281.729 113.313 284.587 117.324 282.682C122.338 281.729 127.352 275.061 132.366 272.203C136.377 269.345 141.391 269.345 146.404 269.345C151.418 269.345 155.429 269.345 160.443 274.108C165.457 277.919 169.468 287.445 174.482 286.492C179.496 284.587 184.51 272.203 188.521 274.108C193.535 275.061 198.548 290.303 203.562 301.735C207.573 312.213 212.587 318.882 217.601 311.261C222.615 303.64 226.626 281.729 231.64 270.298C236.654 259.819 241.668 259.819 245.679 260.771C250.693 262.677 255.706 265.535 260.72 276.966C264.731 287.445 269.745 306.498 274.759 309.356C278.77 312.213 283.784 299.829 288.798 294.113C293.812 287.445 297.823 287.445 302.837 292.208C307.85 296.971 312.864 306.498 316.875 299.829C321.889 294.113 326.903 272.203 331.917 272.203C335.928 272.203 340.942 294.113 345.956 307.45C350.97 321.74 354.981 328.408 357.989 331.266L359.994 334.124V343.65H357.989C354.981 343.65 350.97 343.65 345.956 343.65C340.942 343.65 335.928 343.65 331.917 343.65C326.903 343.65 321.889 343.65 316.875 343.65C312.864 343.65 307.85 343.65 302.837 343.65C297.823 343.65 293.812 343.65 288.798 343.65C283.784 343.65 278.77 343.65 274.759 343.65C269.745 343.65 264.731 343.65 260.72 343.65C255.706 343.65 250.693 343.65 245.679 343.65C241.668 343.65 236.654 343.65 231.64 343.65C226.626 343.65 222.615 343.65 217.601 343.65C212.587 343.65 207.573 343.65 203.562 343.65C198.548 343.65 193.535 343.65 188.521 343.65C184.51 343.65 179.496 343.65 174.482 343.65C169.468 343.65 165.457 343.65 160.443 343.65C155.429 343.65 151.418 343.65 146.404 343.65C141.391 343.65 136.377 343.65 132.366 343.65C127.352 343.65 122.338 343.65 117.324 343.65C113.313 343.65 108.299 343.65 103.285 343.65C98.2714 343.65 94.2604 343.65 89.2465 343.65C84.2327 343.65 79.2188 343.65 75.2077 343.65C70.1939 343.65 65.18 343.65 60.1662 343.65C56.1551 343.65 51.1413 343.65 46.1274 343.65C41.1136 343.65 37.1025 343.65 34.0942 343.65H32.0886V269.345Z" fill="#FAF089"/>
</g>
</svg>
