<svg width="35" height="32" viewBox="0 0 35 32" fill="none" xmlns="http://www.w3.org/2000/svg">
<g clip-path="url(#clip0)">
<path d="M31.9117 19.428V14.1483C31.9117 13.0106 30.9248 12.085 29.7118 12.085H10.1409C9.86408 12.085 9.6398 12.2953 9.6398 12.5549C9.6398 12.8145 9.86408 13.0249 10.1409 13.0249H29.7118C30.3723 13.0249 30.9096 13.5288 30.9096 14.1483V19.4115H28.6602V18.3349C28.6602 17.2047 27.6799 16.2852 26.4749 16.2852H21.2019C19.997 16.2852 19.0167 17.2047 19.0167 18.3349V19.4115H15.704V18.3349C15.704 17.2047 14.7237 16.2852 13.5188 16.2852H8.24576C7.04078 16.2852 6.06048 17.2047 6.06048 18.3349V19.4115H3.81107V14.1483C3.81107 13.5288 4.34835 13.0249 5.00883 13.0249H8.13652C8.41332 13.0249 8.6376 12.8145 8.6376 12.5549C8.6376 12.2953 8.41332 12.085 8.13652 12.085H5.00883C3.79584 12.085 2.80893 13.0106 2.80893 14.1483V19.428C1.40072 19.5738 0.301498 20.6961 0.301498 22.0552V29.1213C0.301498 29.3809 0.525845 29.5912 0.80257 29.5912H8.13652C8.41332 29.5912 8.6376 29.3809 8.6376 29.1213C8.6376 28.8617 8.41332 28.6513 8.13652 28.6513H1.30364V23.7516H26.9058C27.1826 23.7516 27.4069 23.5413 27.4069 23.2817C27.4069 23.0221 27.1826 22.8117 26.9058 22.8117H1.30364V22.0552C1.30364 21.1158 2.11845 20.3516 3.12006 20.3516H31.6005C32.6021 20.3516 33.417 21.1158 33.417 22.0552V22.8117H28.9101C28.6333 22.8117 28.409 23.0221 28.409 23.2817C28.409 23.5413 28.6333 23.7516 28.9101 23.7516H33.417V28.6513H10.1409C9.86408 28.6513 9.6398 28.8617 9.6398 29.1213C9.6398 29.3809 9.86408 29.5912 10.1409 29.5912H33.9181C34.1948 29.5912 34.4191 29.3809 34.4191 29.1213V22.0552C34.4191 20.6961 33.3199 19.5738 31.9117 19.428ZM20.0188 18.3349C20.0188 17.723 20.5495 17.2253 21.2019 17.2253H26.4749C27.1273 17.2253 27.658 17.723 27.658 18.3349V19.4116H20.0188V18.3349ZM7.06263 18.3349C7.06263 17.723 7.59336 17.2253 8.24576 17.2253H13.5188C14.1712 17.2253 14.7018 17.723 14.7018 18.3349V19.4116H7.06263V18.3349Z" fill="black"/>
<path d="M13.3572 10.5707H16.0406C16.3174 10.5707 16.5417 10.3604 16.5417 10.1007C16.5417 9.84113 16.3174 9.63078 16.0406 9.63078H14.4961L16.41 7.67225C16.6988 7.37667 16.4671 6.88477 16.0406 6.88477H13.6093C13.3325 6.88477 13.1082 7.09512 13.1082 7.35474C13.1082 7.61435 13.3325 7.82471 13.6093 7.82471H14.9017L12.9878 9.78324C12.699 10.0788 12.9306 10.5707 13.3572 10.5707Z" fill="black"/>
<path d="M19.178 7.77394H23.5023C23.7791 7.77394 24.0034 7.56358 24.0034 7.30397C24.0034 7.04435 23.7791 6.834 23.5023 6.834H20.317L23.8717 3.1963C24.1606 2.90072 23.9288 2.40881 23.5023 2.40881H19.4312C19.1581 2.40881 18.9301 2.62268 18.9301 2.87878C18.9301 3.13489 19.1581 3.34876 19.4312 3.34876H22.3633L18.8086 6.98645C18.5198 7.28197 18.7515 7.77394 19.178 7.77394Z" fill="black"/>
</g>
<defs>
<clipPath id="clip0">
<path d="M0.301483 0H34.4191V32H0.301483V0Z" fill="white"/>
</clipPath>
</defs>
</svg>
