<svg width="35" height="32" viewBox="0 0 35 32" fill="none" xmlns="http://www.w3.org/2000/svg">
<g clip-path="url(#clip0)">
<path d="M5.41904 25.6C5.10518 25.6 4.85043 25.8389 4.85043 26.1333C4.85043 26.4277 5.10518 26.6666 5.41904 26.6666H7.69353C8.00738 26.6666 8.26213 26.4277 8.26213 26.1333C8.26213 25.8389 8.00738 25.6 7.69353 25.6H5.41904Z" fill="black"/>
<path d="M22.478 17.0667H2.93534C1.48307 17.0667 0.301483 18.2629 0.301483 19.7333V29.3333C0.301483 30.8037 1.48307 32 2.93534 32H16.7615C18.2923 32 19.6348 30.7541 19.6348 29.3307V23.4645C19.6331 23.1707 19.3789 22.9333 19.0662 22.9333H19.0633C18.7495 22.935 18.4959 23.175 18.4975 23.4693V29.3333C18.4975 30.2347 17.5644 30.9333 16.7615 30.9333H2.93534C2.11025 30.9333 1.43869 30.2155 1.43869 29.3333V19.7333C1.43869 18.8512 2.11025 18.1333 2.93534 18.1333H21.1115L17.5553 21.4907C17.3342 21.6997 17.3353 22.0373 17.5582 22.2448C17.7811 22.4528 18.1411 22.4517 18.3622 22.2427L22.8811 17.976C23.0432 17.8229 23.0909 17.5941 23.0028 17.3952C22.9152 17.1962 22.7076 17.0667 22.478 17.0667Z" fill="black"/>
<path d="M12.8112 22.9333C12.8112 22.639 12.5564 22.4 12.2426 22.4H5.41904C5.10518 22.4 4.85043 22.639 4.85043 22.9333C4.85043 23.2277 5.10518 23.4667 5.41904 23.4667H12.2426C12.5564 23.4667 12.8112 23.2278 12.8112 22.9333Z" fill="black"/>
<path d="M0.892278 6.26825C1.00089 7.29331 1.47568 8.19569 1.4984 8.23837C2.01416 9.20531 2.79314 10.6666 5.41906 10.6666C8.04499 10.6666 8.82403 9.20531 9.33919 8.23837C9.36252 8.19569 9.8379 7.29331 9.94592 6.26825C10.2979 6.08694 10.5367 5.73544 10.5367 5.33331V4.26669C10.5367 3.87256 10.3075 3.528 9.9681 3.3435V3.2C9.9681 1.43519 8.43794 0 6.55634 0H4.28185C2.40025 0 0.870088 1.43519 0.870088 3.2V3.34344C0.530644 3.528 0.301483 3.87256 0.301483 4.26669V5.33337C0.301483 5.73544 0.540307 6.08694 0.892278 6.26825ZM1.43876 4.26669C1.75262 4.26669 2.00737 4.02775 2.00737 3.73338V3.2C2.00737 2.02344 3.0275 1.06669 4.28185 1.06669H6.55634C7.81076 1.06669 8.83089 2.02344 8.83089 3.2V3.73331C8.83089 4.02769 9.08564 4.26662 9.3995 4.26662V5.33331C9.08564 5.33331 8.83089 5.57225 8.83089 5.86662C8.83089 6.78931 8.32706 7.7525 8.322 7.76156C7.7306 8.872 7.20804 9.6 5.41913 9.6C3.62969 9.6 3.10766 8.872 2.51626 7.76213C2.51113 7.7525 2.00737 6.78931 2.00737 5.86669C2.00737 5.57231 1.75262 5.33337 1.43876 5.33337V4.26669V4.26669Z" fill="black"/>
<path d="M6.55643 5.33335H7.12503C7.43889 5.33335 7.69364 5.09441 7.69364 4.80004C7.69364 4.50566 7.43889 4.26672 7.12503 4.26672H6.55643C6.24257 4.26672 5.98782 4.50566 5.98782 4.80004C5.98782 5.09441 6.24251 5.33335 6.55643 5.33335Z" fill="black"/>
<path d="M3.71326 5.33335H4.28186C4.59572 5.33335 4.85047 5.09441 4.85047 4.80004C4.85047 4.50566 4.59572 4.26672 4.28186 4.26672H3.71326C3.3994 4.26672 3.14465 4.50566 3.14465 4.80004C3.14465 5.09441 3.3994 5.33335 3.71326 5.33335Z" fill="black"/>
<path d="M20.2034 9.59995H22.4779C22.7924 9.59995 23.0465 9.36101 23.0465 9.06664C23.0465 8.77226 22.7924 8.53333 22.4779 8.53333H20.2034C19.889 8.53333 19.6348 8.77226 19.6348 9.06664C19.6348 9.36101 19.889 9.59995 20.2034 9.59995Z" fill="black"/>
<path d="M27.027 5.33325H20.2034C19.889 5.33325 19.6348 5.57219 19.6348 5.86656C19.6348 6.16094 19.889 6.39988 20.2034 6.39988H27.027C27.3414 6.39988 27.5956 6.16094 27.5956 5.86656C27.5956 5.57219 27.3414 5.33325 27.027 5.33325Z" fill="black"/>
<path d="M31.5756 0H12.2428C12.0131 0 11.8055 0.130125 11.7174 0.329062C11.6292 0.5285 11.6781 0.757875 11.8408 0.910375L16.3903 5.17706C16.6127 5.38563 16.9721 5.38563 17.1944 5.17706C17.4167 4.9685 17.4167 4.63144 17.1944 4.42294L13.616 1.06669H31.5756C32.5161 1.06669 33.282 1.78456 33.282 2.66669V12.2667C33.282 13.1488 32.5161 13.8667 31.5756 13.8667H17.9285C16.988 13.8667 16.2232 13.1488 16.2232 12.2667V6.4C16.2232 6.10563 15.9685 5.86669 15.6546 5.86669C15.3408 5.86669 15.086 6.10563 15.086 6.4V12.2667C15.086 13.7371 16.3614 14.9334 17.9286 14.9334H31.5756C33.1433 14.9334 34.4193 13.7371 34.4193 12.2667V2.66669C34.4193 1.19625 33.1432 0 31.5756 0Z" fill="black"/>
<path d="M24.1839 9.06664C24.1839 9.36101 24.4381 9.59995 24.7525 9.59995H29.3016C29.616 9.59995 29.8702 9.36101 29.8702 9.06664C29.8702 8.77226 29.616 8.53333 29.3016 8.53333H24.7525C24.4381 8.53326 24.1839 8.7722 24.1839 9.06664Z" fill="black"/>
<path d="M31.0075 21.3333H30.4389C30.1244 21.3333 29.8703 21.5722 29.8703 21.8666C29.8703 22.1609 30.1244 22.3999 30.4389 22.3999H31.0075C31.3219 22.3999 31.5761 22.1609 31.5761 21.8666C31.5761 21.5722 31.3219 21.3333 31.0075 21.3333Z" fill="black"/>
<path d="M28.1643 21.3333H27.5957C27.2813 21.3333 27.0271 21.5722 27.0271 21.8666C27.0271 22.1609 27.2813 22.3999 27.5957 22.3999H28.1643C28.4788 22.3999 28.7329 22.1609 28.7329 21.8666C28.7329 21.5722 28.4788 21.3333 28.1643 21.3333Z" fill="black"/>
<path d="M9.96823 26.6667H14.5173C14.8311 26.6667 15.0859 26.4278 15.0859 26.1334C15.0859 25.839 14.8311 25.6001 14.5173 25.6001H9.96823C9.65438 25.6001 9.39963 25.839 9.39963 26.1334C9.39963 26.4278 9.65431 26.6667 9.96823 26.6667Z" fill="black"/>
<path d="M33.8506 20.4101V20.2667C33.8506 18.5018 32.3205 17.0667 30.4389 17.0667H28.1644C26.2828 17.0667 24.7526 18.5018 24.7526 20.2667V20.4101C24.4126 20.5947 24.184 20.9392 24.184 21.3333V22.4C24.184 22.8021 24.4228 23.1536 24.7743 23.3349C24.8829 24.36 25.3583 25.2623 25.381 25.305C25.8968 26.272 26.6757 27.7333 29.3017 27.7333C31.9276 27.7333 32.7066 26.272 33.2218 25.305C33.2451 25.2623 33.7205 24.36 33.8291 23.3349C34.1806 23.1536 34.4194 22.8021 34.4194 22.4V21.3333C34.4193 20.9392 34.1907 20.5947 33.8506 20.4101ZM33.282 22.4C32.9675 22.4 32.7134 22.6389 32.7134 22.9333C32.7134 23.856 32.2095 24.8192 32.2045 24.8282C31.6131 25.9386 31.0911 26.6666 29.3016 26.6666C27.5122 26.6666 26.9901 25.9386 26.3987 24.8287C26.3936 24.8191 25.8898 23.8559 25.8898 22.9333C25.8898 22.6389 25.6357 22.4 25.3212 22.4V21.3333C25.6357 21.3333 25.8898 21.0943 25.8898 20.8V20.2667C25.8898 19.0901 26.91 18.1333 28.1643 18.1333H30.4388C31.6932 18.1333 32.7133 19.0902 32.7133 20.2667V20.8C32.7133 21.0943 32.9675 21.3333 33.2819 21.3333V22.4H33.282Z" fill="black"/>
</g>
<defs>
<clipPath id="clip0">
<path d="M0.301483 0H34.4191V32H0.301483V0Z" fill="white"/>
</clipPath>
</defs>
</svg>
