<svg width="35" height="32" viewBox="0 0 35 32" fill="none" xmlns="http://www.w3.org/2000/svg">
<path d="M34.3109 14.2047C34.255 13.7343 34.1776 13.2691 34.0788 12.8117H28.6105L32.8956 9.38385C32.5339 8.63706 32.1115 7.92175 31.636 7.24142L24.6275 12.8117H21.6654L30.4967 5.79331C30.2272 5.489 29.9466 5.19431 29.6547 4.90923L20.8505 11.9093V0.335807C20.4142 0.250985 19.9722 0.181028 19.5247 0.127686V14.2047H34.3109Z" fill="white"/>
<path d="M19.5238 31.8723C19.9713 31.819 20.4133 31.749 20.8496 31.6642V20.6984L29.2371 27.4825C29.9 26.88 30.5107 26.2268 31.0617 25.5307L23.959 19.775H26.923L32.1358 23.9987C32.326 23.69 32.505 23.3752 32.6737 23.0542L28.6105 19.775H33.9389C34.0564 19.3185 34.1543 18.8551 34.2289 18.3855H19.5238V31.8723Z" fill="white"/>
<path d="M15.5482 0.0899658C15.0998 0.134563 14.6569 0.195775 14.2196 0.271853L14.2224 11.91L5.23731 4.74384C4.66298 5.28776 4.13061 5.87015 3.64392 6.48577L11.5773 12.8107H8.61243L2.5829 8.00033C2.34608 8.3851 2.12604 8.77948 1.92279 9.18348L6.4587 12.8116H0.639871C0.541041 13.269 0.464588 13.7342 0.407715 14.2046H15.5473V0.0899658H15.5482Z" fill="white"/>
<path d="M14.2225 31.7289C14.6588 31.805 15.1007 31.8662 15.5483 31.9099V18.3855H0.489807C0.564395 18.856 0.662293 19.3194 0.779769 19.775H6.45967L2.16338 23.2764C2.61091 24.0966 3.1321 24.8757 3.71762 25.6059L10.9051 19.7741H13.871L4.96977 26.9954C5.19354 27.2175 5.42476 27.4327 5.66158 27.6425L14.2215 20.6967V31.7289H14.2225Z" fill="white"/>
<path d="M24.6275 12.8109L31.636 7.24059C31.2845 6.73777 30.9041 6.2542 30.4957 5.79248L21.6645 12.8109H24.6275V12.8109Z" fill="#BD0034"/>
<path d="M23.959 19.776L31.0617 25.5317C31.4495 25.042 31.8085 24.5304 32.1357 24.0005L26.9229 19.7769H23.959V19.776Z" fill="#BD0034"/>
<path d="M11.5774 12.8108L3.64395 6.48584C3.26168 6.97029 2.90646 7.47573 2.58386 8.00041L8.6134 12.8108H11.5774V12.8108Z" fill="#BD0034"/>
<path d="M10.9051 19.776L3.71759 25.6078C4.10731 26.0931 4.52501 26.5574 4.96974 26.9982L13.8709 19.7769H10.9051V19.776Z" fill="#BD0034"/>
<path d="M29.6538 4.90912C27.3192 2.6329 24.2723 1.00291 20.8496 0.335693V11.9092L29.6538 4.90912Z" fill="#1A237B"/>
<path d="M14.2197 0.271973C10.7392 0.879723 7.62977 2.47824 5.23828 4.74396L14.2234 11.9102L14.2197 0.271973Z" fill="#1A237B"/>
<path d="M34.0797 12.8108C33.8214 11.6146 33.4215 10.4664 32.8966 9.38293L28.6115 12.8108H34.0797V12.8108Z" fill="#1A237B"/>
<path d="M32.6737 23.0552C33.2163 22.0199 33.6443 20.9224 33.9399 19.776H28.6115L32.6737 23.0552Z" fill="#1A237B"/>
<path d="M14.2224 20.6985L5.66248 27.6443C7.99336 29.7054 10.9433 31.1562 14.2224 31.728V20.6985Z" fill="#1A237B"/>
<path d="M20.8496 31.6643C24.0728 31.0356 26.9612 29.5543 29.2371 27.4835L20.8496 20.6995V31.6643Z" fill="#1A237B"/>
<path d="M0.779724 19.776C1.09672 21.0046 1.56383 22.1781 2.16334 23.2773L6.45963 19.776H0.779724Z" fill="#1A237B"/>
<path d="M1.92375 9.18359C1.34941 10.3248 0.914005 11.5403 0.639893 12.8109H6.45965L1.92375 9.18359Z" fill="#1A237B"/>
<path d="M15.5482 31.9099C16.144 31.9685 16.7482 32 17.3598 32C18.0926 32 18.8152 31.9563 19.5238 31.8723V18.3855H34.2298C34.3538 17.6073 34.4191 16.8106 34.4191 16C34.4191 15.3931 34.3818 14.7941 34.3119 14.2047H19.5247V0.127671C18.8161 0.0437233 18.0936 0 17.3607 0C16.7491 0 16.144 0.0306063 15.5492 0.0900696V14.2047H0.408674C0.338747 14.7941 0.301453 15.3931 0.301453 16C0.301453 16.8106 0.366717 17.6073 0.49072 18.3855H15.5492V31.9099H15.5482Z" fill="#BD0034"/>
</svg>
