<svg width="35" height="32" viewBox="0 0 35 32" fill="none" xmlns="http://www.w3.org/2000/svg">
<g clip-path="url(#clip0)">
<path d="M17.3602 7.46669C19.2418 7.46669 20.772 6.0315 20.772 4.26669V2.66669C20.772 1.19625 19.4966 0 17.9288 0H16.7916C15.2239 0 13.9485 1.19625 13.9485 2.66669V4.26669C13.9485 6.03144 15.4786 7.46669 17.3602 7.46669ZM15.0858 2.66669C15.0858 1.78456 15.8511 1.06669 16.7916 1.06669H17.9289C18.8694 1.06669 19.6348 1.78456 19.6348 2.66669V4.26669C19.6348 5.44325 18.6147 6.4 17.3603 6.4C16.1059 6.4 15.0858 5.44319 15.0858 4.26669V2.66669H15.0858Z" fill="black"/>
<path d="M17.9289 14.9333H16.7916C15.224 14.9333 13.9485 16.1296 13.9485 17.6V19.2C13.9485 20.9649 15.4786 22.4 17.3602 22.4C19.2418 22.4 20.772 20.9649 20.772 19.2V17.6C20.7721 16.1297 19.4967 14.9333 17.9289 14.9333ZM19.6348 19.2C19.6348 20.3766 18.6147 21.3334 17.3603 21.3334C16.1059 21.3334 15.0858 20.3765 15.0858 19.2V17.6C15.0858 16.7179 15.8512 16 16.7917 16H17.929C18.8695 16 19.6349 16.7179 19.6349 17.6V19.2H19.6348Z" fill="black"/>
<path d="M19.0662 10.1334V11.7334C19.0662 13.4982 20.5963 14.9334 22.4779 14.9334C24.3595 14.9334 25.8897 13.4982 25.8897 11.7334V10.1334C25.8897 8.66299 24.6143 7.46667 23.0465 7.46667H21.9093C20.3416 7.46674 19.0662 8.66299 19.0662 10.1334ZM20.2034 10.1334C20.2034 9.25124 20.9688 8.53336 21.9093 8.53336H23.0466C23.9871 8.53336 24.7525 9.25124 24.7525 10.1334V11.7334C24.7525 12.9099 23.7323 13.8667 22.478 13.8667C21.2236 13.8667 20.2035 12.9099 20.2035 11.7334V10.1334H20.2034Z" fill="black"/>
<path d="M27.5956 22.4C29.4772 22.4 31.0074 20.9649 31.0074 19.2V17.6C31.0074 16.1297 29.732 14.9333 28.1642 14.9333H27.0269C25.4593 14.9333 24.1838 16.1296 24.1838 17.6V19.2C24.1838 20.9649 25.714 22.4 27.5956 22.4ZM25.3211 17.6C25.3211 16.7179 26.0865 16 27.027 16H28.1643C29.1048 16 29.8702 16.7179 29.8702 17.6V19.2C29.8702 20.3766 28.85 21.3334 27.5957 21.3334C26.3413 21.3334 25.3212 20.3765 25.3212 19.2V17.6H25.3211Z" fill="black"/>
<path d="M19.0901 23.4736C18.8359 23.4784 18.596 23.6208 18.5215 23.8534L17.3603 27.4794L16.1992 23.8538C16.127 23.6288 15.9063 23.4746 15.6556 23.4741C13.683 23.4688 12.2313 23.8688 11.388 24.6586C10.8313 25.1797 10.5368 25.8741 10.5368 26.6666V31.4666C10.5368 31.761 10.7916 31.9999 11.1054 31.9999C11.4193 31.9999 11.674 31.761 11.674 31.4666V26.6666C11.674 26.1563 11.848 25.7349 12.1914 25.4133C12.7515 24.8891 13.7978 24.592 15.2336 24.5466L16.8155 29.4869C16.8878 29.7119 17.1095 29.8666 17.3603 29.8666C17.611 29.8666 17.8328 29.7119 17.905 29.4869L19.487 24.5461C20.9222 24.5919 21.969 24.889 22.5291 25.4133C22.8725 25.7349 23.0465 26.1562 23.0465 26.6666V31.4666C23.0465 31.7609 23.3013 31.9999 23.6151 31.9999C23.929 31.9999 24.1837 31.7609 24.1837 31.4666V26.6666C24.1837 25.874 23.8892 25.1796 23.3325 24.6586C22.4928 23.872 21.0655 23.4736 19.0901 23.4736Z" fill="black"/>
<path d="M12.2426 14.9334C14.1242 14.9334 15.6544 13.4982 15.6544 11.7334V10.1334C15.6544 8.66299 14.379 7.46667 12.8112 7.46667H11.674C10.1063 7.46667 8.83081 8.66292 8.83081 10.1334V11.7334C8.83088 13.4982 10.361 14.9334 12.2426 14.9334ZM9.96815 10.1334C9.96815 9.25124 10.7335 8.53336 11.674 8.53336H12.8113C13.7518 8.53336 14.5172 9.25124 14.5172 10.1334V11.7334C14.5172 12.9099 13.4971 13.8667 12.2427 13.8667C10.9883 13.8667 9.96822 12.9099 9.96822 11.7334V10.1334H9.96815Z" fill="black"/>
<path d="M33.5679 24.6587C32.728 23.872 31.3008 23.4736 29.3254 23.4736C29.0746 23.4784 28.8313 23.6208 28.7568 23.8534L27.5956 27.4794L26.4344 23.8538C26.3622 23.6288 26.1416 23.4746 25.8914 23.4741C25.4945 23.4799 25.0959 23.489 24.728 23.5221C24.4153 23.5503 24.1861 23.8106 24.2156 24.1039C24.2458 24.3968 24.5221 24.6063 24.836 24.5839C25.039 24.5658 25.2506 24.553 25.4689 24.5466L27.0509 29.4869C27.1231 29.7119 27.3449 29.8666 27.5956 29.8666C27.8464 29.8666 28.0681 29.7119 28.1404 29.4869L29.7223 24.5461C31.1575 24.5919 32.2044 24.889 32.7645 25.4133C33.1079 25.7349 33.2819 26.1562 33.2819 26.6666V30.4C33.2819 30.6944 33.5366 30.9333 33.8505 30.9333C34.1644 30.9333 34.4191 30.6944 34.4191 30.4V26.6667C34.4191 25.8741 34.1246 25.1798 33.5679 24.6587Z" fill="black"/>
<path d="M7.12502 22.4C9.00662 22.4 10.5368 20.9649 10.5368 19.2V17.6C10.5368 16.1297 9.26137 14.9333 7.69363 14.9333H6.55642C4.98874 14.9333 3.71326 16.1296 3.71326 17.6V19.2C3.71326 20.9649 5.24342 22.4 7.12502 22.4ZM4.85053 17.6C4.85053 16.7179 5.61592 16 6.55642 16H7.69369C8.63419 16 9.39958 16.7179 9.39958 17.6V19.2C9.39958 20.3766 8.37945 21.3334 7.12509 21.3334C5.87067 21.3334 4.8506 20.3765 4.8506 19.2V17.6H4.85053Z" fill="black"/>
<path d="M10.0238 23.5248C9.65822 23.4907 9.263 23.4736 8.84906 23.4736C8.59491 23.4753 8.36001 23.6224 8.28611 23.8534L7.12498 27.4794L5.96385 23.8538C5.89162 23.6288 5.67098 23.4746 5.42023 23.4741C3.40556 23.4688 1.99594 23.8688 1.15266 24.6586C0.595984 25.1798 0.301453 25.8741 0.301453 26.6667V30.4C0.301453 30.6944 0.556202 30.9333 0.870058 30.9333C1.18391 30.9333 1.43866 30.6944 1.43866 30.4V26.6667C1.43866 26.1563 1.61265 25.7349 1.95609 25.4134C2.51617 24.8891 3.56249 24.5921 4.99823 24.5467L6.58017 29.4869C6.6524 29.712 6.87416 29.8667 7.12492 29.8667C7.37567 29.8667 7.59743 29.712 7.66966 29.4869L9.2516 24.5461C9.4819 24.5536 9.70193 24.5669 9.9101 24.5866C10.2286 24.6181 10.5015 24.4016 10.5327 24.1088C10.5641 23.8154 10.336 23.5547 10.0238 23.5248Z" fill="black"/>
</g>
<defs>
<clipPath id="clip0">
<path d="M0.301453 0H34.4191V32H0.301453V0Z" fill="white"/>
</clipPath>
</defs>
</svg>
