<svg width="35" height="32" viewBox="0 0 35 32" fill="none" xmlns="http://www.w3.org/2000/svg">
<g clip-path="url(#clip0)">
<g clip-path="url(#clip1)">
<path d="M12.8112 19.7333C12.8112 20.0277 13.066 20.2666 13.3799 20.2666H15.6544C15.9683 20.2666 16.223 20.0277 16.223 19.7333V16.5333C16.223 16.2389 15.9683 16 15.6544 16H13.3799C13.0661 16 12.8113 16.2389 12.8113 16.5333V19.7333H12.8112ZM13.9485 17.0667H15.0858V19.2H13.9485V17.0667Z" fill="black"/>
<path d="M13.3799 13.8667H15.6544C15.9683 13.8667 16.223 13.6278 16.223 13.3334V10.1334C16.223 9.83904 15.9683 9.6001 15.6544 9.6001H13.3799C13.0661 9.6001 12.8113 9.83904 12.8113 10.1334V13.3334C12.8112 13.6278 13.066 13.8667 13.3799 13.8667ZM13.9485 10.6667H15.0858V12.8H13.9485V10.6667Z" fill="black"/>
<path d="M9.69242 10.0571L17.929 5.42188L26.1655 10.0571C26.2571 10.1088 26.3583 10.1333 26.4578 10.1333C26.6511 10.1333 26.8393 10.0411 26.9457 9.87463C27.1077 9.62181 27.0202 9.29437 26.7512 9.14287L18.4976 4.49813V1.06669H21.3407V2.13337H19.6349C19.321 2.13337 19.0662 2.37231 19.0662 2.66669C19.0662 2.96106 19.321 3.2 19.6349 3.2H21.9093C22.2232 3.2 22.4779 2.96106 22.4779 2.66669V0.533312C22.4779 0.238937 22.2232 0 21.9093 0H17.929C17.6151 0 17.3604 0.238937 17.3604 0.533312V4.49813L9.10676 9.14294C8.83782 9.29438 8.75026 9.62187 8.91232 9.87469C9.07318 10.1269 9.42341 10.2091 9.69242 10.0571Z" fill="black"/>
<path d="M6.55645 20.2667C6.87031 20.2667 7.12506 20.0278 7.12506 19.7334V16.5334C7.12506 16.2391 6.87031 16.0001 6.55645 16.0001H4.28189C3.96804 16.0001 3.71329 16.2391 3.71329 16.5334V17.6001C3.71329 17.8944 3.96804 18.1334 4.28189 18.1334C4.59575 18.1334 4.8505 17.8944 4.8505 17.6001V17.0667H5.98778V19.7334C5.98778 20.0278 6.24253 20.2667 6.55645 20.2667Z" fill="black"/>
<path d="M10.5368 27.1999V11.7333C10.5368 11.4389 10.2821 11.2 9.96823 11.2C9.65438 11.2 9.39963 11.4389 9.39963 11.7333V27.1999C9.39963 27.4943 9.65438 27.7333 9.96823 27.7333C10.2821 27.7333 10.5368 27.4943 10.5368 27.1999Z" fill="black"/>
<path d="M7.69359 29.8667H27.0269C27.3408 29.8667 27.5955 29.6278 27.5955 29.3334C27.5955 29.039 27.3408 28.8001 27.0269 28.8001H21.9093V23.4668H22.4779C22.7917 23.4668 23.0465 23.2278 23.0465 22.9335C23.0465 22.6391 22.7917 22.4001 22.4779 22.4001H12.2426C11.9288 22.4001 11.674 22.6391 11.674 22.9335C11.674 23.2278 11.9288 23.4668 12.2426 23.4668H12.8112V28.8H7.69359C7.37973 28.8 7.12498 29.039 7.12498 29.3333C7.12498 29.6277 7.37973 29.8667 7.69359 29.8667ZM17.9289 26.6667C18.2427 26.6667 18.4975 26.4278 18.4975 26.1334C18.4975 25.839 18.2427 25.6001 17.9289 25.6001V23.4668H20.772V28.8H17.9289V26.6667ZM13.9485 23.4667H16.7917V25.6C16.4778 25.6 16.2231 25.839 16.2231 26.1333C16.2231 26.4277 16.4778 26.6666 16.7917 26.6666V28.8H13.9485V23.4667Z" fill="black"/>
<path d="M30.4387 22.9333H28.1642C27.8504 22.9333 27.5956 23.1723 27.5956 23.4667V26.6667C27.5956 26.961 27.8504 27.2 28.1642 27.2H30.4387C30.7526 27.2 31.0073 26.961 31.0073 26.6667V23.4667C31.0073 23.1723 30.7526 22.9333 30.4387 22.9333ZM29.87 26.1333H28.7328V24H29.87V26.1333Z" fill="black"/>
<path d="M30.4387 16.5333H28.1642C27.8504 16.5333 27.5956 16.7723 27.5956 17.0666V20.2666C27.5956 20.561 27.8504 20.8 28.1642 20.8H30.4387C30.7526 20.8 31.0073 20.561 31.0073 20.2666V17.0666C31.0073 16.7723 30.7526 16.5333 30.4387 16.5333ZM29.87 19.7333H28.7328V17.6H29.87V19.7333Z" fill="black"/>
<path d="M29.3015 30.9333H5.41915C5.10529 30.9333 4.85054 31.1723 4.85054 31.4667C4.85054 31.761 5.10529 32 5.41915 32H29.3015C29.6154 32 29.8701 31.7611 29.8701 31.4667C29.8701 31.1723 29.6154 30.9333 29.3015 30.9333Z" fill="black"/>
<path d="M33.8506 11.7333C33.5367 11.7333 33.282 11.9722 33.282 12.2666V12.7999H27.0271C26.7132 12.7999 26.4585 13.0388 26.4585 13.3332C26.4585 13.6276 26.7132 13.8665 27.0271 13.8665H33.282V31.4665C33.282 31.7609 33.5367 31.9998 33.8506 31.9998C34.1644 31.9998 34.4192 31.7609 34.4192 31.4665V12.2665C34.4192 11.9722 34.1644 11.7333 33.8506 11.7333Z" fill="black"/>
<path d="M18.4976 19.7333C18.4976 20.0277 18.7523 20.2666 19.0662 20.2666H21.3407C21.6545 20.2666 21.9093 20.0277 21.9093 19.7333V16.5333C21.9093 16.2389 21.6545 16 21.3407 16H19.0662C18.7523 16 18.4976 16.2389 18.4976 16.5333V19.7333ZM19.6348 17.0667H20.772V19.2H19.6348V17.0667Z" fill="black"/>
<path d="M5.98774 26.1333C5.98774 26.064 5.95535 19.2 3.14458 19.2C0.333868 19.2 0.301483 26.064 0.301483 26.1333C0.301483 27.4213 1.2801 28.4981 2.57597 28.7461V31.4666C2.57597 31.761 2.83072 32 3.14458 32C3.45843 32 3.71318 31.761 3.71318 31.4666V28.7461C5.00912 28.4981 5.98774 27.4213 5.98774 26.1333ZM3.14464 27.7333C2.20414 27.7333 1.43876 27.0154 1.43876 26.1333C1.43876 23.4762 2.19961 20.2666 3.14464 20.2666C4.08967 20.2666 4.85052 23.4762 4.85052 26.1333C4.85052 27.0154 4.08514 27.7333 3.14464 27.7333Z" fill="black"/>
<path d="M25.3212 27.2001V11.2001C25.3212 10.9057 25.0665 10.6667 24.7526 10.6667C24.4388 10.6667 24.184 10.9057 24.184 11.2001V27.2001C24.184 27.4945 24.4388 27.7334 24.7526 27.7334C25.0665 27.7334 25.3212 27.4945 25.3212 27.2001Z" fill="black"/>
<path d="M19.0662 13.8667H21.3407C21.6545 13.8667 21.9093 13.6278 21.9093 13.3334V10.1334C21.9093 9.83904 21.6545 9.6001 21.3407 9.6001H19.0662C18.7523 9.6001 18.4976 9.83904 18.4976 10.1334V13.3334C18.4976 13.6278 18.7523 13.8667 19.0662 13.8667ZM19.6348 10.6667H20.772V12.8H19.6348V10.6667Z" fill="black"/>
<path d="M0.870088 18.6666C1.18394 18.6666 1.43869 18.4277 1.43869 18.1333V13.8666H7.69362C8.00747 13.8666 8.26222 13.6277 8.26222 13.3333C8.26222 13.039 8.00747 12.8 7.69362 12.8H1.43876V12.2667C1.43876 11.9723 1.18401 11.7334 0.870155 11.7334C0.556299 11.7334 0.301483 11.9722 0.301483 12.2666V18.1333C0.301483 18.4277 0.556233 18.6666 0.870088 18.6666Z" fill="black"/>
</g>
</g>
<defs>
<clipPath id="clip0">
<path d="M0.301483 0H34.4191V32H0.301483V0Z" fill="white"/>
</clipPath>
<clipPath id="clip1">
<path d="M0.301483 0H34.4191V32H0.301483V0Z" fill="white"/>
</clipPath>
</defs>
</svg>
