<svg width="35" height="32" viewBox="0 0 35 32" fill="none" xmlns="http://www.w3.org/2000/svg">
<path d="M28.964 3.03724H25.5946V0.559468C25.5946 0.376335 25.4991 0.204914 25.3389 0.100257C25.2376 0.0340902 24.9982 0 24.9982 0H9.7229C9.7229 0 9.48351 0.0340902 9.3821 0.100257C9.22193 0.20484 9.12641 0.376335 9.12641 0.559468V3.03724H5.75671C5.42729 3.03724 5.16022 3.28773 5.16022 3.59671V31.4405C5.16022 31.7495 5.42729 32 5.75671 32H28.964C29.2934 32 29.5605 31.7495 29.5605 31.4405V3.59671C29.5605 3.28773 29.2935 3.03724 28.964 3.03724ZM17.3605 2.616L13.0508 1.11894H21.6701L17.3605 2.616ZM24.4017 1.36331V4.49081L20.1368 6.93539L18.2064 3.51547L24.4017 1.36331ZM10.3194 1.36331L16.5147 3.51547L14.5844 6.93546L10.3194 4.49081V1.36331ZM6.3532 11.5849H11.6606V12.9864H6.3532V11.5849ZM6.3532 14.1054H12.2571C12.5865 14.1054 12.8536 13.8549 12.8536 13.5459V11.0254C12.8536 10.7164 12.5865 10.4659 12.2571 10.4659H6.3532V4.15618H9.12641V4.80456C9.12641 4.99948 9.23457 5.1803 9.41185 5.2819L14.5036 8.20038C14.5981 8.25461 14.7058 8.28251 14.8146 8.28251C14.8674 8.28251 14.9205 8.27595 14.9723 8.2626C15.1311 8.22179 15.2647 8.12124 15.3418 7.9848L16.764 5.46511V30.8811H6.3532V14.1054ZM17.957 30.8811V5.46518L19.3792 7.98488C19.4562 8.12131 19.5899 8.22179 19.7486 8.26267C19.8006 8.27602 19.8536 8.28259 19.9064 8.28259C20.0152 8.28259 20.1229 8.25469 20.2174 8.20046L25.3091 5.28197C25.4864 5.18037 25.5946 4.99948 25.5946 4.80464V4.15625H28.3675V10.4659H22.4636C22.1341 10.4659 21.8671 10.7164 21.8671 11.0254V13.5459C21.8671 13.8549 22.1341 14.1054 22.4636 14.1054H28.3675V30.8811H17.957V30.8811ZM28.3675 12.9864H23.0601V11.5849H28.3675V12.9864Z" fill="black"/>
</svg>
