<svg width="35" height="32" viewBox="0 0 35 32" fill="none" xmlns="http://www.w3.org/2000/svg">
<g clip-path="url(#clip0)">
<path d="M20.7721 15.9997C21.9207 15.9997 22.864 15.1938 23.0153 14.1544L25.0936 12.6931C25.3449 12.5166 25.3961 12.1822 25.2073 11.9464C25.0191 11.7107 24.6626 11.6622 24.4112 11.8397L22.9619 12.8595C22.7452 12.2094 22.1049 11.7331 21.3407 11.7331H19.0663C18.1258 11.7331 17.3604 12.451 17.3604 13.3331C17.3604 12.451 16.595 11.7331 15.6545 11.7331H13.3799C12.6157 11.7331 11.9755 12.2094 11.7588 12.8595L10.3094 11.8397C10.0586 11.6632 9.70153 11.7112 9.51329 11.9464C9.32451 12.1822 9.37569 12.5166 9.62704 12.6931L11.7053 14.1544C11.8566 15.1938 12.7993 15.9997 13.9485 15.9997H15.0858C16.3402 15.9997 17.3603 15.0429 17.3603 13.8664C17.3603 15.043 18.3804 15.9997 19.6347 15.9997H20.7721ZM16.2231 13.8664C16.2231 14.4547 15.7125 14.9331 15.0858 14.9331H13.9485C13.3219 14.9331 12.8113 14.4547 12.8113 13.8664V13.3331C12.8113 13.0392 13.066 12.7998 13.3799 12.7998H15.6543C15.9682 12.7998 16.2229 13.0392 16.2229 13.3331V13.8664H16.2231ZM18.4975 13.8664V13.3331C18.4975 13.0392 18.7523 12.7998 19.0661 12.7998H21.3406C21.6545 12.7998 21.9092 13.0392 21.9092 13.3331V13.8664C21.9092 14.4547 21.3986 14.9331 20.7719 14.9331H19.6347C19.0082 14.933 18.4975 14.4547 18.4975 13.8664Z" fill="black"/>
<path d="M34.4019 31.3366L33.8208 29.1643C33.5291 28.342 31.8028 25.6966 21.9093 25.6246V25.0663C21.9093 24.7719 21.6552 24.533 21.3407 24.533C21.0263 24.533 20.7721 24.7719 20.7721 25.0663V26.1329C20.7721 26.1367 20.7744 26.1399 20.7744 26.1436C20.7744 26.1468 20.7721 26.1495 20.7721 26.1533C20.7699 26.4786 20.6556 29.333 17.3604 29.333C14.0652 29.333 13.951 26.4589 13.9487 26.133V25.0663C13.9487 24.772 13.6945 24.533 13.3801 24.533C13.0656 24.533 12.8115 24.772 12.8115 25.0663V25.605C5.44315 25.6593 1.75335 26.7622 0.887355 29.2033L0.318756 31.3366C0.241992 31.6224 0.427904 31.912 0.732694 31.9835C1.03635 32.0561 1.34567 31.8811 1.42184 31.5958L1.97798 29.5014C2.63873 27.6427 6.19713 26.7142 12.8489 26.6678C13.0553 28.1947 14.1618 30.3995 17.3603 30.3995C20.557 30.3995 21.6642 28.2081 21.8717 26.6892C29.6652 26.7431 32.3747 28.4684 32.7301 29.4625L33.2987 31.5958C33.3636 31.8379 33.595 31.9995 33.8497 31.9995C33.8953 31.9995 33.9418 31.9947 33.9879 31.9835C34.2927 31.912 34.4781 31.6224 34.4019 31.3366Z" fill="black"/>
<path d="M4.20874 2.66221L17.2871 4.26219C17.3115 4.26488 17.336 4.26644 17.3604 4.26644C17.3849 4.26644 17.4093 4.26481 17.4338 4.26219L29.8701 2.74064V4.59237C29.5136 4.96837 28.7328 5.90649 28.7328 6.93316C28.7328 8.10703 29.7529 8.53315 30.4387 8.53315C31.1244 8.53315 32.1445 8.10703 32.1445 6.93316C32.1445 5.90649 31.3638 4.96837 31.0073 4.59237V2.13315C31.0073 2.06277 30.9914 1.99609 30.9646 1.93421C30.955 1.91234 30.9384 1.89528 30.926 1.87503C30.9038 1.83771 30.8816 1.8009 30.851 1.76996C30.831 1.75021 30.8072 1.7369 30.7845 1.7209C30.7521 1.69634 30.7202 1.6729 30.6827 1.65584C30.6548 1.64303 30.6253 1.63772 30.5951 1.62972C30.5673 1.62172 30.5422 1.60784 30.5121 1.60409L17.4338 0.00410641C17.3849 -0.00120604 17.336 -0.00120604 17.2871 0.00410641L4.20874 1.60409C3.92553 1.63878 3.7135 1.8654 3.7135 2.13315C3.7135 2.4009 3.9256 2.62758 4.20874 2.66221ZM31.0073 6.9331C31.0073 7.35872 30.6997 7.45841 30.4387 7.46641C30.1777 7.45841 29.8701 7.35866 29.8701 6.9331C29.8701 6.49042 30.1601 5.99655 30.4387 5.6323C30.7174 5.99661 31.0073 6.49048 31.0073 6.9331ZM17.3604 1.07078L26.0427 2.13315L17.3604 3.19558L8.6781 2.13315L17.3604 1.07078Z" fill="black"/>
<path d="M18.671 19.3501C18.6528 19.3655 18.2241 19.733 17.3603 19.733C16.5091 19.733 16.0803 19.3762 16.0508 19.3506C15.8297 19.1474 15.4731 19.149 15.2525 19.3559C15.0301 19.5645 15.0301 19.9015 15.2525 20.11C15.3275 20.1804 16.0258 20.7997 17.3603 20.7997C18.6949 20.7997 19.3932 20.1805 19.4682 20.11C19.6877 19.9042 19.6871 19.5746 19.4716 19.3655C19.255 19.1565 18.8979 19.1506 18.671 19.3501Z" fill="black"/>
<path d="M8.26233 10.7576C7.60044 10.9778 7.12506 11.5709 7.12506 12.2664V14.3997C7.12506 15.1437 7.66921 15.7709 8.40446 15.949C8.70865 16.7906 9.54912 19.0727 10.0284 19.9713C10.9314 21.6657 13.4919 24.5329 17.3603 24.5329C21.2286 24.5329 23.7891 21.6657 24.6921 19.9713C25.1715 19.0726 26.0119 16.7905 26.316 15.949C27.0513 15.7709 27.5954 15.1437 27.5954 14.3997V12.2664C27.5954 11.571 27.1201 10.9778 26.4582 10.7576V10.1331C26.4582 9.83873 26.204 9.59979 25.8896 9.59979C25.5751 9.59979 25.321 9.83873 25.321 10.1331V11.1998C25.321 11.4941 25.5751 11.7331 25.8896 11.7331C26.2034 11.7331 26.4582 11.9725 26.4582 12.2664V14.3997C26.4582 14.6936 26.2034 14.933 25.8896 14.933C25.6445 14.933 25.4273 15.0797 25.3505 15.2978C25.3386 15.3292 24.219 18.4738 23.6754 19.4946C23.5883 19.6567 21.51 23.4663 17.3603 23.4663C13.2105 23.4663 11.1321 19.6567 11.0452 19.4946C10.501 18.4738 9.38193 15.3293 9.37001 15.2978C9.29264 15.0797 9.07601 14.933 8.83093 14.933C8.51707 14.933 8.26233 14.6936 8.26233 14.3997V12.2664C8.26233 11.9725 8.51707 11.7331 8.83093 11.7331C9.14538 11.7331 9.39953 11.4941 9.39953 11.1998V10.133C9.39953 9.83867 9.14538 9.59973 8.83093 9.59973C8.51647 9.59973 8.26233 9.83867 8.26233 10.133V10.7576Z" fill="black"/>
<path d="M8.83099 3.73315C8.51654 3.73315 8.26239 3.97209 8.26239 4.26646V7.99974C8.26239 8.20186 8.38407 8.38642 8.57684 8.47705C8.72124 8.54423 12.1682 10.133 17.3603 10.133C22.5524 10.133 25.9994 8.54423 26.1438 8.47705C26.3366 8.38636 26.4582 8.20186 26.4582 7.99974V4.26652C26.4582 3.97215 26.2041 3.73322 25.8896 3.73322C25.5752 3.73322 25.321 3.97215 25.321 4.26652V7.65474C24.3806 8.02861 21.4044 9.06648 17.3603 9.06648C13.3163 9.06648 10.3401 8.02861 9.39959 7.65474V4.26652C9.39959 3.97209 9.14544 3.73315 8.83099 3.73315Z" fill="black"/>
</g>
<defs>
<clipPath id="clip0">
<path d="M0.301453 0H34.4191V32H0.301453V0Z" fill="white"/>
</clipPath>
</defs>
</svg>
