<svg width="38" height="39" viewBox="0 0 38 39" fill="none" xmlns="http://www.w3.org/2000/svg">
<circle cx="19" cy="19.3125" r="19" fill="#FFDA15"/>
<path d="M19.1695 17.4465C20.9455 17.4465 22.2535 17.8005 23.0935 18.5085C23.9455 19.2165 24.3715 20.1645 24.3715 21.3525C24.3715 22.1205 24.1795 22.8225 23.7955 23.4585C23.4115 24.0825 22.8235 24.5865 22.0315 24.9705C21.2515 25.3425 20.2855 25.5285 19.1335 25.5285C18.2455 25.5285 17.3695 25.4145 16.5055 25.1865C15.6535 24.9465 14.9275 24.6105 14.3275 24.1785L15.4795 21.9465C15.9595 22.3065 16.5115 22.5885 17.1355 22.7925C17.7595 22.9845 18.4015 23.0805 19.0615 23.0805C19.7935 23.0805 20.3695 22.9365 20.7895 22.6485C21.2095 22.3605 21.4195 21.9585 21.4195 21.4425C21.4195 20.9025 21.1975 20.4945 20.7535 20.2185C20.3215 19.9425 19.5655 19.8045 18.4855 19.8045H15.2635L15.9115 12.7125H23.5975V15.0525H18.3415L18.1435 17.4465H19.1695Z" fill="white"/>
</svg>
