<svg width="38" height="39" viewBox="0 0 38 39" fill="none" xmlns="http://www.w3.org/2000/svg">
<circle cx="19" cy="19.3125" r="19" fill="#FFDA15"/>
<path d="M20.7618 17.8425C21.8658 18.0225 22.7118 18.4365 23.2998 19.0845C23.8878 19.7205 24.1818 20.5125 24.1818 21.4605C24.1818 22.1925 23.9898 22.8705 23.6058 23.4945C23.2218 24.1065 22.6338 24.5985 21.8418 24.9705C21.0618 25.3425 20.1018 25.5285 18.9618 25.5285C18.0738 25.5285 17.1978 25.4145 16.3338 25.1865C15.4818 24.9465 14.7558 24.6105 14.1558 24.1785L15.2898 21.9465C15.7698 22.3065 16.3218 22.5885 16.9458 22.7925C17.5818 22.9845 18.2298 23.0805 18.8898 23.0805C19.6218 23.0805 20.1978 22.9425 20.6178 22.6665C21.0378 22.3785 21.2478 21.9765 21.2478 21.4605C21.2478 20.4285 20.4618 19.9125 18.8898 19.9125H17.5578V17.9865L20.1498 15.0525H14.7858V12.7125H23.6058V14.6025L20.7618 17.8425Z" fill="white"/>
</svg>
