<svg width="38" height="39" viewBox="0 0 38 39" fill="none" xmlns="http://www.w3.org/2000/svg">
<circle cx="19" cy="19.3125" r="19" fill="#FFDA15"/>
<path d="M24.3074 22.9365V25.3125H14.7854V23.4225L19.6454 18.8325C20.1614 18.3405 20.5094 17.9205 20.6894 17.5725C20.8694 17.2125 20.9594 16.8585 20.9594 16.5105C20.9594 16.0065 20.7854 15.6225 20.4374 15.3585C20.1014 15.0825 19.6034 14.9445 18.9434 14.9445C18.3914 14.9445 17.8934 15.0525 17.4494 15.2685C17.0054 15.4725 16.6334 15.7845 16.3334 16.2045L14.2094 14.8365C14.7014 14.1045 15.3794 13.5345 16.2434 13.1265C17.1074 12.7065 18.0974 12.4965 19.2134 12.4965C20.1494 12.4965 20.9654 12.6525 21.6614 12.9645C22.3694 13.2645 22.9154 13.6965 23.2994 14.2605C23.6954 14.8125 23.8934 15.4665 23.8934 16.2225C23.8934 16.9065 23.7494 17.5485 23.4614 18.1485C23.1734 18.7485 22.6154 19.4325 21.7874 20.2005L18.8894 22.9365H24.3074Z" fill="white"/>
</svg>
