<svg width="8" height="47" viewBox="0 0 8 47" fill="none" xmlns="http://www.w3.org/2000/svg">
<path d="M3.80188 0.199219C1.69951 0.199219 0 1.8963 0 3.99567V26.7744C0 28.8737 1.69951 30.5708 3.80188 30.5708C5.90425 30.5708 7.60376 28.87 7.60376 26.7744V3.99567C7.60376 1.8963 5.90443 0.199219 3.80188 0.199219Z" fill="#FFF4E4"/>
<path d="M7.29575 40.8919C7.10572 40.3983 6.83958 39.9807 6.49733 39.6392C6.3073 39.4873 6.11711 39.2974 5.88911 39.1837C5.69909 39.0318 5.47092 38.9216 5.24275 38.8419C5.01458 38.7242 4.78659 38.6522 4.52045 38.6141C3.30758 38.3483 1.97314 38.7696 1.10253 39.6392C0.760273 39.9807 0.494311 40.3985 0.30411 40.8919C0.114087 41.3474 0 41.841 0 42.3346C0 42.8281 0.114087 43.3215 0.30411 43.7772C0.494133 44.2327 0.760273 44.6503 1.10253 45.03C1.48275 45.3715 1.90094 45.6373 2.35711 45.8272C2.81327 46.0169 3.30758 46.1309 3.80189 46.1309C4.2962 46.1309 4.78659 46.0169 5.24275 45.8272C5.69891 45.6375 6.11336 45.3717 6.49733 45.03C6.83958 44.6503 7.10555 44.2327 7.29575 43.7772C7.48577 43.3217 7.59985 42.8281 7.59985 42.3346C7.59985 41.841 7.48577 41.3474 7.29575 40.8919Z" fill="#FFF4E4"/>
</svg>
