<svg width="1140" height="827" viewBox="0 0 1140 827" fill="none" xmlns="http://www.w3.org/2000/svg">
<rect width="1140" height="827" fill="#E5E5E5"/>
<g clip-path="url(#clip0)">
<rect x="-390" y="-2022" width="1920" height="4430" fill="white"/>
<path fill-rule="evenodd" clip-rule="evenodd" d="M0 40.654L63 38.538C127 35.9988 253 30.9205 380 21.6103C411.217 19.2178 441.829 16.1964 472.269 13.1922C565.666 3.97419 657.429 -5.08255 760 4.68251C884.482 11.7341 1008 39.5212 1073.12 54.1699L1077 55.0425L1140 69.8543V80.5532V98.6315V730.578V754.158V788.556L1077 790.672C1013 793.211 887 798.289 760 807.6C737.209 809.346 714.45 811.243 691.712 813.138C587.745 821.802 484.209 830.431 380 824.527C255.519 817.476 131.998 789.689 66.8803 775.04C65.5628 774.744 64.2692 774.453 63 774.167L0 759.355V754.158V730.578V98.6315V80.5532V40.654Z" fill="#FFF4E4"/>
<line x1="56" y1="104" x2="56" y2="205.439" stroke="#FFDA15" stroke-opacity="0.4" stroke-width="8" stroke-linecap="round" stroke-dasharray="1 19"/>
<line x1="81" y1="112.167" x2="81" y2="205.439" stroke="#FFDA15" stroke-opacity="0.4" stroke-width="8" stroke-linecap="round" stroke-dasharray="1 19"/>
<line x1="106" y1="104" x2="106" y2="194.55" stroke="#FFDA15" stroke-opacity="0.4" stroke-width="8" stroke-linecap="round" stroke-dasharray="1 19"/>
<line x1="131" y1="104" x2="131" y2="205.439" stroke="#FFDA15" stroke-opacity="0.4" stroke-width="8" stroke-linecap="round" stroke-dasharray="1 19"/>
<line x1="156" y1="114.89" x2="156" y2="205.44" stroke="#FFDA15" stroke-opacity="0.4" stroke-width="8" stroke-linecap="round" stroke-dasharray="1 19"/>
<rect x="91" y="135" width="313" height="128" fill="#FFF4E4"/>
<line x1="817" y1="658" x2="817" y2="759.439" stroke="#FFDA15" stroke-opacity="0.4" stroke-width="8" stroke-linecap="round" stroke-dasharray="1 19"/>
<line x1="842" y1="666.167" x2="842" y2="759.439" stroke="#FFDA15" stroke-opacity="0.4" stroke-width="8" stroke-linecap="round" stroke-dasharray="1 19"/>
<line x1="867" y1="658" x2="867" y2="748.55" stroke="#FFDA15" stroke-opacity="0.4" stroke-width="8" stroke-linecap="round" stroke-dasharray="1 19"/>
<line x1="892" y1="658" x2="892" y2="759.439" stroke="#FFDA15" stroke-opacity="0.4" stroke-width="8" stroke-linecap="round" stroke-dasharray="1 19"/>
<line x1="917" y1="668.89" x2="917" y2="759.44" stroke="#FFDA15" stroke-opacity="0.4" stroke-width="8" stroke-linecap="round" stroke-dasharray="1 19"/>
<path d="M123.208 162.48V170.768H119.368V166H101.704L101.672 170.768H97.832L97.864 162.48H100.584V153.296C100.584 151.163 100.989 149.349 101.8 147.856C102.632 146.363 103.795 145.232 105.288 144.464C106.781 143.675 108.52 143.28 110.504 143.28C112.509 143.28 114.259 143.664 115.752 144.432C117.245 145.2 118.397 146.341 119.208 147.856C120.04 149.349 120.456 151.163 120.456 153.296V162.48H123.208ZM116.296 162.48V152.912C116.296 150.949 115.784 149.467 114.76 148.464C113.736 147.44 112.317 146.928 110.504 146.928C108.691 146.928 107.272 147.44 106.248 148.464C105.245 149.467 104.744 150.949 104.744 152.912V162.48H116.296ZM142.207 148.912V166H138.207V152.304H131.807L131.647 155.696C131.541 157.957 131.327 159.856 131.007 161.392C130.709 162.907 130.186 164.112 129.439 165.008C128.714 165.883 127.711 166.32 126.431 166.32C125.834 166.32 125.098 166.203 124.223 165.968L124.415 162.608C124.714 162.672 124.97 162.704 125.183 162.704C125.994 162.704 126.602 162.384 127.007 161.744C127.413 161.083 127.669 160.304 127.775 159.408C127.903 158.491 128.01 157.189 128.095 155.504L128.383 148.912H142.207ZM162.026 148.912V166H158.442V160.848H153.93L150.442 166H146.154L150.186 160.304C148.949 159.877 148 159.227 147.338 158.352C146.698 157.456 146.378 156.357 146.378 155.056C146.378 153.093 147.072 151.579 148.458 150.512C149.845 149.445 151.754 148.912 154.186 148.912H162.026ZM154.314 152.272C151.733 152.272 150.442 153.243 150.442 155.184C150.442 157.104 151.69 158.064 154.186 158.064H158.442V152.272H154.314ZM184.027 166.224C182.256 166.224 180.667 165.851 179.259 165.104C177.851 164.357 176.752 163.323 175.963 162C175.173 160.656 174.779 159.141 174.779 157.456C174.779 155.771 175.173 154.267 175.963 152.944C176.752 151.621 177.84 150.587 179.227 149.84C180.635 149.093 182.235 148.72 184.027 148.72C185.712 148.72 187.184 149.061 188.443 149.744C189.723 150.427 190.683 151.408 191.323 152.688L188.251 154.48C187.76 153.691 187.141 153.104 186.395 152.72C185.669 152.315 184.869 152.112 183.995 152.112C182.501 152.112 181.264 152.603 180.283 153.584C179.301 154.544 178.811 155.835 178.811 157.456C178.811 159.077 179.291 160.379 180.251 161.36C181.232 162.32 182.48 162.8 183.995 162.8C184.869 162.8 185.669 162.608 186.395 162.224C187.141 161.819 187.76 161.221 188.251 160.432L191.323 162.224C190.661 163.504 189.691 164.496 188.411 165.2C187.152 165.883 185.691 166.224 184.027 166.224ZM216.412 148.72C218.567 148.72 220.274 149.349 221.532 150.608C222.791 151.845 223.42 153.712 223.42 156.208V166H219.42V156.72C219.42 155.227 219.09 154.107 218.428 153.36C217.767 152.592 216.818 152.208 215.58 152.208C214.236 152.208 213.159 152.656 212.348 153.552C211.538 154.427 211.132 155.685 211.132 157.328V166H207.132V156.72C207.132 155.227 206.802 154.107 206.14 153.36C205.479 152.592 204.53 152.208 203.292 152.208C201.927 152.208 200.839 152.645 200.028 153.52C199.239 154.395 198.844 155.664 198.844 157.328V166H194.844V148.912H198.652V151.088C199.292 150.32 200.092 149.733 201.052 149.328C202.012 148.923 203.079 148.72 204.252 148.72C205.532 148.72 206.663 148.965 207.644 149.456C208.647 149.925 209.436 150.629 210.012 151.568C210.716 150.672 211.623 149.979 212.732 149.488C213.842 148.976 215.068 148.72 216.412 148.72ZM244.824 148.912V163.408C244.824 169.424 241.87 172.432 235.96 172.432C234.403 172.432 232.91 172.219 231.48 171.792C230.072 171.387 228.91 170.789 227.992 170L229.784 166.992C230.51 167.611 231.395 168.101 232.44 168.464C233.486 168.827 234.584 169.008 235.736 169.008C237.486 169.008 238.766 168.581 239.576 167.728C240.408 166.896 240.824 165.605 240.824 163.856V163.056C240.184 163.76 239.406 164.304 238.488 164.688C237.571 165.051 236.579 165.232 235.512 165.232C233.23 165.232 231.427 164.603 230.104 163.344C228.803 162.085 228.152 160.197 228.152 157.68V148.912H232.152V157.168C232.152 158.683 232.494 159.824 233.176 160.592C233.88 161.339 234.872 161.712 236.152 161.712C237.582 161.712 238.712 161.275 239.544 160.4C240.398 159.525 240.824 158.256 240.824 156.592V148.912H244.824ZM266.958 148.912V163.408C266.958 169.424 263.886 172.432 257.742 172.432C256.099 172.432 254.542 172.219 253.07 171.792C251.598 171.387 250.382 170.789 249.422 170L251.214 166.992C251.96 167.611 252.899 168.101 254.03 168.464C255.182 168.848 256.344 169.04 257.518 169.04C259.395 169.04 260.771 168.613 261.646 167.76C262.52 166.907 262.958 165.605 262.958 163.856V162.96C262.275 163.707 261.443 164.272 260.462 164.656C259.48 165.04 258.403 165.232 257.23 165.232C255.608 165.232 254.136 164.891 252.814 164.208C251.512 163.504 250.478 162.523 249.71 161.264C248.963 160.005 248.59 158.565 248.59 156.944C248.59 155.323 248.963 153.893 249.71 152.656C250.478 151.397 251.512 150.427 252.814 149.744C254.136 149.061 255.608 148.72 257.23 148.72C258.467 148.72 259.587 148.923 260.59 149.328C261.614 149.733 262.467 150.352 263.15 151.184V148.912H266.958ZM257.838 161.84C259.352 161.84 260.59 161.392 261.55 160.496C262.531 159.579 263.022 158.395 263.022 156.944C263.022 155.515 262.531 154.352 261.55 153.456C260.59 152.56 259.352 152.112 257.838 152.112C256.302 152.112 255.043 152.56 254.062 153.456C253.102 154.352 252.622 155.515 252.622 156.944C252.622 158.395 253.102 159.579 254.062 160.496C255.043 161.392 256.302 161.84 257.838 161.84ZM280.408 162.832C282.264 162.832 283.811 162.213 285.048 160.976L287.16 163.44C286.414 164.357 285.454 165.051 284.28 165.52C283.107 165.989 281.784 166.224 280.312 166.224C278.435 166.224 276.782 165.851 275.352 165.104C273.923 164.357 272.814 163.323 272.024 162C271.256 160.656 270.872 159.141 270.872 157.456C270.872 155.792 271.246 154.299 271.992 152.976C272.76 151.632 273.806 150.587 275.128 149.84C276.472 149.093 277.987 148.72 279.672 148.72C281.272 148.72 282.723 149.072 284.024 149.776C285.347 150.459 286.392 151.451 287.16 152.752C287.928 154.032 288.312 155.536 288.312 157.264L275.224 159.824C275.63 160.805 276.28 161.552 277.176 162.064C278.072 162.576 279.15 162.832 280.408 162.832ZM279.672 151.92C278.2 151.92 277.006 152.4 276.088 153.36C275.192 154.32 274.744 155.611 274.744 157.232V157.264L284.408 155.408C284.131 154.363 283.566 153.52 282.712 152.88C281.88 152.24 280.867 151.92 279.672 151.92ZM292.219 148.912H296.219V155.856H304.827V148.912H308.827V166H304.827V159.248H296.219V166H292.219V148.912ZM335.756 148.72C337.911 148.72 339.617 149.349 340.876 150.608C342.135 151.845 342.764 153.712 342.764 156.208V166H338.764V156.72C338.764 155.227 338.433 154.107 337.772 153.36C337.111 152.592 336.161 152.208 334.924 152.208C333.58 152.208 332.503 152.656 331.692 153.552C330.881 154.427 330.476 155.685 330.476 157.328V166H326.476V156.72C326.476 155.227 326.145 154.107 325.484 153.36C324.823 152.592 323.873 152.208 322.636 152.208C321.271 152.208 320.183 152.645 319.372 153.52C318.583 154.395 318.188 155.664 318.188 157.328V166H314.188V148.912H317.996V151.088C318.636 150.32 319.436 149.733 320.396 149.328C321.356 148.923 322.423 148.72 323.596 148.72C324.876 148.72 326.007 148.965 326.988 149.456C327.991 149.925 328.78 150.629 329.356 151.568C330.06 150.672 330.967 149.979 332.076 149.488C333.185 148.976 334.412 148.72 335.756 148.72ZM347.688 148.912H351.688V166H347.688V148.912ZM349.704 146.096C348.979 146.096 348.371 145.872 347.88 145.424C347.389 144.955 347.144 144.379 347.144 143.696C347.144 143.013 347.389 142.448 347.88 142C348.371 141.531 348.979 141.296 349.704 141.296C350.429 141.296 351.037 141.52 351.528 141.968C352.019 142.395 352.264 142.939 352.264 143.6C352.264 144.304 352.019 144.901 351.528 145.392C351.059 145.861 350.451 146.096 349.704 146.096ZM369.478 157.104C371.59 157.744 372.646 159.109 372.646 161.2C372.646 162.736 372.07 163.92 370.918 164.752C369.766 165.584 368.06 166 365.798 166H357.094V148.912H365.446C367.537 148.912 369.169 149.296 370.342 150.064C371.516 150.832 372.102 151.92 372.102 153.328C372.102 154.203 371.868 154.96 371.398 155.6C370.95 156.24 370.31 156.741 369.478 157.104ZM360.902 156.048H365.094C367.164 156.048 368.198 155.333 368.198 153.904C368.198 152.517 367.164 151.824 365.094 151.824H360.902V156.048ZM365.478 163.088C367.676 163.088 368.774 162.373 368.774 160.944C368.774 160.197 368.518 159.643 368.006 159.28C367.494 158.896 366.694 158.704 365.606 158.704H360.902V163.088H365.478ZM116.072 187.912V205H112.104V191.304H103.688V205H99.688V187.912H116.072ZM129.917 187.72C131.688 187.72 133.235 188.083 134.557 188.808C135.901 189.533 136.936 190.557 137.661 191.88C138.408 193.203 138.781 194.739 138.781 196.488C138.781 198.216 138.429 199.741 137.725 201.064C137.021 202.387 136.029 203.411 134.749 204.136C133.491 204.861 132.029 205.224 130.365 205.224C127.997 205.224 126.141 204.467 124.797 202.952V211.208H120.765V196.52C120.765 194.792 121.149 193.267 121.917 191.944C122.685 190.6 123.752 189.565 125.117 188.84C126.504 188.093 128.104 187.72 129.917 187.72ZM129.757 201.832C131.251 201.832 132.467 201.341 133.405 200.36C134.344 199.357 134.813 198.067 134.813 196.488C134.813 194.909 134.344 193.619 133.405 192.616C132.467 191.613 131.251 191.112 129.757 191.112C128.243 191.112 127.027 191.603 126.109 192.584C125.192 193.565 124.733 194.856 124.733 196.456C124.733 198.056 125.192 199.357 126.109 200.36C127.048 201.341 128.264 201.832 129.757 201.832ZM158.974 187.912V205H155.166V202.824C154.526 203.592 153.726 204.189 152.766 204.616C151.827 205.021 150.803 205.224 149.694 205.224C147.411 205.224 145.608 204.595 144.286 203.336C142.963 202.056 142.302 200.168 142.302 197.672V187.912H146.302V197.128C146.302 198.664 146.643 199.816 147.326 200.584C148.03 201.331 149.032 201.704 150.334 201.704C151.742 201.704 152.862 201.267 153.694 200.392C154.547 199.496 154.974 198.216 154.974 196.552V187.912H158.974ZM180.835 205.224C179.107 205.224 177.55 204.851 176.163 204.104C174.777 203.357 173.689 202.323 172.899 201C172.131 199.656 171.747 198.141 171.747 196.456C171.747 194.771 172.131 193.267 172.899 191.944C173.689 190.621 174.777 189.587 176.163 188.84C177.55 188.093 179.107 187.72 180.835 187.72C182.585 187.72 184.153 188.093 185.539 188.84C186.926 189.587 188.003 190.621 188.771 191.944C189.561 193.267 189.955 194.771 189.955 196.456C189.955 198.141 189.561 199.656 188.771 201C188.003 202.323 186.926 203.357 185.539 204.104C184.153 204.851 182.585 205.224 180.835 205.224ZM180.835 201.8C182.307 201.8 183.523 201.309 184.483 200.328C185.443 199.347 185.923 198.056 185.923 196.456C185.923 194.856 185.443 193.565 184.483 192.584C183.523 191.603 182.307 191.112 180.835 191.112C179.363 191.112 178.147 191.603 177.187 192.584C176.249 193.565 175.779 194.856 175.779 196.456C175.779 198.056 176.249 199.347 177.187 200.328C178.147 201.309 179.363 201.8 180.835 201.8ZM210.291 187.912V205H206.323V191.304H197.907V205H193.907V187.912H210.291ZM231.176 187.912V205H227.176V191.304H220.776L220.616 194.696C220.509 196.957 220.296 198.856 219.976 200.392C219.677 201.907 219.155 203.112 218.408 204.008C217.683 204.883 216.68 205.32 215.4 205.32C214.803 205.32 214.067 205.203 213.192 204.968L213.384 201.608C213.683 201.672 213.939 201.704 214.152 201.704C214.963 201.704 215.571 201.384 215.976 200.744C216.381 200.083 216.637 199.304 216.744 198.408C216.872 197.491 216.979 196.189 217.064 194.504L217.352 187.912H231.176ZM253.203 187.912V205H249.395V202.792C248.734 203.603 247.912 204.211 246.931 204.616C245.971 205.021 244.904 205.224 243.731 205.224C242.067 205.224 240.574 204.861 239.251 204.136C237.95 203.411 236.926 202.387 236.179 201.064C235.454 199.741 235.091 198.205 235.091 196.456C235.091 194.707 235.454 193.181 236.179 191.88C236.926 190.557 237.95 189.533 239.251 188.808C240.574 188.083 242.067 187.72 243.731 187.72C244.84 187.72 245.854 187.912 246.771 188.296C247.71 188.68 248.52 189.245 249.203 189.992V187.912H253.203ZM244.179 201.8C245.651 201.8 246.867 201.309 247.827 200.328C248.787 199.347 249.267 198.056 249.267 196.456C249.267 194.856 248.787 193.565 247.827 192.584C246.867 191.603 245.651 191.112 244.179 191.112C242.707 191.112 241.491 191.603 240.531 192.584C239.592 193.565 239.123 194.856 239.123 196.456C239.123 198.056 239.592 199.347 240.531 200.328C241.491 201.309 242.707 201.8 244.179 201.8ZM280.069 187.72C282.223 187.72 283.93 188.349 285.189 189.608C286.447 190.845 287.077 192.712 287.077 195.208V205H283.077V195.72C283.077 194.227 282.746 193.107 282.085 192.36C281.423 191.592 280.474 191.208 279.237 191.208C277.893 191.208 276.815 191.656 276.005 192.552C275.194 193.427 274.789 194.685 274.789 196.328V205H270.789V195.72C270.789 194.227 270.458 193.107 269.797 192.36C269.135 191.592 268.186 191.208 266.949 191.208C265.583 191.208 264.495 191.645 263.685 192.52C262.895 193.395 262.501 194.664 262.501 196.328V205H258.501V187.912H262.309V190.088C262.949 189.32 263.749 188.733 264.709 188.328C265.669 187.923 266.735 187.72 267.909 187.72C269.189 187.72 270.319 187.965 271.301 188.456C272.303 188.925 273.093 189.629 273.669 190.568C274.373 189.672 275.279 188.979 276.389 188.488C277.498 187.976 278.725 187.72 280.069 187.72ZM292.001 187.912H296.001V205H292.001V187.912ZM294.016 185.096C293.291 185.096 292.683 184.872 292.193 184.424C291.702 183.955 291.457 183.379 291.457 182.696C291.457 182.013 291.702 181.448 292.193 181C292.683 180.531 293.291 180.296 294.016 180.296C294.742 180.296 295.35 180.52 295.841 180.968C296.331 181.395 296.577 181.939 296.577 182.6C296.577 183.304 296.331 183.901 295.841 184.392C295.371 184.861 294.763 185.096 294.016 185.096ZM320.459 196.104C321.525 196.403 322.347 196.893 322.923 197.576C323.52 198.237 323.819 199.037 323.819 199.976C323.819 201.021 323.467 201.949 322.763 202.76C322.059 203.549 321.088 204.168 319.851 204.616C318.613 205.064 317.205 205.288 315.627 205.288C314.304 205.288 313.013 205.139 311.755 204.84C310.496 204.52 309.355 204.072 308.331 203.496L309.483 200.52C310.315 200.989 311.253 201.352 312.299 201.608C313.344 201.864 314.389 201.992 315.435 201.992C316.779 201.992 317.824 201.789 318.571 201.384C319.339 200.957 319.723 200.381 319.723 199.656C319.723 198.995 319.424 198.483 318.827 198.12C318.251 197.757 317.429 197.576 316.363 197.576H313.035V194.888H316.043C317.045 194.888 317.824 194.717 318.379 194.376C318.955 194.035 319.243 193.555 319.243 192.936C319.243 192.317 318.901 191.827 318.219 191.464C317.536 191.101 316.597 190.92 315.403 190.92C313.696 190.92 311.893 191.336 309.995 192.168L308.971 189.224C311.211 188.179 313.472 187.656 315.755 187.656C317.205 187.656 318.507 187.859 319.659 188.264C320.811 188.648 321.707 189.203 322.347 189.928C323.008 190.632 323.339 191.443 323.339 192.36C323.339 193.192 323.083 193.939 322.571 194.6C322.059 195.24 321.355 195.741 320.459 196.104ZM344.609 187.912V205H340.801V202.792C340.14 203.603 339.319 204.211 338.337 204.616C337.377 205.021 336.311 205.224 335.137 205.224C333.473 205.224 331.98 204.861 330.657 204.136C329.356 203.411 328.332 202.387 327.585 201.064C326.86 199.741 326.497 198.205 326.497 196.456C326.497 194.707 326.86 193.181 327.585 191.88C328.332 190.557 329.356 189.533 330.657 188.808C331.98 188.083 333.473 187.72 335.137 187.72C336.247 187.72 337.26 187.912 338.177 188.296C339.116 188.68 339.927 189.245 340.609 189.992V187.912H344.609ZM335.585 201.8C337.057 201.8 338.273 201.309 339.233 200.328C340.193 199.347 340.673 198.056 340.673 196.456C340.673 194.856 340.193 193.565 339.233 192.584C338.273 191.603 337.057 191.112 335.585 191.112C334.113 191.112 332.897 191.603 331.937 192.584C330.999 193.565 330.529 194.856 330.529 196.456C330.529 198.056 330.999 199.347 331.937 200.328C332.897 201.309 334.113 201.8 335.585 201.8ZM114.632 240.48V244H98.12V241.216L107.016 232.768C108.019 231.808 108.691 230.976 109.032 230.272C109.395 229.547 109.576 228.832 109.576 228.128C109.576 227.083 109.224 226.283 108.52 225.728C107.816 225.173 106.781 224.896 105.416 224.896C103.133 224.896 101.384 225.675 100.168 227.232L97.256 224.992C98.1307 223.819 99.304 222.912 100.776 222.272C102.269 221.611 103.933 221.28 105.768 221.28C108.2 221.28 110.141 221.856 111.592 223.008C113.043 224.16 113.768 225.728 113.768 227.712C113.768 228.928 113.512 230.069 113 231.136C112.488 232.203 111.507 233.419 110.056 234.784L104.072 240.48H114.632ZM143.957 244V232.672L138.197 242.208H136.469L130.805 232.64V244H127.157V226.912H131.349L137.429 237.6L143.797 226.912H147.541L147.573 244H143.957ZM152.938 226.912H156.938V244H152.938V226.912ZM154.954 224.096C154.229 224.096 153.621 223.872 153.13 223.424C152.639 222.955 152.394 222.379 152.394 221.696C152.394 221.013 152.639 220.448 153.13 220C153.621 219.531 154.229 219.296 154.954 219.296C155.679 219.296 156.287 219.52 156.778 219.968C157.269 220.395 157.514 220.939 157.514 221.6C157.514 222.304 157.269 222.901 156.778 223.392C156.309 223.861 155.701 224.096 154.954 224.096ZM170.12 244.224C168.35 244.224 166.76 243.851 165.352 243.104C163.944 242.357 162.846 241.323 162.056 240C161.267 238.656 160.872 237.141 160.872 235.456C160.872 233.771 161.267 232.267 162.056 230.944C162.846 229.621 163.934 228.587 165.32 227.84C166.728 227.093 168.328 226.72 170.12 226.72C171.806 226.72 173.278 227.061 174.536 227.744C175.816 228.427 176.776 229.408 177.416 230.688L174.344 232.48C173.854 231.691 173.235 231.104 172.488 230.72C171.763 230.315 170.963 230.112 170.088 230.112C168.595 230.112 167.358 230.603 166.376 231.584C165.395 232.544 164.904 233.835 164.904 235.456C164.904 237.077 165.384 238.379 166.344 239.36C167.326 240.32 168.574 240.8 170.088 240.8C170.963 240.8 171.763 240.608 172.488 240.224C173.235 239.819 173.854 239.221 174.344 238.432L177.416 240.224C176.755 241.504 175.784 242.496 174.504 243.2C173.246 243.883 171.784 244.224 170.12 244.224ZM194.901 226.912V244H191.317V238.848H186.805L183.317 244H179.029L183.061 238.304C181.824 237.877 180.875 237.227 180.213 236.352C179.573 235.456 179.253 234.357 179.253 233.056C179.253 231.093 179.947 229.579 181.333 228.512C182.72 227.445 184.629 226.912 187.061 226.912H194.901ZM187.189 230.272C184.608 230.272 183.317 231.243 183.317 233.184C183.317 235.104 184.565 236.064 187.061 236.064H191.317V230.272H187.189ZM219.034 240.608V247.936H215.29V244H200.282V226.912H204.282V240.608H212.442V226.912H216.442V240.608H219.034ZM222.594 226.912H226.594V244H222.594V226.912ZM224.61 224.096C223.885 224.096 223.277 223.872 222.786 223.424C222.296 222.955 222.05 222.379 222.05 221.696C222.05 221.013 222.296 220.448 222.786 220C223.277 219.531 223.885 219.296 224.61 219.296C225.336 219.296 225.944 219.52 226.434 219.968C226.925 220.395 227.17 220.939 227.17 221.6C227.17 222.304 226.925 222.901 226.434 223.392C225.965 223.861 225.357 224.096 224.61 224.096Z" fill="#2D3748"/>
<path d="M789.156 177.8V210H783.176V182.814H776.368V177.8H789.156ZM808.976 210.46C806.4 210.46 804.1 209.816 802.076 208.528C800.052 207.209 798.457 205.308 797.292 202.824C796.126 200.309 795.544 197.335 795.544 193.9C795.544 190.465 796.126 187.506 797.292 185.022C798.457 182.507 800.052 180.606 802.076 179.318C804.1 177.999 806.4 177.34 808.976 177.34C811.552 177.34 813.852 177.999 815.876 179.318C817.93 180.606 819.54 182.507 820.706 185.022C821.871 187.506 822.454 190.465 822.454 193.9C822.454 197.335 821.871 200.309 820.706 202.824C819.54 205.308 817.93 207.209 815.876 208.528C813.852 209.816 811.552 210.46 808.976 210.46ZM808.976 205.262C811.276 205.262 813.085 204.311 814.404 202.41C815.753 200.509 816.428 197.672 816.428 193.9C816.428 190.128 815.753 187.291 814.404 185.39C813.085 183.489 811.276 182.538 808.976 182.538C806.706 182.538 804.897 183.489 803.548 185.39C802.229 187.291 801.57 190.128 801.57 193.9C801.57 197.672 802.229 200.509 803.548 202.41C804.897 204.311 806.706 205.262 808.976 205.262ZM833.671 195.142C831.371 195.142 829.515 194.329 828.105 192.704C826.694 191.079 825.989 188.947 825.989 186.31C825.989 183.673 826.694 181.541 828.105 179.916C829.515 178.291 831.371 177.478 833.671 177.478C835.971 177.478 837.826 178.291 839.237 179.916C840.678 181.511 841.399 183.642 841.399 186.31C841.399 188.978 840.678 191.125 839.237 192.75C837.826 194.345 835.971 195.142 833.671 195.142ZM852.991 177.8H857.499L835.511 210H831.003L852.991 177.8ZM833.671 191.922C834.928 191.922 835.894 191.431 836.569 190.45C837.274 189.469 837.627 188.089 837.627 186.31C837.627 184.531 837.274 183.151 836.569 182.17C835.894 181.189 834.928 180.698 833.671 180.698C832.475 180.698 831.509 181.204 830.773 182.216C830.067 183.197 829.715 184.562 829.715 186.31C829.715 188.058 830.067 189.438 830.773 190.45C831.509 191.431 832.475 191.922 833.671 191.922ZM854.785 210.322C852.485 210.322 850.629 209.509 849.219 207.884C847.808 206.259 847.103 204.127 847.103 201.49C847.103 198.853 847.808 196.721 849.219 195.096C850.629 193.471 852.485 192.658 854.785 192.658C857.085 192.658 858.94 193.471 860.351 195.096C861.792 196.721 862.513 198.853 862.513 201.49C862.513 204.127 861.792 206.259 860.351 207.884C858.94 209.509 857.085 210.322 854.785 210.322ZM854.785 207.102C856.011 207.102 856.977 206.611 857.683 205.63C858.388 204.618 858.741 203.238 858.741 201.49C858.741 199.742 858.388 198.377 857.683 197.396C856.977 196.384 856.011 195.878 854.785 195.878C853.558 195.878 852.592 196.369 851.887 197.35C851.181 198.331 850.829 199.711 850.829 201.49C850.829 203.269 851.181 204.649 851.887 205.63C852.592 206.611 853.558 207.102 854.785 207.102Z" fill="#1A202C"/>
<path d="M312.156 417.8V450H306.176V422.814H299.368V417.8H312.156ZM331.976 450.46C329.4 450.46 327.1 449.816 325.076 448.528C323.052 447.209 321.457 445.308 320.292 442.824C319.126 440.309 318.544 437.335 318.544 433.9C318.544 430.465 319.126 427.506 320.292 425.022C321.457 422.507 323.052 420.606 325.076 419.318C327.1 417.999 329.4 417.34 331.976 417.34C334.552 417.34 336.852 417.999 338.876 419.318C340.93 420.606 342.54 422.507 343.706 425.022C344.871 427.506 345.454 430.465 345.454 433.9C345.454 437.335 344.871 440.309 343.706 442.824C342.54 445.308 340.93 447.209 338.876 448.528C336.852 449.816 334.552 450.46 331.976 450.46ZM331.976 445.262C334.276 445.262 336.085 444.311 337.404 442.41C338.753 440.509 339.428 437.672 339.428 433.9C339.428 430.128 338.753 427.291 337.404 425.39C336.085 423.489 334.276 422.538 331.976 422.538C329.706 422.538 327.897 423.489 326.548 425.39C325.229 427.291 324.57 430.128 324.57 433.9C324.57 437.672 325.229 440.509 326.548 442.41C327.897 444.311 329.706 445.262 331.976 445.262ZM356.671 435.142C354.371 435.142 352.515 434.329 351.105 432.704C349.694 431.079 348.989 428.947 348.989 426.31C348.989 423.673 349.694 421.541 351.105 419.916C352.515 418.291 354.371 417.478 356.671 417.478C358.971 417.478 360.826 418.291 362.237 419.916C363.678 421.511 364.399 423.642 364.399 426.31C364.399 428.978 363.678 431.125 362.237 432.75C360.826 434.345 358.971 435.142 356.671 435.142ZM375.991 417.8H380.499L358.511 450H354.003L375.991 417.8ZM356.671 431.922C357.928 431.922 358.894 431.431 359.569 430.45C360.274 429.469 360.627 428.089 360.627 426.31C360.627 424.531 360.274 423.151 359.569 422.17C358.894 421.189 357.928 420.698 356.671 420.698C355.475 420.698 354.509 421.204 353.773 422.216C353.067 423.197 352.715 424.562 352.715 426.31C352.715 428.058 353.067 429.438 353.773 430.45C354.509 431.431 355.475 431.922 356.671 431.922ZM377.785 450.322C375.485 450.322 373.629 449.509 372.219 447.884C370.808 446.259 370.103 444.127 370.103 441.49C370.103 438.853 370.808 436.721 372.219 435.096C373.629 433.471 375.485 432.658 377.785 432.658C380.085 432.658 381.94 433.471 383.351 435.096C384.792 436.721 385.513 438.853 385.513 441.49C385.513 444.127 384.792 446.259 383.351 447.884C381.94 449.509 380.085 450.322 377.785 450.322ZM377.785 447.102C379.011 447.102 379.977 446.611 380.683 445.63C381.388 444.618 381.741 443.238 381.741 441.49C381.741 439.742 381.388 438.377 380.683 437.396C379.977 436.384 379.011 435.878 377.785 435.878C376.558 435.878 375.592 436.369 374.887 437.35C374.181 438.331 373.829 439.711 373.829 441.49C373.829 443.269 374.181 444.649 374.887 445.63C375.592 446.611 376.558 447.102 377.785 447.102Z" fill="#1A202C"/>
<path d="M810.476 388.6V411H806.38V392.12H794.764V411H790.668V388.6H810.476ZM824.792 393.72C826.563 393.72 828.11 394.083 829.432 394.808C830.776 395.533 831.811 396.557 832.536 397.88C833.283 399.203 833.656 400.739 833.656 402.488C833.656 404.216 833.304 405.741 832.6 407.064C831.896 408.387 830.904 409.411 829.624 410.136C828.366 410.861 826.904 411.224 825.24 411.224C822.872 411.224 821.016 410.467 819.672 408.952V417.208H815.64V402.52C815.64 400.792 816.024 399.267 816.792 397.944C817.56 396.6 818.627 395.565 819.992 394.84C821.379 394.093 822.979 393.72 824.792 393.72ZM824.632 407.832C826.126 407.832 827.342 407.341 828.28 406.36C829.219 405.357 829.688 404.067 829.688 402.488C829.688 400.909 829.219 399.619 828.28 398.616C827.342 397.613 826.126 397.112 824.632 397.112C823.118 397.112 821.902 397.603 820.984 398.584C820.067 399.565 819.608 400.856 819.608 402.456C819.608 404.056 820.067 405.357 820.984 406.36C821.923 407.341 823.139 407.832 824.632 407.832ZM853.849 393.912V411H850.041V408.824C849.401 409.592 848.601 410.189 847.641 410.616C846.702 411.021 845.678 411.224 844.569 411.224C842.286 411.224 840.483 410.595 839.161 409.336C837.838 408.056 837.177 406.168 837.177 403.672V393.912H841.177V403.128C841.177 404.664 841.518 405.816 842.201 406.584C842.905 407.331 843.907 407.704 845.209 407.704C846.617 407.704 847.737 407.267 848.569 406.392C849.422 405.496 849.849 404.216 849.849 402.552V393.912H853.849ZM871.635 402.104C873.747 402.744 874.803 404.109 874.803 406.2C874.803 407.736 874.227 408.92 873.075 409.752C871.923 410.584 870.216 411 867.955 411H859.251V393.912H867.603C869.693 393.912 871.325 394.296 872.499 395.064C873.672 395.832 874.259 396.92 874.259 398.328C874.259 399.203 874.024 399.96 873.555 400.6C873.107 401.24 872.467 401.741 871.635 402.104ZM863.059 401.048H867.251C869.32 401.048 870.355 400.333 870.355 398.904C870.355 397.517 869.32 396.824 867.251 396.824H863.059V401.048ZM867.635 408.088C869.832 408.088 870.931 407.373 870.931 405.944C870.931 405.197 870.675 404.643 870.163 404.28C869.651 403.896 868.851 403.704 867.763 403.704H863.059V408.088H867.635ZM895.255 393.912V411H891.447V408.824C890.807 409.592 890.007 410.189 889.047 410.616C888.108 411.021 887.084 411.224 885.975 411.224C883.692 411.224 881.89 410.595 880.567 409.336C879.244 408.056 878.583 406.168 878.583 403.672V393.912H882.583V403.128C882.583 404.664 882.924 405.816 883.607 406.584C884.311 407.331 885.314 407.704 886.615 407.704C888.023 407.704 889.143 407.267 889.975 406.392C890.828 405.496 891.255 404.216 891.255 402.552V393.912H895.255ZM917.489 393.912V408.408C917.489 414.424 914.417 417.432 908.273 417.432C906.63 417.432 905.073 417.219 903.601 416.792C902.129 416.387 900.913 415.789 899.953 415L901.745 411.992C902.491 412.611 903.43 413.101 904.561 413.464C905.713 413.848 906.875 414.04 908.049 414.04C909.926 414.04 911.302 413.613 912.177 412.76C913.051 411.907 913.489 410.605 913.489 408.856V407.96C912.806 408.707 911.974 409.272 910.993 409.656C910.011 410.04 908.934 410.232 907.761 410.232C906.139 410.232 904.667 409.891 903.345 409.208C902.043 408.504 901.009 407.523 900.241 406.264C899.494 405.005 899.121 403.565 899.121 401.944C899.121 400.323 899.494 398.893 900.241 397.656C901.009 396.397 902.043 395.427 903.345 394.744C904.667 394.061 906.139 393.72 907.761 393.72C908.998 393.72 910.118 393.923 911.121 394.328C912.145 394.733 912.998 395.352 913.681 396.184V393.912H917.489ZM908.369 406.84C909.883 406.84 911.121 406.392 912.081 405.496C913.062 404.579 913.553 403.395 913.553 401.944C913.553 400.515 913.062 399.352 912.081 398.456C911.121 397.56 909.883 397.112 908.369 397.112C906.833 397.112 905.574 397.56 904.593 398.456C903.633 399.352 903.153 400.515 903.153 401.944C903.153 403.395 903.633 404.579 904.593 405.496C905.574 406.392 906.833 406.84 908.369 406.84ZM939.068 393.912V411H935.26V408.824C934.62 409.592 933.82 410.189 932.86 410.616C931.921 411.021 930.897 411.224 929.788 411.224C927.505 411.224 925.702 410.595 924.38 409.336C923.057 408.056 922.396 406.168 922.396 403.672V393.912H926.396V403.128C926.396 404.664 926.737 405.816 927.42 406.584C928.124 407.331 929.126 407.704 930.428 407.704C931.836 407.704 932.956 407.267 933.788 406.392C934.641 405.496 935.068 404.216 935.068 402.552V393.912H939.068ZM970.145 393.912V408.408C970.145 414.424 967.073 417.432 960.929 417.432C959.286 417.432 957.729 417.219 956.257 416.792C954.785 416.387 953.569 415.789 952.609 415L954.401 411.992C955.148 412.611 956.086 413.101 957.217 413.464C958.369 413.848 959.532 414.04 960.705 414.04C962.582 414.04 963.958 413.613 964.833 412.76C965.708 411.907 966.145 410.605 966.145 408.856V407.96C965.462 408.707 964.63 409.272 963.649 409.656C962.668 410.04 961.59 410.232 960.417 410.232C958.796 410.232 957.324 409.891 956.001 409.208C954.7 408.504 953.665 407.523 952.897 406.264C952.15 405.005 951.777 403.565 951.777 401.944C951.777 400.323 952.15 398.893 952.897 397.656C953.665 396.397 954.7 395.427 956.001 394.744C957.324 394.061 958.796 393.72 960.417 393.72C961.654 393.72 962.774 393.923 963.777 394.328C964.801 394.733 965.654 395.352 966.337 396.184V393.912H970.145ZM961.025 406.84C962.54 406.84 963.777 406.392 964.737 405.496C965.718 404.579 966.209 403.395 966.209 401.944C966.209 400.515 965.718 399.352 964.737 398.456C963.777 397.56 962.54 397.112 961.025 397.112C959.489 397.112 958.23 397.56 957.249 398.456C956.289 399.352 955.809 400.515 955.809 401.944C955.809 403.395 956.289 404.579 957.249 405.496C958.23 406.392 959.489 406.84 961.025 406.84ZM983.98 393.72C985.75 393.72 987.297 394.083 988.62 394.808C989.964 395.533 990.998 396.557 991.724 397.88C992.47 399.203 992.844 400.739 992.844 402.488C992.844 404.216 992.492 405.741 991.788 407.064C991.084 408.387 990.092 409.411 988.812 410.136C987.553 410.861 986.092 411.224 984.428 411.224C982.06 411.224 980.204 410.467 978.86 408.952V417.208H974.828V402.52C974.828 400.792 975.212 399.267 975.98 397.944C976.748 396.6 977.814 395.565 979.18 394.84C980.566 394.093 982.166 393.72 983.98 393.72ZM983.82 407.832C985.313 407.832 986.529 407.341 987.468 406.36C988.406 405.357 988.876 404.067 988.876 402.488C988.876 400.909 988.406 399.619 987.468 398.616C986.529 397.613 985.313 397.112 983.82 397.112C982.305 397.112 981.089 397.603 980.172 398.584C979.254 399.565 978.796 400.856 978.796 402.456C978.796 404.056 979.254 405.357 980.172 406.36C981.11 407.341 982.326 407.832 983.82 407.832ZM1013.32 393.912V408.408C1013.32 414.424 1010.37 417.432 1004.46 417.432C1002.9 417.432 1001.41 417.219 999.98 416.792C998.572 416.387 997.41 415.789 996.492 415L998.284 411.992C999.01 412.611 999.895 413.101 1000.94 413.464C1001.99 413.827 1003.08 414.008 1004.24 414.008C1005.99 414.008 1007.27 413.581 1008.08 412.728C1008.91 411.896 1009.32 410.605 1009.32 408.856V408.056C1008.68 408.76 1007.91 409.304 1006.99 409.688C1006.07 410.051 1005.08 410.232 1004.01 410.232C1001.73 410.232 999.927 409.603 998.604 408.344C997.303 407.085 996.652 405.197 996.652 402.68V393.912H1000.65V402.168C1000.65 403.683 1000.99 404.824 1001.68 405.592C1002.38 406.339 1003.37 406.712 1004.65 406.712C1006.08 406.712 1007.21 406.275 1008.04 405.4C1008.9 404.525 1009.32 403.256 1009.32 401.592V393.912H1013.32ZM1031.75 397.304H1022.63V411H1018.63V393.912H1031.75V397.304ZM1050.55 393.912V411H1046.74V408.792C1046.08 409.603 1045.26 410.211 1044.27 410.616C1043.31 411.021 1042.25 411.224 1041.07 411.224C1039.41 411.224 1037.92 410.861 1036.59 410.136C1035.29 409.411 1034.27 408.387 1033.52 407.064C1032.8 405.741 1032.43 404.205 1032.43 402.456C1032.43 400.707 1032.8 399.181 1033.52 397.88C1034.27 396.557 1035.29 395.533 1036.59 394.808C1037.92 394.083 1039.41 393.72 1041.07 393.72C1042.18 393.72 1043.2 393.912 1044.11 394.296C1045.05 394.68 1045.86 395.245 1046.55 395.992V393.912H1050.55ZM1041.52 407.8C1042.99 407.8 1044.21 407.309 1045.17 406.328C1046.13 405.347 1046.61 404.056 1046.61 402.456C1046.61 400.856 1046.13 399.565 1045.17 398.584C1044.21 397.603 1042.99 397.112 1041.52 397.112C1040.05 397.112 1038.83 397.603 1037.87 398.584C1036.94 399.565 1036.47 400.856 1036.47 402.456C1036.47 404.056 1036.94 405.347 1037.87 406.328C1038.83 407.309 1040.05 407.8 1041.52 407.8ZM790.907 432.912H794.907V439.856H803.515V432.912H807.515V450H803.515V443.248H794.907V450H790.907V432.912ZM829.516 432.912V450H825.708V447.792C825.046 448.603 824.225 449.211 823.244 449.616C822.284 450.021 821.217 450.224 820.044 450.224C818.38 450.224 816.886 449.861 815.564 449.136C814.262 448.411 813.238 447.387 812.492 446.064C811.766 444.741 811.404 443.205 811.404 441.456C811.404 439.707 811.766 438.181 812.492 436.88C813.238 435.557 814.262 434.533 815.564 433.808C816.886 433.083 818.38 432.72 820.044 432.72C821.153 432.72 822.166 432.912 823.084 433.296C824.022 433.68 824.833 434.245 825.516 434.992V432.912H829.516ZM820.492 446.8C821.964 446.8 823.18 446.309 824.14 445.328C825.1 444.347 825.58 443.056 825.58 441.456C825.58 439.856 825.1 438.565 824.14 437.584C823.18 436.603 821.964 436.112 820.492 436.112C819.02 436.112 817.804 436.603 816.844 437.584C815.905 438.565 815.436 439.856 815.436 441.456C815.436 443.056 815.905 444.347 816.844 445.328C817.804 446.309 819.02 446.8 820.492 446.8ZM843.657 432.912H847.657V439.856H856.265V432.912H860.265V450H856.265V443.248H847.657V450H843.657V432.912ZM882.266 432.912V450H878.458V447.792C877.796 448.603 876.975 449.211 875.994 449.616C875.034 450.021 873.967 450.224 872.794 450.224C871.13 450.224 869.636 449.861 868.314 449.136C867.012 448.411 865.988 447.387 865.242 446.064C864.516 444.741 864.154 443.205 864.154 441.456C864.154 439.707 864.516 438.181 865.242 436.88C865.988 435.557 867.012 434.533 868.314 433.808C869.636 433.083 871.13 432.72 872.794 432.72C873.903 432.72 874.916 432.912 875.834 433.296C876.772 433.68 877.583 434.245 878.266 434.992V432.912H882.266ZM873.242 446.8C874.714 446.8 875.93 446.309 876.89 445.328C877.85 444.347 878.33 443.056 878.33 441.456C878.33 439.856 877.85 438.565 876.89 437.584C875.93 436.603 874.714 436.112 873.242 436.112C871.77 436.112 870.554 436.603 869.594 437.584C868.655 438.565 868.186 439.856 868.186 441.456C868.186 443.056 868.655 444.347 869.594 445.328C870.554 446.309 871.77 446.8 873.242 446.8ZM899.947 441.104C902.059 441.744 903.115 443.109 903.115 445.2C903.115 446.736 902.539 447.92 901.387 448.752C900.235 449.584 898.528 450 896.267 450H887.563V432.912H895.915C898.006 432.912 899.638 433.296 900.811 434.064C901.984 434.832 902.571 435.92 902.571 437.328C902.571 438.203 902.336 438.96 901.867 439.6C901.419 440.24 900.779 440.741 899.947 441.104ZM891.371 440.048H895.563C897.632 440.048 898.667 439.333 898.667 437.904C898.667 436.517 897.632 435.824 895.563 435.824H891.371V440.048ZM895.947 447.088C898.144 447.088 899.243 446.373 899.243 444.944C899.243 444.197 898.987 443.643 898.475 443.28C897.963 442.896 897.163 442.704 896.075 442.704H891.371V447.088H895.947ZM921.872 432.912V450H917.872V443.376C916.229 444.165 914.512 444.56 912.72 444.56C910.522 444.56 908.837 444.059 907.664 443.056C906.49 442.032 905.904 440.475 905.904 438.384V432.912H909.904V438.128C909.904 439.216 910.224 440.027 910.864 440.56C911.504 441.093 912.41 441.36 913.584 441.36C915.077 441.36 916.506 441.04 917.872 440.4V432.912H921.872ZM943.891 432.912V450H940.083V447.792C939.421 448.603 938.6 449.211 937.619 449.616C936.659 450.021 935.592 450.224 934.419 450.224C932.755 450.224 931.261 449.861 929.939 449.136C928.637 448.411 927.613 447.387 926.867 446.064C926.141 444.741 925.779 443.205 925.779 441.456C925.779 439.707 926.141 438.181 926.867 436.88C927.613 435.557 928.637 434.533 929.939 433.808C931.261 433.083 932.755 432.72 934.419 432.72C935.528 432.72 936.541 432.912 937.459 433.296C938.397 433.68 939.208 434.245 939.891 434.992V432.912H943.891ZM934.867 446.8C936.339 446.8 937.555 446.309 938.515 445.328C939.475 444.347 939.955 443.056 939.955 441.456C939.955 439.856 939.475 438.565 938.515 437.584C937.555 436.603 936.339 436.112 934.867 436.112C933.395 436.112 932.179 436.603 931.219 437.584C930.28 438.565 929.811 439.856 929.811 441.456C929.811 443.056 930.28 444.347 931.219 445.328C932.179 446.309 933.395 446.8 934.867 446.8ZM949.188 432.912H953.188V439.856H961.796V432.912H965.796V450H961.796V443.248H953.188V450H949.188V432.912ZM971.157 432.912H975.157V439.856H983.765V432.912H987.765V450H983.765V443.248H975.157V450H971.157V432.912ZM1007.56 432.912V450H1003.97V444.848H999.462L995.974 450H991.686L995.718 444.304C994.48 443.877 993.531 443.227 992.87 442.352C992.23 441.456 991.91 440.357 991.91 439.056C991.91 437.093 992.603 435.579 993.99 434.512C995.376 433.445 997.286 432.912 999.718 432.912H1007.56ZM999.845 436.272C997.264 436.272 995.974 437.243 995.974 439.184C995.974 441.104 997.222 442.064 999.718 442.064H1003.97V436.272H999.845ZM1038.61 432.912V447.408C1038.61 453.424 1035.54 456.432 1029.4 456.432C1027.76 456.432 1026.2 456.219 1024.73 455.792C1023.25 455.387 1022.04 454.789 1021.08 454L1022.87 450.992C1023.62 451.611 1024.56 452.101 1025.69 452.464C1026.84 452.848 1028 453.04 1029.17 453.04C1031.05 453.04 1032.43 452.613 1033.3 451.76C1034.18 450.907 1034.61 449.605 1034.61 447.856V446.96C1033.93 447.707 1033.1 448.272 1032.12 448.656C1031.14 449.04 1030.06 449.232 1028.89 449.232C1027.26 449.232 1025.79 448.891 1024.47 448.208C1023.17 447.504 1022.13 446.523 1021.37 445.264C1020.62 444.005 1020.25 442.565 1020.25 440.944C1020.25 439.323 1020.62 437.893 1021.37 436.656C1022.13 435.397 1023.17 434.427 1024.47 433.744C1025.79 433.061 1027.26 432.72 1028.89 432.72C1030.12 432.72 1031.24 432.923 1032.25 433.328C1033.27 433.733 1034.12 434.352 1034.81 435.184V432.912H1038.61ZM1029.49 445.84C1031.01 445.84 1032.25 445.392 1033.21 444.496C1034.19 443.579 1034.68 442.395 1034.68 440.944C1034.68 439.515 1034.19 438.352 1033.21 437.456C1032.25 436.56 1031.01 436.112 1029.49 436.112C1027.96 436.112 1026.7 436.56 1025.72 437.456C1024.76 438.352 1024.28 439.515 1024.28 440.944C1024.28 442.395 1024.76 443.579 1025.72 444.496C1026.7 445.392 1027.96 445.84 1029.49 445.84ZM1051.62 450.224C1049.89 450.224 1048.33 449.851 1046.94 449.104C1045.56 448.357 1044.47 447.323 1043.68 446C1042.91 444.656 1042.53 443.141 1042.53 441.456C1042.53 439.771 1042.91 438.267 1043.68 436.944C1044.47 435.621 1045.56 434.587 1046.94 433.84C1048.33 433.093 1049.89 432.72 1051.62 432.72C1053.37 432.72 1054.93 433.093 1056.32 433.84C1057.71 434.587 1058.78 435.621 1059.55 436.944C1060.34 438.267 1060.74 439.771 1060.74 441.456C1060.74 443.141 1060.34 444.656 1059.55 446C1058.78 447.323 1057.71 448.357 1056.32 449.104C1054.93 449.851 1053.37 450.224 1051.62 450.224ZM1051.62 446.8C1053.09 446.8 1054.3 446.309 1055.26 445.328C1056.22 444.347 1056.7 443.056 1056.7 441.456C1056.7 439.856 1056.22 438.565 1055.26 437.584C1054.3 436.603 1053.09 436.112 1051.62 436.112C1050.14 436.112 1048.93 436.603 1047.97 437.584C1047.03 438.565 1046.56 439.856 1046.56 441.456C1046.56 443.056 1047.03 444.347 1047.97 445.328C1048.93 446.309 1050.14 446.8 1051.62 446.8ZM1002.19 471.912H1006.19V478.856H1014.8V471.912H1018.8V489H1014.8V482.248H1006.19V489H1002.19V471.912ZM1040.8 471.912V489H1036.99V486.792C1036.33 487.603 1035.51 488.211 1034.52 488.616C1033.56 489.021 1032.5 489.224 1031.32 489.224C1029.66 489.224 1028.17 488.861 1026.84 488.136C1025.54 487.411 1024.52 486.387 1023.77 485.064C1023.05 483.741 1022.68 482.205 1022.68 480.456C1022.68 478.707 1023.05 477.181 1023.77 475.88C1024.52 474.557 1025.54 473.533 1026.84 472.808C1028.17 472.083 1029.66 471.72 1031.32 471.72C1032.43 471.72 1033.45 471.912 1034.36 472.296C1035.3 472.68 1036.11 473.245 1036.8 473.992V471.912H1040.8ZM1031.77 485.8C1033.24 485.8 1034.46 485.309 1035.42 484.328C1036.38 483.347 1036.86 482.056 1036.86 480.456C1036.86 478.856 1036.38 477.565 1035.42 476.584C1034.46 475.603 1033.24 475.112 1031.77 475.112C1030.3 475.112 1029.08 475.603 1028.12 476.584C1027.19 477.565 1026.72 478.856 1026.72 480.456C1026.72 482.056 1027.19 483.347 1028.12 484.328C1029.08 485.309 1030.3 485.8 1031.77 485.8ZM1053.87 489.224C1052.1 489.224 1050.51 488.851 1049.1 488.104C1047.69 487.357 1046.6 486.323 1045.81 485C1045.02 483.656 1044.62 482.141 1044.62 480.456C1044.62 478.771 1045.02 477.267 1045.81 475.944C1046.6 474.621 1047.68 473.587 1049.07 472.84C1050.48 472.093 1052.08 471.72 1053.87 471.72C1055.56 471.72 1057.03 472.061 1058.29 472.744C1059.57 473.427 1060.53 474.408 1061.17 475.688L1058.09 477.48C1057.6 476.691 1056.98 476.104 1056.24 475.72C1055.51 475.315 1054.71 475.112 1053.84 475.112C1052.34 475.112 1051.11 475.603 1050.13 476.584C1049.14 477.544 1048.65 478.835 1048.65 480.456C1048.65 482.077 1049.13 483.379 1050.09 484.36C1051.08 485.32 1052.32 485.8 1053.84 485.8C1054.71 485.8 1055.51 485.608 1056.24 485.224C1056.98 484.819 1057.6 484.221 1058.09 483.432L1061.17 485.224C1060.5 486.504 1059.53 487.496 1058.25 488.2C1057 488.883 1055.53 489.224 1053.87 489.224Z" fill="#2D3748"/>
<rect x="752" y="652" width="121" height="69" fill="#FFF4E4"/>
<path d="M801.346 695.94V701H777.61V696.998L790.398 684.854C791.839 683.474 792.805 682.278 793.296 681.266C793.817 680.223 794.078 679.196 794.078 678.184C794.078 676.681 793.572 675.531 792.56 674.734C791.548 673.937 790.061 673.538 788.098 673.538C784.817 673.538 782.302 674.657 780.554 676.896L776.368 673.676C777.625 671.989 779.312 670.686 781.428 669.766C783.575 668.815 785.967 668.34 788.604 668.34C792.1 668.34 794.891 669.168 796.976 670.824C799.061 672.48 800.104 674.734 800.104 677.586C800.104 679.334 799.736 680.975 799 682.508C798.264 684.041 796.853 685.789 794.768 687.752L786.166 695.94H801.346ZM818.095 701.46C815.519 701.46 813.219 700.816 811.195 699.528C809.171 698.209 807.576 696.308 806.411 693.824C805.245 691.309 804.663 688.335 804.663 684.9C804.663 681.465 805.245 678.506 806.411 676.022C807.576 673.507 809.171 671.606 811.195 670.318C813.219 668.999 815.519 668.34 818.095 668.34C820.671 668.34 822.971 668.999 824.995 670.318C827.049 671.606 828.659 673.507 829.825 676.022C830.99 678.506 831.573 681.465 831.573 684.9C831.573 688.335 830.99 691.309 829.825 693.824C828.659 696.308 827.049 698.209 824.995 699.528C822.971 700.816 820.671 701.46 818.095 701.46ZM818.095 696.262C820.395 696.262 822.204 695.311 823.523 693.41C824.872 691.509 825.547 688.672 825.547 684.9C825.547 681.128 824.872 678.291 823.523 676.39C822.204 674.489 820.395 673.538 818.095 673.538C815.825 673.538 814.016 674.489 812.667 676.39C811.348 678.291 810.689 681.128 810.689 684.9C810.689 688.672 811.348 691.509 812.667 693.41C814.016 695.311 815.825 696.262 818.095 696.262ZM842.79 686.142C840.49 686.142 838.635 685.329 837.224 683.704C835.813 682.079 835.108 679.947 835.108 677.31C835.108 674.673 835.813 672.541 837.224 670.916C838.635 669.291 840.49 668.478 842.79 668.478C845.09 668.478 846.945 669.291 848.356 670.916C849.797 672.511 850.518 674.642 850.518 677.31C850.518 679.978 849.797 682.125 848.356 683.75C846.945 685.345 845.09 686.142 842.79 686.142ZM862.11 668.8H866.618L844.63 701H840.122L862.11 668.8ZM842.79 682.922C844.047 682.922 845.013 682.431 845.688 681.45C846.393 680.469 846.746 679.089 846.746 677.31C846.746 675.531 846.393 674.151 845.688 673.17C845.013 672.189 844.047 671.698 842.79 671.698C841.594 671.698 840.628 672.204 839.892 673.216C839.187 674.197 838.834 675.562 838.834 677.31C838.834 679.058 839.187 680.438 839.892 681.45C840.628 682.431 841.594 682.922 842.79 682.922ZM863.904 701.322C861.604 701.322 859.749 700.509 858.338 698.884C856.927 697.259 856.222 695.127 856.222 692.49C856.222 689.853 856.927 687.721 858.338 686.096C859.749 684.471 861.604 683.658 863.904 683.658C866.204 683.658 868.059 684.471 869.47 686.096C870.911 687.721 871.632 689.853 871.632 692.49C871.632 695.127 870.911 697.259 869.47 698.884C868.059 700.509 866.204 701.322 863.904 701.322ZM863.904 698.102C865.131 698.102 866.097 697.611 866.802 696.63C867.507 695.618 867.86 694.238 867.86 692.49C867.86 690.742 867.507 689.377 866.802 688.396C866.097 687.384 865.131 686.878 863.904 686.878C862.677 686.878 861.711 687.369 861.006 688.35C860.301 689.331 859.948 690.711 859.948 692.49C859.948 694.269 860.301 695.649 861.006 696.63C861.711 697.611 862.677 698.102 863.904 698.102Z" fill="#1A202C"/>
<path d="M114.888 645.352C116.317 645.736 117.405 646.397 118.152 647.336C118.899 648.253 119.272 649.405 119.272 650.792C119.272 652.755 118.547 654.28 117.096 655.368C115.645 656.456 113.544 657 110.792 657H100.168V634.6H110.184C112.701 634.6 114.664 635.101 116.072 636.104C117.48 637.107 118.184 638.525 118.184 640.36C118.184 641.533 117.896 642.547 117.32 643.4C116.765 644.253 115.955 644.904 114.888 645.352ZM104.264 644.168H109.832C111.176 644.168 112.2 643.901 112.904 643.368C113.608 642.835 113.96 642.045 113.96 641C113.96 639.955 113.608 639.165 112.904 638.632C112.2 638.077 111.176 637.8 109.832 637.8H104.264V644.168ZM110.664 653.8C113.608 653.8 115.08 652.691 115.08 650.472C115.08 648.296 113.608 647.208 110.664 647.208H104.264V653.8H110.664ZM139.755 639.912V657H135.947V654.824C135.307 655.592 134.507 656.189 133.547 656.616C132.608 657.021 131.584 657.224 130.475 657.224C128.192 657.224 126.39 656.595 125.067 655.336C123.744 654.056 123.083 652.168 123.083 649.672V639.912H127.083V649.128C127.083 650.664 127.424 651.816 128.107 652.584C128.811 653.331 129.814 653.704 131.115 653.704C132.523 653.704 133.643 653.267 134.475 652.392C135.328 651.496 135.755 650.216 135.755 648.552V639.912H139.755ZM157.541 648.104C159.653 648.744 160.709 650.109 160.709 652.2C160.709 653.736 160.133 654.92 158.981 655.752C157.829 656.584 156.122 657 153.861 657H145.157V639.912H153.509C155.599 639.912 157.231 640.296 158.405 641.064C159.578 641.832 160.165 642.92 160.165 644.328C160.165 645.203 159.93 645.96 159.461 646.6C159.013 647.24 158.373 647.741 157.541 648.104ZM148.965 647.048H153.157C155.226 647.048 156.261 646.333 156.261 644.904C156.261 643.517 155.226 642.824 153.157 642.824H148.965V647.048ZM153.541 654.088C155.738 654.088 156.837 653.373 156.837 651.944C156.837 651.197 156.581 650.643 156.069 650.28C155.557 649.896 154.757 649.704 153.669 649.704H148.965V654.088H153.541ZM179.465 639.912V657H175.465V650.376C173.823 651.165 172.105 651.56 170.313 651.56C168.116 651.56 166.431 651.059 165.257 650.056C164.084 649.032 163.497 647.475 163.497 645.384V639.912H167.497V645.128C167.497 646.216 167.817 647.027 168.457 647.56C169.097 648.093 170.004 648.36 171.177 648.36C172.671 648.36 174.1 648.04 175.465 647.4V639.912H179.465ZM201.484 639.912V657H197.676V654.792C197.015 655.603 196.194 656.211 195.212 656.616C194.252 657.021 193.186 657.224 192.012 657.224C190.348 657.224 188.855 656.861 187.532 656.136C186.231 655.411 185.207 654.387 184.46 653.064C183.735 651.741 183.372 650.205 183.372 648.456C183.372 646.707 183.735 645.181 184.46 643.88C185.207 642.557 186.231 641.533 187.532 640.808C188.855 640.083 190.348 639.72 192.012 639.72C193.122 639.72 194.135 639.912 195.052 640.296C195.991 640.68 196.802 641.245 197.484 641.992V639.912H201.484ZM192.46 653.8C193.932 653.8 195.148 653.309 196.108 652.328C197.068 651.347 197.548 650.056 197.548 648.456C197.548 646.856 197.068 645.565 196.108 644.584C195.148 643.603 193.932 643.112 192.46 643.112C190.988 643.112 189.772 643.603 188.812 644.584C187.874 645.565 187.404 646.856 187.404 648.456C187.404 650.056 187.874 651.347 188.812 652.328C189.772 653.309 190.988 653.8 192.46 653.8ZM222.974 639.912V657H219.166V654.824C218.526 655.592 217.726 656.189 216.766 656.616C215.827 657.021 214.803 657.224 213.694 657.224C211.411 657.224 209.608 656.595 208.286 655.336C206.963 654.056 206.302 652.168 206.302 649.672V639.912H210.302V649.128C210.302 650.664 210.643 651.816 211.326 652.584C212.03 653.331 213.032 653.704 214.334 653.704C215.742 653.704 216.862 653.267 217.694 652.392C218.547 651.496 218.974 650.216 218.974 648.552V639.912H222.974ZM214.59 637.896C212.862 637.896 211.539 637.501 210.622 636.712C209.726 635.901 209.267 634.728 209.246 633.192H211.902C211.923 633.96 212.158 634.568 212.606 635.016C213.075 635.464 213.726 635.688 214.558 635.688C215.368 635.688 216.008 635.464 216.478 635.016C216.968 634.568 217.224 633.96 217.246 633.192H219.966C219.944 634.728 219.475 635.901 218.558 636.712C217.64 637.501 216.318 637.896 214.59 637.896ZM254.051 639.912V654.408C254.051 660.424 250.979 663.432 244.835 663.432C243.193 663.432 241.635 663.219 240.163 662.792C238.691 662.387 237.475 661.789 236.515 661L238.307 657.992C239.054 658.611 239.993 659.101 241.123 659.464C242.275 659.848 243.438 660.04 244.611 660.04C246.489 660.04 247.865 659.613 248.739 658.76C249.614 657.907 250.051 656.605 250.051 654.856V653.96C249.369 654.707 248.537 655.272 247.555 655.656C246.574 656.04 245.497 656.232 244.323 656.232C242.702 656.232 241.23 655.891 239.907 655.208C238.606 654.504 237.571 653.523 236.803 652.264C236.057 651.005 235.683 649.565 235.683 647.944C235.683 646.323 236.057 644.893 236.803 643.656C237.571 642.397 238.606 641.427 239.907 640.744C241.23 640.061 242.702 639.72 244.323 639.72C245.561 639.72 246.681 639.923 247.683 640.328C248.707 640.733 249.561 641.352 250.243 642.184V639.912H254.051ZM244.931 652.84C246.446 652.84 247.683 652.392 248.643 651.496C249.625 650.579 250.115 649.395 250.115 647.944C250.115 646.515 249.625 645.352 248.643 644.456C247.683 643.56 246.446 643.112 244.931 643.112C243.395 643.112 242.137 643.56 241.155 644.456C240.195 645.352 239.715 646.515 239.715 647.944C239.715 649.395 240.195 650.579 241.155 651.496C242.137 652.392 243.395 652.84 244.931 652.84ZM267.886 639.72C269.657 639.72 271.203 640.083 272.526 640.808C273.87 641.533 274.905 642.557 275.63 643.88C276.377 645.203 276.75 646.739 276.75 648.488C276.75 650.216 276.398 651.741 275.694 653.064C274.99 654.387 273.998 655.411 272.718 656.136C271.459 656.861 269.998 657.224 268.334 657.224C265.966 657.224 264.11 656.467 262.766 654.952V663.208H258.734V648.52C258.734 646.792 259.118 645.267 259.886 643.944C260.654 642.6 261.721 641.565 263.086 640.84C264.473 640.093 266.073 639.72 267.886 639.72ZM267.726 653.832C269.219 653.832 270.435 653.341 271.374 652.36C272.313 651.357 272.782 650.067 272.782 648.488C272.782 646.909 272.313 645.619 271.374 644.616C270.435 643.613 269.219 643.112 267.726 643.112C266.211 643.112 264.995 643.603 264.078 644.584C263.161 645.565 262.702 646.856 262.702 648.456C262.702 650.056 263.161 651.357 264.078 652.36C265.017 653.341 266.233 653.832 267.726 653.832ZM297.231 639.912V654.408C297.231 660.424 294.276 663.432 288.367 663.432C286.809 663.432 285.316 663.219 283.887 662.792C282.479 662.387 281.316 661.789 280.399 661L282.191 657.992C282.916 658.611 283.801 659.101 284.847 659.464C285.892 659.827 286.991 660.008 288.143 660.008C289.892 660.008 291.172 659.581 291.983 658.728C292.815 657.896 293.231 656.605 293.231 654.856V654.056C292.591 654.76 291.812 655.304 290.895 655.688C289.977 656.051 288.985 656.232 287.919 656.232C285.636 656.232 283.833 655.603 282.511 654.344C281.209 653.085 280.559 651.197 280.559 648.68V639.912H284.559V648.168C284.559 649.683 284.9 650.824 285.583 651.592C286.287 652.339 287.279 652.712 288.559 652.712C289.988 652.712 291.119 652.275 291.951 651.4C292.804 650.525 293.231 649.256 293.231 647.592V639.912H297.231ZM315.652 643.304H306.532V657H302.532V639.912H315.652V643.304ZM335.043 639.912V654.408C335.043 660.424 332.088 663.432 326.179 663.432C324.622 663.432 323.128 663.219 321.699 662.792C320.291 662.387 319.128 661.789 318.211 661L320.003 657.992C320.728 658.611 321.614 659.101 322.659 659.464C323.704 659.827 324.803 660.008 325.955 660.008C327.704 660.008 328.984 659.581 329.795 658.728C330.627 657.896 331.043 656.605 331.043 654.856V654.056C330.403 654.76 329.624 655.304 328.707 655.688C327.79 656.051 326.798 656.232 325.731 656.232C323.448 656.232 321.646 655.603 320.323 654.344C319.022 653.085 318.371 651.197 318.371 648.68V639.912H322.371V648.168C322.371 649.683 322.712 650.824 323.395 651.592C324.099 652.339 325.091 652.712 326.371 652.712C327.8 652.712 328.931 652.275 329.763 651.4C330.616 650.525 331.043 649.256 331.043 647.592V639.912H335.043ZM99.688 678.912H103.688V696H99.688V678.912ZM101.704 676.096C100.979 676.096 100.371 675.872 99.88 675.424C99.3893 674.955 99.144 674.379 99.144 673.696C99.144 673.013 99.3893 672.448 99.88 672C100.371 671.531 100.979 671.296 101.704 671.296C102.429 671.296 103.037 671.52 103.528 671.968C104.019 672.395 104.264 672.939 104.264 673.6C104.264 674.304 104.019 674.901 103.528 675.392C103.059 675.861 102.451 676.096 101.704 676.096ZM109.094 678.912H113.094V685.856H121.702V678.912H125.702V696H121.702V689.248H113.094V696H109.094V678.912ZM138.679 696.224C136.951 696.224 135.394 695.851 134.007 695.104C132.62 694.357 131.532 693.323 130.743 692C129.975 690.656 129.591 689.141 129.591 687.456C129.591 685.771 129.975 684.267 130.743 682.944C131.532 681.621 132.62 680.587 134.007 679.84C135.394 679.093 136.951 678.72 138.679 678.72C140.428 678.72 141.996 679.093 143.383 679.84C144.77 680.587 145.847 681.621 146.615 682.944C147.404 684.267 147.799 685.771 147.799 687.456C147.799 689.141 147.404 690.656 146.615 692C145.847 693.323 144.77 694.357 143.383 695.104C141.996 695.851 140.428 696.224 138.679 696.224ZM138.679 692.8C140.151 692.8 141.367 692.309 142.327 691.328C143.287 690.347 143.767 689.056 143.767 687.456C143.767 685.856 143.287 684.565 142.327 683.584C141.367 682.603 140.151 682.112 138.679 682.112C137.207 682.112 135.991 682.603 135.031 683.584C134.092 684.565 133.623 685.856 133.623 687.456C133.623 689.056 134.092 690.347 135.031 691.328C135.991 692.309 137.207 692.8 138.679 692.8ZM161.709 687.104C162.775 687.403 163.597 687.893 164.173 688.576C164.77 689.237 165.069 690.037 165.069 690.976C165.069 692.021 164.717 692.949 164.013 693.76C163.309 694.549 162.338 695.168 161.101 695.616C159.863 696.064 158.455 696.288 156.877 696.288C155.554 696.288 154.263 696.139 153.005 695.84C151.746 695.52 150.605 695.072 149.581 694.496L150.733 691.52C151.565 691.989 152.503 692.352 153.549 692.608C154.594 692.864 155.639 692.992 156.685 692.992C158.029 692.992 159.074 692.789 159.821 692.384C160.589 691.957 160.973 691.381 160.973 690.656C160.973 689.995 160.674 689.483 160.077 689.12C159.501 688.757 158.679 688.576 157.613 688.576H154.285V685.888H157.293C158.295 685.888 159.074 685.717 159.629 685.376C160.205 685.035 160.493 684.555 160.493 683.936C160.493 683.317 160.151 682.827 159.469 682.464C158.786 682.101 157.847 681.92 156.653 681.92C154.946 681.92 153.143 682.336 151.245 683.168L150.221 680.224C152.461 679.179 154.722 678.656 157.005 678.656C158.455 678.656 159.757 678.859 160.909 679.264C162.061 679.648 162.957 680.203 163.597 680.928C164.258 681.632 164.589 682.443 164.589 683.36C164.589 684.192 164.333 684.939 163.821 685.6C163.309 686.24 162.605 686.741 161.709 687.104ZM177.283 692.832C179.139 692.832 180.686 692.213 181.923 690.976L184.035 693.44C183.289 694.357 182.329 695.051 181.155 695.52C179.982 695.989 178.659 696.224 177.187 696.224C175.31 696.224 173.657 695.851 172.227 695.104C170.798 694.357 169.689 693.323 168.899 692C168.131 690.656 167.747 689.141 167.747 687.456C167.747 685.792 168.121 684.299 168.867 682.976C169.635 681.632 170.681 680.587 172.003 679.84C173.347 679.093 174.862 678.72 176.547 678.72C178.147 678.72 179.598 679.072 180.899 679.776C182.222 680.459 183.267 681.451 184.035 682.752C184.803 684.032 185.187 685.536 185.187 687.264L172.099 689.824C172.505 690.805 173.155 691.552 174.051 692.064C174.947 692.576 176.025 692.832 177.283 692.832ZM176.547 681.92C175.075 681.92 173.881 682.4 172.963 683.36C172.067 684.32 171.619 685.611 171.619 687.232V687.264L181.283 685.408C181.006 684.363 180.441 683.52 179.587 682.88C178.755 682.24 177.742 681.92 176.547 681.92ZM205.894 696V684.672L200.134 694.208H198.406L192.742 684.64V696H189.094V678.912H193.286L199.366 689.6L205.734 678.912H209.478L209.51 696H205.894ZM214.876 678.912H218.876V685.856H227.484V678.912H231.484V696H227.484V689.248H218.876V696H214.876V678.912ZM253.324 678.912V693.408C253.324 699.424 250.37 702.432 244.46 702.432C242.903 702.432 241.41 702.219 239.98 701.792C238.572 701.387 237.41 700.789 236.492 700L238.284 696.992C239.01 697.611 239.895 698.101 240.94 698.464C241.986 698.827 243.084 699.008 244.236 699.008C245.986 699.008 247.266 698.581 248.076 697.728C248.908 696.896 249.324 695.605 249.324 693.856V693.056C248.684 693.76 247.906 694.304 246.988 694.688C246.071 695.051 245.079 695.232 244.012 695.232C241.73 695.232 239.927 694.603 238.604 693.344C237.303 692.085 236.652 690.197 236.652 687.68V678.912H240.652V687.168C240.652 688.683 240.994 689.824 241.676 690.592C242.38 691.339 243.372 691.712 244.652 691.712C246.082 691.712 247.212 691.275 248.044 690.4C248.898 689.525 249.324 688.256 249.324 686.592V678.912H253.324ZM284.269 696V684.672L278.509 694.208H276.781L271.117 684.64V696H267.469V678.912H271.661L277.741 689.6L284.109 678.912H287.853L287.885 696H284.269ZM300.867 696.224C299.139 696.224 297.581 695.851 296.195 695.104C294.808 694.357 293.72 693.323 292.931 692C292.163 690.656 291.779 689.141 291.779 687.456C291.779 685.771 292.163 684.267 292.931 682.944C293.72 681.621 294.808 680.587 296.195 679.84C297.581 679.093 299.139 678.72 300.867 678.72C302.616 678.72 304.184 679.093 305.571 679.84C306.957 680.587 308.035 681.621 308.803 682.944C309.592 684.267 309.987 685.771 309.987 687.456C309.987 689.141 309.592 690.656 308.803 692C308.035 693.323 306.957 694.357 305.571 695.104C304.184 695.851 302.616 696.224 300.867 696.224ZM300.867 692.8C302.339 692.8 303.555 692.309 304.515 691.328C305.475 690.347 305.955 689.056 305.955 687.456C305.955 685.856 305.475 684.565 304.515 683.584C303.555 682.603 302.339 682.112 300.867 682.112C299.395 682.112 298.179 682.603 297.219 683.584C296.28 684.565 295.811 685.856 295.811 687.456C295.811 689.056 296.28 690.347 297.219 691.328C298.179 692.309 299.395 692.8 300.867 692.8ZM326.322 687.104C328.434 687.744 329.49 689.109 329.49 691.2C329.49 692.736 328.914 693.92 327.762 694.752C326.61 695.584 324.903 696 322.642 696H313.938V678.912H322.29C324.381 678.912 326.013 679.296 327.186 680.064C328.359 680.832 328.946 681.92 328.946 683.328C328.946 684.203 328.711 684.96 328.242 685.6C327.794 686.24 327.154 686.741 326.322 687.104ZM317.746 686.048H321.938C324.007 686.048 325.042 685.333 325.042 683.904C325.042 682.517 324.007 681.824 321.938 681.824H317.746V686.048ZM322.322 693.088C324.519 693.088 325.618 692.373 325.618 690.944C325.618 690.197 325.362 689.643 324.85 689.28C324.338 688.896 323.538 688.704 322.45 688.704H317.746V693.088H322.322ZM350.231 678.912V693.408C350.231 699.424 347.276 702.432 341.367 702.432C339.809 702.432 338.316 702.219 336.887 701.792C335.479 701.387 334.316 700.789 333.399 700L335.191 696.992C335.916 697.611 336.801 698.101 337.847 698.464C338.892 698.827 339.991 699.008 341.143 699.008C342.892 699.008 344.172 698.581 344.983 697.728C345.815 696.896 346.231 695.605 346.231 693.856V693.056C345.591 693.76 344.812 694.304 343.895 694.688C342.977 695.051 341.985 695.232 340.919 695.232C338.636 695.232 336.833 694.603 335.511 693.344C334.209 692.085 333.559 690.197 333.559 687.68V678.912H337.559V687.168C337.559 688.683 337.9 689.824 338.583 690.592C339.287 691.339 340.279 691.712 341.559 691.712C342.988 691.712 344.119 691.275 344.951 690.4C345.804 689.525 346.231 688.256 346.231 686.592V678.912H350.231ZM109.896 726.104C110.963 726.403 111.784 726.893 112.36 727.576C112.957 728.237 113.256 729.037 113.256 729.976C113.256 731.021 112.904 731.949 112.2 732.76C111.496 733.549 110.525 734.168 109.288 734.616C108.051 735.064 106.643 735.288 105.064 735.288C103.741 735.288 102.451 735.139 101.192 734.84C99.9333 734.52 98.792 734.072 97.768 733.496L98.92 730.52C99.752 730.989 100.691 731.352 101.736 731.608C102.781 731.864 103.827 731.992 104.872 731.992C106.216 731.992 107.261 731.789 108.008 731.384C108.776 730.957 109.16 730.381 109.16 729.656C109.16 728.995 108.861 728.483 108.264 728.12C107.688 727.757 106.867 727.576 105.8 727.576H102.472V724.888H105.48C106.483 724.888 107.261 724.717 107.816 724.376C108.392 724.035 108.68 723.555 108.68 722.936C108.68 722.317 108.339 721.827 107.656 721.464C106.973 721.101 106.035 720.92 104.84 720.92C103.133 720.92 101.331 721.336 99.432 722.168L98.408 719.224C100.648 718.179 102.909 717.656 105.192 717.656C106.643 717.656 107.944 717.859 109.096 718.264C110.248 718.648 111.144 719.203 111.784 719.928C112.445 720.632 112.776 721.443 112.776 722.36C112.776 723.192 112.52 723.939 112.008 724.6C111.496 725.24 110.792 725.741 109.896 726.104ZM126.251 717.912H130.251V724.856H138.859V717.912H142.859V735H138.859V728.248H130.251V735H126.251V717.912ZM164.859 717.912V735H161.051V732.792C160.39 733.603 159.569 734.211 158.587 734.616C157.627 735.021 156.561 735.224 155.387 735.224C153.723 735.224 152.23 734.861 150.907 734.136C149.606 733.411 148.582 732.387 147.835 731.064C147.11 729.741 146.747 728.205 146.747 726.456C146.747 724.707 147.11 723.181 147.835 721.88C148.582 720.557 149.606 719.533 150.907 718.808C152.23 718.083 153.723 717.72 155.387 717.72C156.497 717.72 157.51 717.912 158.427 718.296C159.366 718.68 160.177 719.245 160.859 719.992V717.912H164.859ZM155.835 731.8C157.307 731.8 158.523 731.309 159.483 730.328C160.443 729.347 160.923 728.056 160.923 726.456C160.923 724.856 160.443 723.565 159.483 722.584C158.523 721.603 157.307 721.112 155.835 721.112C154.363 721.112 153.147 721.603 152.187 722.584C151.249 723.565 150.779 724.856 150.779 726.456C150.779 728.056 151.249 729.347 152.187 730.328C153.147 731.309 154.363 731.8 155.835 731.8ZM186.957 735V723.672L181.197 733.208H179.469L173.805 723.64V735H170.157V717.912H174.349L180.429 728.6L186.797 717.912H190.541L190.573 735H186.957ZM212.13 717.912V735H208.322V732.824C207.682 733.592 206.882 734.189 205.922 734.616C204.983 735.021 203.959 735.224 202.85 735.224C200.567 735.224 198.765 734.595 197.442 733.336C196.119 732.056 195.458 730.168 195.458 727.672V717.912H199.458V727.128C199.458 728.664 199.799 729.816 200.482 730.584C201.186 731.331 202.189 731.704 203.49 731.704C204.898 731.704 206.018 731.267 206.85 730.392C207.703 729.496 208.13 728.216 208.13 726.552V717.912H212.13Z" fill="#2D3748"/>
<circle cx="454" cy="194" r="8" fill="white"/>
<circle cx="518" cy="194" r="8" fill="white"/>
<circle cx="582" cy="194" r="8" fill="white"/>
<circle cx="646" cy="194" r="8" fill="white"/>
<circle cx="710" cy="194" r="8" fill="white"/>
<circle cx="454" cy="434" r="8" fill="white"/>
<circle cx="518" cy="434" r="8" fill="white"/>
<circle cx="582" cy="434" r="8" fill="white"/>
<circle cx="646" cy="434" r="8" fill="white"/>
<circle cx="710" cy="434" r="8" fill="white"/>
<circle cx="454" cy="665" r="8" fill="white"/>
<circle cx="518" cy="665" r="8" fill="white"/>
<circle cx="582" cy="665" r="8" fill="white"/>
<circle cx="646" cy="665" r="8" fill="white"/>
<circle cx="710" cy="665" r="8" fill="white"/>
<circle cx="921" cy="207" r="8" fill="white"/>
<circle cx="921" cy="271" r="8" fill="white"/>
<circle cx="921" cy="335" r="8" fill="white"/>
<circle cx="186" cy="451" r="8" fill="white"/>
<circle cx="186" cy="515" r="8" fill="white"/>
<circle cx="186" cy="579" r="8" fill="white"/>
</g>
<defs>
<clipPath id="clip0">
<rect x="-390" y="-2022" width="1920" height="4430" fill="white"/>
</clipPath>
</defs>
</svg>
