<svg width="114" height="115" viewBox="0 0 114 115" fill="none" xmlns="http://www.w3.org/2000/svg">
<g clip-path="url(#clip0)">
<path d="M106.293 79.012C103.674 74.9004 98.4126 73.4469 94.0541 75.6307L71.5034 86.9312C70.404 87.4823 69.9593 88.82 70.5104 89.9192C71.0615 91.0185 72.3983 91.4631 73.4987 90.9123L96.0493 79.6118C98.3591 78.4538 101.148 79.2246 102.537 81.4042C103.293 82.5905 103.516 83.9937 103.165 85.3557C102.814 86.7177 101.941 87.8387 100.707 88.5125L70.3913 105.059C66.6484 107.102 62.4166 108.181 58.1525 108.181H38.4C37.1705 108.181 36.1735 109.178 36.1735 110.408C36.1735 111.638 37.1705 112.634 38.4 112.634H58.1525C63.1596 112.634 68.1295 111.366 72.5248 108.968L102.84 92.4214C105.135 91.1688 106.825 88.9981 107.477 86.4663C108.129 83.9342 107.697 81.2174 106.293 79.012Z" fill="black"/>
<path d="M62.8674 87.2059L53.5622 79.834C48.7408 76.0146 42.6981 73.9111 36.5472 73.9111H20.5957C20.5957 72.6814 19.5986 71.6846 18.3691 71.6846H2.22656C0.997055 71.6846 0 72.6814 0 73.9111C0 75.1409 0.997055 76.1377 2.22656 76.1377H16.1426V110.427H2.22656C0.997055 110.427 0 111.424 0 112.653C0 113.883 0.997055 114.88 2.22656 114.88H18.3691C19.5986 114.88 20.5957 113.883 20.5957 112.653V78.3643H36.5472C41.6986 78.3643 46.7592 80.1259 50.7968 83.3248L60.1021 90.6967C61.1977 91.5647 61.7341 92.9091 61.5373 94.2929C61.3402 95.6767 60.4501 96.8178 59.156 97.3457C57.963 97.8324 56.6092 97.6975 55.5356 96.9843L43.6478 89.0894C42.6238 88.409 41.2413 88.6882 40.5613 89.7124C39.8809 90.7368 40.1598 92.1186 41.1843 92.7988L53.0721 100.694C54.4611 101.616 56.0677 102.088 57.6865 102.088C58.7516 102.088 59.8222 101.883 60.8382 101.469C63.6142 100.336 65.5237 97.8883 65.9461 94.9199C66.3683 91.9514 65.2176 89.0678 62.8674 87.2059Z" fill="black"/>
<path d="M111.774 39.6221H97.8578V5.33301H111.774C113.003 5.33301 114 4.33618 114 3.10645C114 1.87671 113.003 0.879883 111.774 0.879883H95.6313C94.4017 0.879883 93.4047 1.87671 93.4047 3.10645V37.3955H77.4532C72.3018 37.3955 67.2412 35.6338 63.2036 32.4349L53.8983 25.063C52.8027 24.1951 52.2663 22.8507 52.4631 21.4669C52.6602 20.0831 53.5503 18.942 54.8444 18.4141C56.0374 17.9273 57.3912 18.0625 58.4648 18.7754L70.3526 26.6704C71.3766 27.3508 72.7593 27.0716 73.4391 26.0474C74.1195 25.0229 73.8406 23.6411 72.8161 22.9609L60.9283 15.066C58.6251 13.5366 55.7223 13.2467 53.1622 14.2909C50.3862 15.4233 48.4767 17.8714 48.0543 20.8399C47.6321 23.8084 48.7828 26.692 51.133 28.5538L60.4382 35.9258C65.2596 39.7452 71.3023 41.8486 77.4532 41.8486H93.4047C93.4047 43.0784 94.4017 44.0752 95.6313 44.0752H111.774C113.003 44.0752 114 43.0784 114 41.8486C114 40.6189 113.003 39.6221 111.774 39.6221Z" fill="black"/>
<path d="M75.9263 3.125H55.848C50.841 3.125 45.8708 4.39303 41.4758 6.7917L11.1605 23.3377C8.86557 24.5904 7.17561 26.7611 6.52345 29.2929C5.87151 31.8249 6.30324 34.5418 7.70753 36.7472C9.50571 39.5703 12.5496 41.1402 15.6915 41.1402C17.1257 41.1402 18.5807 40.8131 19.9465 40.1287L42.4971 28.8282C43.5966 28.2771 44.0413 26.9394 43.4902 25.8402C42.9391 24.7407 41.6016 24.296 40.5019 24.8471L17.9513 36.1476C15.641 37.3052 12.852 36.5348 11.4635 34.3552C10.7078 33.1689 10.4849 31.7657 10.8359 30.4037C11.1865 29.0417 12.0596 27.9207 13.294 27.2469L43.6093 10.7007C47.3521 8.65779 51.584 7.57812 55.848 7.57812H75.9263C77.1558 7.57812 78.1529 6.58129 78.1529 5.35156C78.1529 4.12183 77.1558 3.125 75.9263 3.125Z" fill="black"/>
<path d="M63.1649 44.957C60.951 44.957 58.7922 45.6675 56.9998 46.9514C55.2072 45.6675 53.0485 44.957 50.8346 44.957C44.9271 44.957 40.1211 49.861 40.1211 55.8888C40.1206 59.407 42.7696 63.403 48.2187 68.1048C51.9633 71.3358 55.6534 73.6815 55.8086 73.7797C56.1722 74.0099 56.5859 74.125 56.9995 74.125C57.4132 74.125 57.8269 74.0099 58.1905 73.7797C58.3457 73.6815 62.0358 71.3356 65.7804 68.1048C71.2297 63.403 73.8785 59.4072 73.8785 55.8888C73.8785 49.861 69.0724 44.957 63.1649 44.957ZM56.9991 69.2386C51.4828 65.5267 44.574 59.4279 44.574 55.8888C44.5738 52.3165 47.3824 49.4102 50.8344 49.4102C52.5611 49.4102 54.1696 50.1227 55.3632 51.4167C55.785 51.8736 56.3781 52.1335 56.9998 52.1335C57.6214 52.1335 58.2146 51.8736 58.6363 51.4167C59.83 50.1227 61.4384 49.4102 63.1651 49.4102C66.6172 49.4102 69.4256 52.3165 69.4256 55.8888C69.4256 59.421 62.5154 65.5229 56.9991 69.2386Z" fill="black"/>
</g>
<defs>
<clipPath id="clip0">
<path d="M0 0.879883H114V114.88H0V0.879883Z" fill="white"/>
</clipPath>
</defs>
</svg>
