<svg width="114" height="115" viewBox="0 0 114 115" fill="none" xmlns="http://www.w3.org/2000/svg">
<g clip-path="url(#clip0)">
<path d="M68.457 42.6797H68.438C67.3893 42.6797 66.5475 43.5309 66.5475 44.5796C66.5475 45.6283 67.4083 46.4795 68.457 46.4795C69.5077 46.4795 70.3569 45.6283 70.3569 44.5796C70.3569 43.5309 69.5077 42.6797 68.457 42.6797Z" fill="black"/>
<path d="M45.657 42.6797H45.6381C44.5894 42.6797 43.7476 43.5309 43.7476 44.5796C43.7476 45.6283 44.6083 46.4795 45.657 46.4795C46.7078 46.4795 47.557 45.6283 47.557 44.5796C47.557 43.5309 46.7078 42.6797 45.657 42.6797Z" fill="black"/>
<path d="M23.2198 51.5735C23.9797 53.1183 24.9734 55.1398 27.0748 55.7781C28.1407 58.8218 31.2852 67.3834 34.5191 72.2339C36.9625 75.897 42.6834 84.4792 56.9996 84.4792C71.3159 84.4792 77.037 75.897 79.4802 72.2339C82.7121 67.3851 85.8546 58.8294 86.9245 55.7819C89.1739 55.1113 90.1999 52.8749 90.9999 51.1289C91.0834 50.9579 93.0994 46.8577 93.0994 40.7796C93.0994 38.3115 91.319 35.8227 87.3994 35.2184V25.5797C87.3996 25.3327 87.0518 0.879883 56.9996 0.879883C26.9475 0.879883 26.5999 29.0947 26.5999 29.3797C26.5999 30.4284 27.4511 31.2796 28.4998 31.2796C29.5485 31.2796 30.3997 30.4284 30.3997 29.3797C30.3997 28.3709 30.7019 4.67993 56.9996 4.67993C83.1814 4.67993 83.5958 24.7325 83.5996 25.5799V36.9798C83.5996 38.0285 84.4508 38.8797 85.4995 38.8797C87.2531 38.8797 89.2995 39.3776 89.2995 40.7796C89.2995 45.9116 87.6142 49.4017 87.5212 49.5995C86.6339 51.5354 86.216 52.1796 85.4997 52.1796C84.6808 52.1796 83.9549 52.7022 83.6966 53.4792C83.6606 53.5912 79.9367 64.7006 76.319 70.1251C74.0352 73.5509 69.2833 80.6796 56.9999 80.6796C44.7164 80.6796 39.9645 73.5509 37.6808 70.1251C34.0671 64.7064 30.3392 53.5914 30.3031 53.4792C30.0446 52.7022 29.3169 52.1796 28.5 52.1796C27.8844 52.1796 27.5537 51.7748 26.6304 49.8958L26.4004 49.4302C26.3815 49.396 24.7 45.9704 24.7 40.7796C24.7 39.2084 26.7653 38.8797 28.5 38.8797C29.5487 38.8797 30.3999 38.0285 30.3999 36.9798C30.3999 35.9311 29.5487 35.0799 28.5 35.0799C22.8969 35.0799 20.9001 38.025 20.9001 40.7799C20.9001 46.8579 22.9161 50.9581 22.9996 51.1291L23.2198 51.5735Z" fill="black"/>
<path d="M83.2803 37.8256C82.6952 36.9517 81.5171 36.7161 80.6449 37.2993L76.6492 39.9631C75.0209 37.0657 71.9543 35.0801 68.3994 35.0801C63.8109 35.0801 59.9748 38.35 59.0913 42.68H54.9076C54.0241 38.35 50.188 35.0801 45.5995 35.0801C42.0446 35.0801 38.978 37.0655 37.3497 39.9631L33.3539 37.2993C32.478 36.7159 31.2999 36.9515 30.7186 37.8256C30.1372 38.6996 30.3728 39.8796 31.2449 40.461L36.183 43.7518C36.1583 44.0292 36.0995 44.2971 36.0995 44.5803C36.0995 49.8185 40.3611 54.0803 45.5995 54.0803C50.188 54.0803 54.0241 50.8104 54.9076 46.4805H59.0913C59.9748 50.8107 63.8109 54.0803 68.3994 54.0803C73.6376 54.0803 77.8994 49.8187 77.8994 44.5803C77.8994 44.2973 77.8404 44.0292 77.8159 43.7518L82.7539 40.461C83.6261 39.8794 83.8619 38.6996 83.2803 37.8256ZM45.5997 50.2801C42.4572 50.2801 39.8998 47.7226 39.8998 44.5801C39.8998 41.4375 42.4572 38.8801 45.5997 38.8801C48.7423 38.8801 51.2997 41.4375 51.2997 44.5801C51.2997 47.7226 48.7423 50.2801 45.5997 50.2801ZM68.3996 50.2801C65.257 50.2801 62.6996 47.7226 62.6996 44.5801C62.6996 41.4375 65.257 38.8801 68.3996 38.8801C71.5421 38.8801 74.0996 41.4375 74.0996 44.5801C74.0996 47.7226 71.5421 50.2801 68.3996 50.2801Z" fill="black"/>
<path d="M59.7452 101.898C53.5741 106.012 51.484 112.12 51.3968 112.379C51.0661 113.372 51.602 114.442 52.5937 114.776C52.7952 114.843 52.9985 114.877 53.1998 114.877C53.992 114.877 54.7312 114.375 55.0011 113.585C55.0182 113.534 56.8041 108.426 61.8544 105.06C62.7265 104.478 62.9621 103.298 62.3807 102.424C61.7971 101.551 60.6173 101.313 59.7452 101.898Z" fill="black"/>
<path d="M113.943 112.518L112.003 104.779C109.898 98.4673 99.4665 92.0796 83.5997 92.0796C82.9992 92.0796 82.4198 91.2037 81.5363 89.7615C80.1721 87.531 78.3025 84.4795 74.0999 84.4795C67.9989 84.4795 50.333 93.9054 38.3192 111.925C37.7378 112.799 37.9734 113.979 38.8455 114.56C39.7195 115.143 40.8975 114.906 41.4809 114.034C52.8087 97.0421 69.4791 88.2795 74.0999 88.2795C76.0739 88.2795 76.9804 89.5963 78.2951 91.7452C78.7968 92.5621 79.361 93.4589 80.0641 94.2133C76.4313 97.031 69.9487 102.75 68.4571 108.718C68.2026 109.736 68.8218 110.768 69.8385 111.022C69.9943 111.062 70.1482 111.079 70.302 111.079C71.1533 111.079 71.9265 110.504 72.1432 109.641C73.6347 103.675 82.0687 97.3841 84.1759 95.8945C98.5986 96.0466 107.018 101.84 108.357 105.841L110.257 113.441C110.474 114.303 111.247 114.879 112.098 114.879C112.252 114.879 112.406 114.862 112.562 114.822C113.578 114.568 114.197 113.536 113.943 112.518Z" fill="black"/>
<path d="M39.8998 99.6788C40.3863 99.6788 40.8726 99.4926 41.2431 99.1221C41.9859 98.3791 41.9859 97.1783 41.2431 96.4356C39.5825 94.773 37.6312 93.7508 35.8433 93.1144C36.0637 92.8998 36.2804 92.6849 36.493 92.4723C37.6728 91.2925 38.7863 90.179 39.8996 90.179C44.4881 90.179 47.7883 94.9896 47.8188 95.0335C48.4001 95.9056 49.5782 96.1412 50.4541 95.5599C51.3263 94.9785 51.5618 93.7987 50.9805 92.9245C50.8021 92.6584 46.5403 86.3789 39.8998 86.3789C37.2133 86.3789 35.4026 88.1895 33.8067 89.7855C32.6268 90.9654 31.5133 92.0789 30.4 92.0789C14.1362 92.0789 4.84526 96.2341 1.9572 104.917L0.0572864 112.517C-0.197208 113.535 0.421995 114.567 1.43864 114.822C1.5945 114.862 1.74835 114.879 1.90221 114.879C2.75342 114.879 3.5267 114.303 3.74334 113.44L5.6034 105.979C6.43568 103.481 8.97016 95.8789 30.4003 95.8789C30.4497 95.8789 35.3497 95.917 38.557 99.1221C38.9271 99.4926 39.4136 99.6788 39.8998 99.6788Z" fill="black"/>
<path d="M66.4999 65.4794C67.5486 65.4794 68.3999 64.6282 68.3999 63.5796V61.6797C68.3999 60.6348 67.5506 59.7853 66.5037 59.7798C66.4694 59.7798 62.89 59.7399 57.6004 57.9767C57.209 57.8476 56.7911 57.8476 56.3996 57.9767C51.11 59.7399 47.5304 59.7798 47.5001 59.7798C46.4514 59.7798 45.6002 60.631 45.6002 61.6797V63.5796C45.6002 64.6282 46.4514 65.4794 47.5001 65.4794C48.5488 65.4794 49.4 64.6282 49.4 63.5796V63.4484C51.0588 63.2641 53.7093 62.8252 56.9999 61.7783C60.2908 62.8252 62.9412 63.2641 64.5998 63.4484V63.5796C64.6 64.6282 65.4512 65.4794 66.4999 65.4794Z" fill="black"/>
<path d="M53.1997 65.4795C52.151 65.4795 51.2998 66.3307 51.2998 67.3794C51.2998 68.4281 52.151 69.2793 53.1997 69.2793H60.7996C61.8483 69.2793 62.6995 68.4281 62.6995 67.3794C62.6995 66.3307 61.8483 65.4795 60.7996 65.4795H53.1997Z" fill="black"/>
</g>
<defs>
<clipPath id="clip0">
<path d="M0 0.879883H114V114.88H0V0.879883Z" fill="white"/>
</clipPath>
</defs>
</svg>
