<svg width="114" height="115" viewBox="0 0 114 115" fill="none" xmlns="http://www.w3.org/2000/svg">
<g clip-path="url(#clip0)">
<path d="M102.867 10.1943H92.2538V7.07715C92.2538 3.39397 89.2573 0.397461 85.5741 0.397461C81.891 0.397461 78.8945 3.39397 78.8945 7.07715V10.1943H41.4882V7.07715C41.4882 3.39397 38.4917 0.397461 34.8085 0.397461C31.1253 0.397461 28.1288 3.39397 28.1288 7.07715V10.2767C27.9396 10.2244 27.7412 10.1943 27.5352 10.1943H18.6637C12.5251 10.1943 7.5309 15.1885 7.5309 21.3271V59.2529C7.5309 60.4826 8.52796 61.4794 9.75747 61.4794C10.987 61.4794 11.984 60.4826 11.984 59.2529V33.1279H92.2538C93.4833 33.1279 94.4804 32.1311 94.4804 30.9014C94.4804 29.6716 93.4833 28.6748 92.2538 28.6748H11.984V21.3271C11.984 17.644 14.9805 14.6475 18.6637 14.6475H27.5352C27.7412 14.6475 27.9396 14.6172 28.1288 14.5651V17.4307C28.1288 21.1138 31.1253 24.1104 34.8085 24.1104C38.4917 24.1104 41.4882 21.1138 41.4882 17.4307V14.6475H78.8945V17.4307C78.8945 21.1138 81.891 24.1104 85.5741 24.1104C89.2573 24.1104 92.2538 21.1138 92.2538 17.4307V14.6475H102.867C106.55 14.6475 109.547 17.644 109.547 21.3271V105.935C109.547 108.146 107.748 109.944 105.538 109.944C103.327 109.944 101.529 108.146 101.529 105.935V100.175C101.529 98.9456 100.532 97.9487 99.302 97.9487H73.4024C72.1729 97.9487 71.1759 98.9456 71.1759 100.175C71.1759 101.405 72.1729 102.402 73.4024 102.402H97.0755V105.935C97.0755 107.385 97.4424 108.75 98.0874 109.944H8.46094C6.25107 109.944 4.45312 108.146 4.45312 105.937V102.402H54.2892C55.5187 102.402 56.5157 101.405 56.5157 100.175C56.5157 98.9456 55.5187 97.9487 54.2892 97.9487H32.0422C35.9329 94.598 38.4035 89.6416 38.4035 84.1162C38.4035 74.0488 30.2131 65.8584 20.1457 65.8584C10.0783 65.8584 1.8879 74.0488 1.8879 84.1162C1.8879 89.6416 4.3585 94.598 8.24919 97.9487H2.22656C0.997055 97.9487 0 98.9456 0 100.175V105.937C0 110.602 3.79562 114.397 8.46094 114.397H105.538C110.204 114.397 114 110.601 114 105.935V21.3271C114 15.1885 109.006 10.1943 102.867 10.1943ZM37.0351 17.4307C37.0351 18.6584 36.0362 19.6572 34.8085 19.6572C33.5808 19.6572 32.582 18.6584 32.582 17.4307V7.07715C32.582 5.84942 33.5808 4.85059 34.8085 4.85059C36.0362 4.85059 37.0351 5.84942 37.0351 7.07715V17.4307ZM87.8007 17.4307C87.8007 18.6584 86.8019 19.6572 85.5741 19.6572C84.3464 19.6572 83.3476 18.6584 83.3476 17.4307V7.07715C83.3476 5.84942 84.3464 4.85059 85.5741 4.85059C86.8019 4.85059 87.8007 5.84942 87.8007 7.07715V17.4307ZM6.34103 84.1162C6.34103 76.5043 12.5338 70.3115 20.1457 70.3115C27.7577 70.3115 33.9504 76.5043 33.9504 84.1162C33.9504 91.7282 27.7577 97.9209 20.1457 97.9209C12.5338 97.9209 6.34103 91.7282 6.34103 84.1162Z" fill="black"/>
<path d="M104.272 29.3272C103.858 28.913 103.283 28.6748 102.698 28.6748C102.112 28.6748 101.538 28.913 101.124 29.3272C100.709 29.7413 100.471 30.3158 100.471 30.9014C100.471 31.487 100.709 32.0614 101.124 32.4755C101.538 32.8897 102.112 33.1279 102.698 33.1279C103.283 33.1279 103.858 32.8897 104.272 32.4755C104.686 32.0614 104.924 31.487 104.924 30.9014C104.924 30.3158 104.686 29.7413 104.272 29.3272Z" fill="black"/>
<path d="M66.4957 98.6003C66.0818 98.1862 65.5073 97.9502 64.9218 97.9502C64.3362 97.9502 63.7617 98.1862 63.3476 98.6003C62.9334 99.0167 62.6952 99.5889 62.6952 100.175C62.6952 100.762 62.9332 101.335 63.3476 101.751C63.7617 102.165 64.3362 102.401 64.9218 102.401C65.5073 102.401 66.0818 102.165 66.4957 101.751C66.9099 101.335 67.1483 100.76 67.1483 100.175C67.1483 99.5889 66.9101 99.0167 66.4957 98.6003Z" fill="black"/>
<path d="M50.3743 68.085C45.709 68.085 41.9133 71.8806 41.9133 76.5459C41.9133 81.2112 45.709 85.0068 50.3743 85.0068C55.0396 85.0068 58.8352 81.2112 58.8352 76.5459C58.8352 71.8806 55.0396 68.085 50.3743 68.085ZM50.3743 80.5537C48.1644 80.5537 46.3665 78.7558 46.3665 76.5459C46.3665 74.336 48.1644 72.5381 50.3743 72.5381C52.5841 72.5381 54.3821 74.336 54.3821 76.5459C54.3821 78.7558 52.5841 80.5537 50.3743 80.5537Z" fill="black"/>
<path d="M71.156 68.085C66.4907 68.085 62.6951 71.8806 62.6951 76.5459C62.6951 81.2112 66.4907 85.0068 71.156 85.0068C75.8213 85.0068 79.6169 81.2112 79.6169 76.5459C79.6169 71.8806 75.8213 68.085 71.156 68.085ZM71.156 80.5537C68.9461 80.5537 67.1482 78.7558 67.1482 76.5459C67.1482 74.336 68.9461 72.5381 71.156 72.5381C73.3659 72.5381 75.1638 74.336 75.1638 76.5459C75.1638 78.7558 73.3659 80.5537 71.156 80.5537Z" fill="black"/>
<path d="M91.937 68.085C87.2717 68.085 83.4761 71.8806 83.4761 76.5459C83.4761 81.2112 87.2717 85.0068 91.937 85.0068C96.6023 85.0068 100.398 81.2112 100.398 76.5459C100.398 71.8806 96.6023 68.085 91.937 68.085ZM91.937 80.5537C89.7271 80.5537 87.9292 78.7558 87.9292 76.5459C87.9292 74.336 89.7271 72.5381 91.937 72.5381C94.1469 72.5381 95.9448 74.336 95.9448 76.5459C95.9448 78.7558 94.1469 80.5537 91.937 80.5537Z" fill="black"/>
<path d="M29.5933 44.9287C24.9279 44.9287 21.1323 48.7243 21.1323 53.3896C21.1323 58.055 24.9279 61.8506 29.5933 61.8506C34.2586 61.8506 38.0542 58.055 38.0542 53.3896C38.0542 48.7243 34.2586 44.9287 29.5933 44.9287ZM29.5933 57.3975C27.3834 57.3975 25.5854 55.5995 25.5854 53.3896C25.5854 51.1798 27.3834 49.3818 29.5933 49.3818C31.8031 49.3818 33.6011 51.1798 33.6011 53.3896C33.6011 55.5995 31.8031 57.3975 29.5933 57.3975Z" fill="black"/>
<path d="M71.156 44.9287C66.4907 44.9287 62.6951 48.7243 62.6951 53.3896C62.6951 58.055 66.4907 61.8506 71.156 61.8506C75.8213 61.8506 79.6169 58.055 79.6169 53.3896C79.6169 48.7243 75.8213 44.9287 71.156 44.9287ZM71.156 57.3975C68.9461 57.3975 67.1482 55.5995 67.1482 53.3896C67.1482 51.1798 68.9461 49.3818 71.156 49.3818C73.3659 49.3818 75.1638 51.1798 75.1638 53.3896C75.1638 55.5995 73.3659 57.3975 71.156 57.3975Z" fill="black"/>
<path d="M91.937 44.9287C87.2717 44.9287 83.4761 48.7243 83.4761 53.3896C83.4761 58.055 87.2717 61.8506 91.937 61.8506C96.6023 61.8506 100.398 58.055 100.398 53.3896C100.398 48.7243 96.6023 44.9287 91.937 44.9287ZM91.937 57.3975C89.7271 57.3975 87.9292 55.5995 87.9292 53.3896C87.9292 51.1798 89.7271 49.3818 91.937 49.3818C94.1469 49.3818 95.9448 51.1798 95.9448 53.3896C95.9448 55.5995 94.1469 57.3975 91.937 57.3975Z" fill="black"/>
<path d="M50.3743 44.9287C45.709 44.9287 41.9133 48.7243 41.9133 53.3896C41.9133 58.055 45.709 61.8506 50.3743 61.8506C55.0396 61.8506 58.8352 58.055 58.8352 53.3896C58.8352 48.7243 55.0396 44.9287 50.3743 44.9287ZM50.3743 57.3975C48.1644 57.3975 46.3665 55.5995 46.3665 53.3896C46.3665 51.1798 48.1644 49.3818 50.3743 49.3818C52.5841 49.3818 54.3821 51.1798 54.3821 53.3896C54.3821 55.5995 52.5841 57.3975 50.3743 57.3975Z" fill="black"/>
<path d="M28.0773 78.6902C27.2076 77.8207 25.7982 77.8207 24.9283 78.6902L17.6773 85.9415L15.1993 83.4635C14.3296 82.594 12.9202 82.594 12.0503 83.4635C11.1808 84.333 11.1808 85.7428 12.0503 86.6125L16.1029 90.6647C16.5206 91.0821 17.0868 91.3168 17.6773 91.3168C18.2677 91.3168 18.834 91.0821 19.2517 90.6647L28.0773 81.839C28.9468 80.9695 28.9468 79.5597 28.0773 78.6902Z" fill="black"/>
</g>
<defs>
<clipPath id="clip0">
<path d="M0 0.397461H114V114.397H0V0.397461Z" fill="white"/>
</clipPath>
</defs>
</svg>
