<svg width="32" height="32" viewBox="0 0 32 32" fill="none" xmlns="http://www.w3.org/2000/svg">
<path d="M16.0001 0.0664368C7.16358 0.0664368 0 7.23002 0 16.0665C0 23.9919 5.76835 30.5554 13.3316 31.8263V19.4046H9.47191V14.9345H13.3316V11.6384C13.3316 7.81406 15.6674 5.73 19.0795 5.73C20.7137 5.73 22.1181 5.85177 22.5258 5.90541V9.9029L20.1593 9.90405C18.304 9.90405 17.9464 10.7855 17.9464 12.0793V14.9322H22.3731L21.7957 19.4023H17.9464V31.9332C25.8627 30.9697 32 24.239 32 16.062C32 7.23002 24.8364 0.0664368 16.0001 0.0664368Z" fill="#F25F61"/>
</svg>
