<svg width="214" height="67" viewBox="0 0 214 67" fill="none" xmlns="http://www.w3.org/2000/svg">
<path d="M116.856 45.3124C119.601 46.4763 122.174 47.95 124.535 49.7116C127.644 46.6091 129.948 42.9878 131.36 39.0566H119.15C118.577 41.182 117.816 43.2693 116.856 45.3124Z" fill="#12222A"/>
<path d="M103.548 45.4927V56.8846C107.01 54.1141 109.934 50.7617 112.15 47.0203C109.344 46.1505 106.465 45.6382 103.548 45.4927Z" fill="#12222A"/>
<path d="M106.643 58.5861C112.322 57.7606 117.634 55.4709 122.033 51.9413C119.968 50.4454 117.735 49.1835 115.357 48.1841C113.103 52.09 110.146 55.6163 106.643 58.5861Z" fill="#12222A"/>
<path d="M114.437 9.69125C116.654 8.83733 118.745 7.76519 120.692 6.49696C116.576 3.54936 111.746 1.61381 106.66 0.864258C109.701 3.43867 112.336 6.42422 114.437 9.69125Z" fill="#12222A"/>
<path d="M103.548 42.2889C106.99 42.4407 110.389 43.0606 113.69 44.1296C114.478 42.4692 115.121 40.7771 115.623 39.0566H103.544V42.2889H103.548Z" fill="#12222A"/>
<path d="M112.871 13.6255C109.809 14.5427 106.687 15.0772 103.548 15.2195V20.3936H115.633C114.959 18.0595 114.036 15.7887 112.871 13.6255Z" fill="#12222A"/>
<path d="M123.363 8.64453C121.113 10.1879 118.671 11.4783 116.078 12.5093C117.405 15.0268 118.432 17.6739 119.15 20.397H131.329C129.736 15.9788 127.021 11.9369 123.363 8.64453Z" fill="#12222A"/>
<path d="M103.548 2.55322V12.0127C106.101 11.8862 108.647 11.4688 111.15 10.7698C109.092 7.7052 106.512 4.92206 103.548 2.55322Z" fill="#12222A"/>
<path d="M79.1543 49.7116C81.5121 47.95 84.0855 46.4763 86.8306 45.3124C85.8707 43.2725 85.1094 41.182 84.5402 39.0566H72.3301C73.7414 42.9847 76.0453 46.6091 79.1543 49.7116Z" fill="#12222A"/>
<path d="M87.6086 12.5059C85.015 11.478 82.573 10.1845 80.323 8.64111C76.665 11.9334 73.9535 15.9753 72.3569 20.3904H84.5367C85.2541 17.6737 86.2815 15.0265 87.6086 12.5059Z" fill="#12222A"/>
<path d="M100.142 12.0127V2.55322C97.178 4.91889 94.5978 7.7052 92.5398 10.7698C95.0425 11.4688 97.5855 11.8862 100.142 12.0127Z" fill="#12222A"/>
<path d="M100.142 56.8875V45.4956C97.2252 45.6379 94.3419 46.1503 91.5361 47.0232C93.7525 50.7646 96.6762 54.1139 100.142 56.8875Z" fill="#12222A"/>
<path d="M89.9969 44.1296C93.2978 43.0606 96.6964 42.4407 100.142 42.2889V39.0566H88.0635C88.5654 40.7771 89.2087 42.4692 89.9969 44.1296Z" fill="#12222A"/>
<path d="M88.3295 48.1841C85.9515 49.1835 83.7183 50.4454 81.6536 51.9413C86.0526 55.4709 91.3644 57.7606 97.0433 58.5861C93.5403 55.6163 90.5829 52.09 88.3295 48.1841Z" fill="#12222A"/>
<path d="M100.142 15.2195C97.0028 15.0772 93.877 14.5458 90.8186 13.6255C89.6532 15.7887 88.7269 18.0595 88.0532 20.3936H100.142V15.2195Z" fill="#12222A"/>
<path d="M97.0298 0.864258C91.9403 1.61381 87.1136 3.54936 82.9941 6.49696C84.941 7.76519 87.0327 8.83417 89.2491 9.69125C91.3509 6.42422 93.9883 3.4355 97.0298 0.864258Z" fill="#12222A"/>
<path d="M132.53 21.6587H71.2544C70.0093 21.6587 69 22.668 69 23.9131V36.0456C69 37.2907 70.0093 38.3 71.2544 38.3H132.53C133.775 38.3 134.784 37.2907 134.784 36.0456V23.9131C134.784 22.668 133.775 21.6587 132.53 21.6587Z" fill="#FFDA13"/>
<path d="M15.0918 48.1974C12.5833 49.1517 9.74762 49.6289 6.58475 49.6289C4.23987 49.6289 2.63118 48.7154 1.75866 46.8886C1.13154 45.6071 0.817982 43.644 0.817982 40.9991C0.817982 39.3087 0.940679 36.7865 1.18607 33.4328C1.45873 30.0791 1.59506 27.5706 1.59506 25.9074C1.59506 25.5529 1.5678 25.0349 1.51327 24.3532C1.45873 23.6716 1.43147 23.1535 1.43147 22.7991C1.43147 22.5264 1.4451 22.2401 1.47237 21.9402C1.77229 21.5857 2.18129 21.4085 2.69934 21.4085C3.65365 21.4085 4.13081 22.5264 4.13081 24.7622C4.13081 26.6981 3.95358 29.6019 3.59912 33.4737C3.24466 37.3455 3.06743 40.2493 3.06743 42.1852C3.06743 45.8661 4.2944 47.7066 6.74835 47.7066C7.56633 47.7066 8.71151 47.4748 10.1839 47.0113C11.6835 46.5478 12.8423 46.316 13.6603 46.316C14.0966 46.316 14.4374 46.5205 14.6828 46.9295C14.9554 47.3112 15.0918 47.7339 15.0918 48.1974ZM35.8647 41.3672C35.8647 42.2398 35.5238 42.676 34.8422 42.676C34.5695 42.676 34.2832 42.6215 33.9833 42.5124C33.9833 43.903 34.3241 45.4571 35.0058 47.1749C34.9785 47.5294 34.8013 47.8157 34.4741 48.0338C34.1742 48.2519 33.8333 48.361 33.4516 48.361C33.1244 48.361 32.7563 48.2656 32.3473 48.0747C32.1292 47.6384 32.0202 46.9568 32.0202 46.0297C32.0202 45.7843 32.0338 45.3345 32.0611 44.6801C32.0611 44.0257 32.0611 43.5758 32.0611 43.3304C32.0611 42.8396 32.0202 42.5124 31.9384 42.3488C31.693 42.3216 31.3385 42.3352 30.875 42.3897C30.4387 42.4442 30.1252 42.4715 29.9343 42.4715C28.7619 42.4715 26.9214 42.6351 24.4129 42.9623C21.55 43.344 19.9004 43.7258 19.4641 44.1075C19.2187 44.2983 18.9597 45.2799 18.6871 47.0522C18.4689 48.4973 18.3462 49.5607 18.319 50.2423C18.1826 50.4332 17.9918 50.5286 17.7464 50.5286C17.3919 50.5286 16.9966 50.3514 16.5603 49.9969C16.124 49.6425 15.9059 49.3017 15.9059 48.9745C15.9059 48.8109 16.015 48.4428 16.2331 47.8702C16.4512 47.2976 16.5739 46.9431 16.6012 46.8068C17.0647 43.7803 17.9509 40.4402 19.2596 36.7865C22.8588 26.5618 25.6399 21.4494 27.6031 21.4494C29.7025 21.4494 31.3249 24.1215 32.47 29.4656C32.879 31.347 33.3562 34.9461 33.9015 40.263C34.0651 40.3993 34.4741 40.5493 35.1285 40.7129C35.6193 40.8219 35.8647 41.04 35.8647 41.3672ZM31.8975 40.1812C31.2158 35.3823 30.7796 32.4785 30.5887 31.4697C29.6889 26.889 28.7346 24.6122 27.7258 24.6395C26.6078 24.694 25.2036 26.7935 23.5131 30.938C22.5588 33.5555 21.6182 36.1731 20.6911 38.7906C20.5275 39.1451 20.3503 39.6767 20.1594 40.3857C20.0504 41.04 20.2412 41.3672 20.732 41.3672C20.8956 41.3672 21.7272 41.2309 23.2269 40.9582C24.3993 40.7401 27.2895 40.4811 31.8975 40.1812ZM58.5969 23.7806C58.5969 25.253 56.92 27.5433 53.5663 30.6517C50.458 33.3783 47.336 36.1049 44.2004 38.8315C40.8467 41.9944 39.1698 44.3665 39.1698 45.9479C39.1698 47.0658 39.8515 47.6248 41.2148 47.6248C42.5236 47.6248 44.4867 47.4748 47.1043 47.1749C49.7491 46.8477 51.7259 46.6841 53.0346 46.6841C53.7435 46.6841 54.4661 46.8205 55.2023 47.0931C56.1293 47.4476 56.6474 47.9111 56.7564 48.4837C56.511 48.8654 56.2111 49.0563 55.8567 49.0563C55.6385 49.0563 55.3113 48.9881 54.8751 48.8518C54.4661 48.6882 54.1525 48.62 53.9344 48.6473H53.7299L47.2679 49.4244C45.1138 49.697 44.0368 49.8334 44.0368 49.8334C42.2373 49.8334 40.7104 49.5062 39.4561 48.8518C37.8747 48.0065 37.084 46.7523 37.084 45.0891C37.084 43.6712 37.5748 42.3352 38.5563 41.0809C39.7015 39.6086 41.2557 38.068 43.2188 36.4593C43.437 36.2685 45.1547 34.9324 48.3721 32.4512C49.381 31.7151 50.8261 30.5562 52.7074 28.9748C53.5527 28.1568 54.3298 27.2298 55.0387 26.1937C56.0203 24.8576 56.511 23.8079 56.511 23.0444C56.511 21.9265 55.6522 21.3676 53.9344 21.3676C52.1894 21.3676 50.1717 21.6948 47.8813 22.3492C45.6183 23.0035 43.7096 23.7806 42.1555 24.6804C41.5011 25.1167 40.8467 25.5393 40.1923 25.9483C39.1289 26.6572 38.5291 27.0117 38.3927 27.0117C37.6838 27.0117 37.343 26.33 37.3703 24.9667V24.5168C39.2789 23.3444 41.9373 22.2128 45.3456 21.1222C48.9447 19.977 51.7668 19.4044 53.8117 19.4044C55.0659 19.4044 56.0748 19.7316 56.8382 20.386C57.2472 20.7405 57.6426 21.2722 58.0243 21.9811C58.406 22.69 58.5969 23.2898 58.5969 23.7806Z" fill="#2D3748"/>
<path d="M164.493 49.5538V49.7583C164.33 50.031 164.098 50.1673 163.798 50.1673C163.416 50.1673 163.171 50.0991 163.062 49.9628C162.844 48.8449 161.003 47.0726 157.541 44.6459C154.078 42.192 151.733 40.965 150.506 40.965C148.952 40.965 148.175 40.965 148.175 40.965V43.5007C148.175 43.8552 148.27 44.6732 148.461 45.9547C148.625 47.318 148.761 48.0678 148.87 48.2041C149.333 48.9403 149.565 49.2811 149.565 49.2266C149.565 49.8537 149.211 50.1673 148.502 50.1673C147.711 50.1673 147.111 49.881 146.702 49.3084C146.293 48.7358 146.089 46.0637 146.089 41.2922C146.089 40.9105 145.612 40.5696 144.657 40.2697C143.703 39.9698 143.226 39.6153 143.226 39.2063C143.226 38.6065 144.098 38.0612 145.843 37.5704C146.034 36.5888 146.157 35.28 146.212 33.6441C146.321 31.5991 146.402 30.2767 146.457 29.6768C146.484 29.3769 146.607 28.5589 146.825 27.2229C147.016 26.2141 147.098 25.3824 147.07 24.7281C146.934 24.6463 146.566 24.6054 145.966 24.6054C145.394 24.6054 145.107 24.3736 145.107 23.9101C145.107 23.3375 145.38 22.983 145.925 22.8467C146.307 22.7376 146.702 22.6286 147.111 22.5195C147.193 22.2468 147.37 21.9469 147.643 21.6197C147.888 21.5379 148.107 21.497 148.297 21.497C148.597 21.497 148.897 21.647 149.197 21.9469C149.524 22.2468 149.811 22.3968 150.056 22.3968C150.192 22.3968 150.383 22.3832 150.629 22.3559C150.874 22.3014 151.065 22.2741 151.201 22.2741C154.228 22.2741 156.777 22.9012 158.849 24.1555C161.385 25.6278 162.653 27.7819 162.653 30.6175C162.653 32.9624 161.958 34.871 160.567 36.3434C159.695 37.2977 158.004 38.4565 155.496 39.8198C155.332 39.8471 155.141 39.9153 154.923 40.0243C155.468 40.5424 156.695 41.4285 158.604 42.6828C160.513 43.937 161.876 44.9595 162.694 45.7502C163.948 47.0044 164.548 48.2723 164.493 49.5538ZM160.526 30.4539C160.526 28.3817 159.586 26.7866 157.704 25.6687C156.15 24.7417 154.269 24.2782 152.06 24.2782C151.269 24.2782 150.615 24.3327 150.097 24.4418L149.565 25.2597C149.184 25.8869 148.965 26.7185 148.911 27.7546C148.856 29.2542 148.802 30.1404 148.747 30.413C148.42 31.9672 148.202 34.4348 148.093 37.8158C150.111 38.5792 151.365 38.9609 151.856 38.9609C152.237 38.9609 152.783 38.8519 153.492 38.6337C155.509 38.0339 157.145 37.0387 158.399 35.6481C159.817 34.1485 160.526 32.4171 160.526 30.4539ZM187.029 47.059C187.029 47.6315 186.647 48.1223 185.884 48.5313C185.229 48.9131 184.602 49.1039 184.002 49.1039C181.739 49.1039 179.49 47.5497 177.254 44.4414C176.272 43.0508 174.827 40.4742 172.919 36.7115C172.101 37.6385 171.228 38.7973 170.301 40.1879C169.101 41.9602 168.502 43.2008 168.502 43.9097C168.502 46.7727 168.815 48.7358 169.442 49.7992L169.524 50.4945C169.224 50.8489 168.897 51.0262 168.542 51.0262C167.943 51.0262 167.465 50.6035 167.111 49.7583C166.92 49.322 166.688 48.3677 166.416 46.8954C166.143 45.3957 166.02 44.4005 166.048 43.9097L166.784 23.9101C166.784 23.801 166.756 23.6783 166.702 23.542C166.675 23.3784 166.661 23.2557 166.661 23.1739C166.661 22.165 167.043 21.6606 167.806 21.6606C168.215 21.6606 168.747 21.8651 169.401 22.2741C170.056 22.6831 170.383 23.0785 170.383 23.4602C170.383 23.6238 170.287 23.7465 170.097 23.8283C169.824 23.9646 169.674 24.0464 169.647 24.0737C169.429 24.2645 169.265 24.878 169.156 25.9141C168.638 31.5855 168.379 35.8662 168.379 38.7564L168.583 38.9609C172.946 33.0442 175.264 29.9086 175.536 29.5541C179.326 24.7281 181.835 22.315 183.062 22.315C183.225 22.315 183.362 22.3286 183.471 22.3559C183.498 22.4377 183.73 22.7649 184.166 23.3375C184.466 23.7465 184.616 24.1009 184.616 24.4009C184.616 24.7826 184.452 24.9734 184.125 24.9734C184.07 24.9734 183.907 24.9462 183.634 24.8917C183.362 24.8099 183.198 24.769 183.143 24.769C182.653 24.769 181.357 25.9278 179.258 28.2454C177.268 30.4812 176.109 31.9672 175.782 32.7034C175.509 33.3032 175.373 33.8213 175.373 34.2575C175.373 36.1662 176.341 38.7428 178.276 41.9875C180.349 45.4775 182.23 47.2226 183.92 47.2226C184.22 47.2226 184.629 47.0999 185.147 46.8545C185.666 46.6091 186.061 46.4864 186.334 46.4864C186.797 46.4864 187.029 46.6772 187.029 47.059ZM207.299 35.8935C207.299 39.738 206.441 43.0781 204.723 45.9138C202.705 49.2402 199.91 50.9035 196.338 50.9035C195.439 50.9035 194.389 50.699 193.189 50.29C188.636 48.8449 186.359 44.755 186.359 38.0203C186.359 34.0939 187.232 30.563 188.977 27.4274C191.049 23.6647 193.898 21.7833 197.525 21.7833C200.687 21.7833 203.182 23.4057 205.009 26.6503C206.536 29.3497 207.299 32.4307 207.299 35.8935ZM205.009 35.5254C205.009 29.4723 202.991 25.7642 198.956 24.4009C198.52 24.2373 198.138 24.1555 197.811 24.1555C196.066 24.1555 194.348 24.9598 192.658 26.5685C189.795 29.2951 188.363 33.5077 188.363 39.2063C188.363 39.7244 188.472 40.5424 188.69 41.6603C189.154 44.0052 189.917 45.7502 190.981 46.8954C192.235 48.2041 193.994 48.8585 196.257 48.8585C199.365 48.8585 201.683 47.318 203.21 44.2369C204.409 41.8648 205.009 38.9609 205.009 35.5254Z" fill="#2D3748"/>
<path d="M72.3304 32.937C72.1963 32.6593 72.1915 32.4295 72.316 32.2475C72.4501 32.056 72.6416 31.9602 72.8906 31.9602C73.0534 31.9602 73.2306 32.0225 73.4221 32.147C73.6232 32.4151 73.8626 32.6401 74.1403 32.8221C74.418 33.0041 74.7101 33.0663 75.0166 33.0088C75.1602 32.9801 75.2847 32.9274 75.3901 32.8508C75.505 32.7646 75.5864 32.6689 75.6343 32.5635C75.6917 32.4582 75.7204 32.3433 75.7204 32.2188C75.7204 32.0943 75.6869 31.9794 75.6199 31.874C75.5337 31.74 75.4379 31.6346 75.3326 31.558C75.2368 31.4814 75.1315 31.4239 75.0166 31.3856C74.9112 31.3473 74.8059 31.3186 74.7006 31.2994C74.6048 31.2803 74.5138 31.2564 74.4276 31.2276C74.284 31.1893 74.1403 31.151 73.9967 31.1127C73.853 31.0648 73.7142 31.0074 73.5801 30.9403C73.446 30.8733 73.3168 30.7919 73.1923 30.6961C73.0678 30.5908 72.9481 30.4615 72.8331 30.3083C72.7278 30.1646 72.6464 30.0114 72.589 29.8486C72.5315 29.6762 72.5028 29.5182 72.5028 29.3746C72.5028 29.1735 72.5411 28.9676 72.6177 28.7569C72.6943 28.5462 72.7948 28.3547 72.9193 28.1823C73.0534 28.0004 73.2066 27.8471 73.379 27.7227C73.561 27.5886 73.7525 27.4976 73.9536 27.4497C74.3558 27.3444 74.7724 27.33 75.2033 27.4066C75.6438 27.4832 76.0365 27.6173 76.3812 27.8088C76.5153 27.9046 76.6158 28.0052 76.6829 28.1105C76.7499 28.2158 76.7834 28.3164 76.7834 28.4122C76.7834 28.5271 76.7499 28.6324 76.6829 28.7282C76.6254 28.8144 76.544 28.8862 76.4387 28.9436C76.3429 29.0011 76.228 29.0298 76.0939 29.0298C75.9694 29.0298 75.8354 28.9915 75.6917 28.9149C75.5768 28.8575 75.414 28.8048 75.2033 28.7569C75.0022 28.6994 74.8011 28.6803 74.6 28.6994C74.3989 28.709 74.2313 28.7713 74.0972 28.8862C73.9632 29.0011 73.9105 29.1926 73.9392 29.4608C73.9967 29.5661 74.0637 29.6571 74.1403 29.7337C74.2265 29.8007 74.3175 29.8582 74.4133 29.9061C74.5186 29.954 74.6287 29.9971 74.7436 30.0354C74.8586 30.0641 74.9687 30.0928 75.074 30.1215C75.3709 30.2077 75.6438 30.3083 75.8928 30.4232C76.1418 30.5285 76.3573 30.6626 76.5392 30.8254C76.7212 30.9882 76.86 31.1845 76.9558 31.4144C77.0611 31.6442 77.1138 31.9219 77.1138 32.2475C77.1138 32.5061 77.0564 32.7599 76.9414 33.0088C76.8265 33.2483 76.6733 33.4637 76.4818 33.6552C76.2998 33.8468 76.0891 34 75.8497 34.1149C75.6103 34.2298 75.3709 34.2873 75.1315 34.2873C74.5952 34.2873 74.0733 34.1676 73.5657 33.9282C73.0582 33.6888 72.6512 33.3584 72.3448 32.937H72.3304ZM86.3016 32.3768C86.3782 32.3002 86.4644 32.2475 86.5602 32.2188C86.656 32.1901 86.7517 32.1757 86.8475 32.1757C87.039 32.1757 87.197 32.2379 87.3215 32.3624C87.446 32.4773 87.5083 32.6162 87.5083 32.779C87.5083 32.9418 87.4364 33.1094 87.2928 33.2818C87.0246 33.5786 86.7134 33.7989 86.3591 33.9425C86.0048 34.0862 85.6361 34.158 85.253 34.158C85.004 34.158 84.755 34.1245 84.506 34.0575C84.2666 33.9904 84.0368 33.8899 83.8165 33.7558C83.6059 33.6122 83.4143 33.4398 83.242 33.2387C83.0696 33.0376 82.9355 32.8029 82.8397 32.5348V32.5492C82.6003 32.0033 82.5046 31.4479 82.5525 30.8829C82.5812 30.4807 82.6674 30.0785 82.811 29.6762C82.9642 29.2645 83.1701 28.891 83.4287 28.5558C83.6873 28.2206 83.9937 27.9477 84.348 27.737C84.7119 27.5263 85.1094 27.421 85.5403 27.421C85.6744 27.421 85.8037 27.4306 85.9281 27.4497C86.0526 27.4593 86.1819 27.488 86.316 27.5359C86.5841 27.6317 86.8235 27.7418 87.0342 27.8663C87.2545 27.9908 87.4747 28.1632 87.695 28.3834C87.7908 28.5462 87.8386 28.6851 87.8386 28.8C87.8386 28.9245 87.8099 29.0346 87.7525 29.1304C87.695 29.2262 87.6136 29.298 87.5083 29.3459C87.4125 29.3937 87.2928 29.4177 87.1491 29.4177C87.0151 29.4081 86.8714 29.365 86.7182 29.2884C86.5171 29.0777 86.3208 28.9293 86.1292 28.8431C85.9473 28.7473 85.7701 28.6994 85.5978 28.6994C85.3679 28.6994 85.1525 28.7713 84.9513 28.9149C84.7502 29.049 84.5779 29.2309 84.4342 29.4608C84.2906 29.6906 84.1757 29.9492 84.0895 30.2365C84.0033 30.5238 83.9602 30.8158 83.9602 31.1127C83.9602 31.2755 83.9698 31.4383 83.9889 31.6011C84.0176 31.7639 84.0655 31.9171 84.1326 32.0608C84.2571 32.3481 84.4199 32.5587 84.621 32.6928C84.8221 32.8269 85.0327 32.8939 85.253 32.8939C85.4158 32.8939 85.5882 32.8508 85.7701 32.7646C85.9521 32.6785 86.1245 32.5492 86.2873 32.3768H86.3016ZM94.962 33.5116C94.9429 33.7414 94.8663 33.9138 94.7322 34.0287C94.5981 34.1436 94.4401 34.2011 94.2582 34.2011C94.0954 34.2011 93.9421 34.1484 93.7985 34.0431C93.6548 33.9378 93.5687 33.7797 93.5399 33.5691V25.6829C93.5878 25.4913 93.674 25.3477 93.7985 25.2519C93.923 25.1466 94.0666 25.0939 94.2294 25.0939C94.3922 25.0939 94.5359 25.1418 94.6604 25.2376C94.7944 25.3238 94.895 25.4578 94.962 25.6398V28.7282C95.4313 28.4026 95.8526 28.1919 96.2261 28.0961C96.6092 28.0004 97.0018 28.0195 97.404 28.1536C97.7009 28.2398 97.9547 28.3834 98.1653 28.5845C98.376 28.7761 98.5484 29.0011 98.6825 29.2597C98.8261 29.5087 98.9315 29.7768 98.9985 30.0641C99.0751 30.3514 99.1182 30.6291 99.1278 30.8972C99.1278 31.3473 99.1278 31.716 99.1278 32.0033C99.1278 32.2906 99.1278 32.5348 99.1278 32.7359C99.1278 32.9274 99.1278 33.0855 99.1278 33.2099C99.1373 33.3344 99.1421 33.4541 99.1421 33.5691C99.123 33.7989 99.0464 33.9713 98.9123 34.0862C98.7878 34.2011 98.6346 34.2586 98.4526 34.2586C98.2898 34.2586 98.1366 34.2059 97.993 34.1006C97.8493 33.9952 97.7631 33.8324 97.7344 33.6122C97.7344 33.1621 97.7344 32.7215 97.7344 32.2906C97.7344 31.8501 97.7296 31.4 97.72 30.9403C97.7009 30.6339 97.6339 30.337 97.5189 30.0497C97.4136 29.7624 97.2364 29.5374 96.9874 29.3746C96.7959 29.3363 96.614 29.3459 96.4416 29.4033C96.2788 29.4608 96.116 29.5565 95.9532 29.6906C95.7904 29.8151 95.6276 29.9731 95.4648 30.1646C95.302 30.3562 95.1344 30.5573 94.962 30.768V33.5116ZM107.904 27.737C108.306 27.737 108.661 27.8232 108.967 27.9956C109.283 28.168 109.547 28.3978 109.757 28.6851C109.977 28.9628 110.14 29.2836 110.246 29.6475C110.361 30.0018 110.418 30.3657 110.418 30.7392C110.418 30.902 110.408 31.0552 110.389 31.1989C110.37 31.333 110.346 31.4718 110.317 31.6155C110.212 32.0081 110.054 32.3768 109.843 32.7215C109.642 33.0663 109.403 33.368 109.125 33.6265C108.847 33.8755 108.536 34.0718 108.191 34.2155C107.856 34.3591 107.502 34.4309 107.128 34.4309C106.736 34.4309 106.377 34.3448 106.051 34.1724C105.735 34 105.467 33.7797 105.247 33.5116C105.026 33.2339 104.854 32.9274 104.73 32.5923C104.615 32.2475 104.557 31.9028 104.557 31.558C104.557 31.0792 104.643 30.6147 104.816 30.1646C104.998 29.705 105.237 29.298 105.534 28.9436C105.84 28.5797 106.195 28.2877 106.597 28.0674C107.009 27.8471 107.444 27.737 107.904 27.737ZM106.051 30.8254C105.994 31.0457 105.965 31.2899 105.965 31.558C105.965 31.8262 106.003 32.0799 106.08 32.3193C106.156 32.5492 106.281 32.7455 106.453 32.9083C106.635 33.0711 106.875 33.1525 107.172 33.1525C107.459 33.1525 107.713 33.0711 107.933 32.9083C108.163 32.7359 108.354 32.53 108.507 32.2906C108.67 32.0416 108.795 31.7783 108.881 31.5006C108.967 31.2133 109.01 30.9547 109.01 30.7249C109.01 30.5142 108.986 30.3083 108.938 30.1072C108.891 29.8965 108.814 29.7098 108.709 29.547C108.613 29.3842 108.493 29.2549 108.349 29.1591C108.206 29.0538 108.043 29.0011 107.861 29.0011C107.631 29.0011 107.416 29.0634 107.215 29.1878C107.014 29.3028 106.832 29.4512 106.669 29.6331C106.516 29.8055 106.386 30.0018 106.281 30.2221C106.176 30.4328 106.099 30.6339 106.051 30.8254ZM119.167 27.737C119.569 27.737 119.923 27.8232 120.23 27.9956C120.546 28.168 120.809 28.3978 121.02 28.6851C121.24 28.9628 121.403 29.2836 121.508 29.6475C121.623 30.0018 121.681 30.3657 121.681 30.7392C121.681 30.902 121.671 31.0552 121.652 31.1989C121.633 31.333 121.609 31.4718 121.58 31.6155C121.475 32.0081 121.317 32.3768 121.106 32.7215C120.905 33.0663 120.666 33.368 120.388 33.6265C120.11 33.8755 119.799 34.0718 119.454 34.2155C119.119 34.3591 118.765 34.4309 118.391 34.4309C117.999 34.4309 117.639 34.3448 117.314 34.1724C116.998 34 116.73 33.7797 116.509 33.5116C116.289 33.2339 116.117 32.9274 115.992 32.5923C115.877 32.2475 115.82 31.9028 115.82 31.558C115.82 31.0792 115.906 30.6147 116.079 30.1646C116.26 29.705 116.5 29.298 116.797 28.9436C117.103 28.5797 117.458 28.2877 117.86 28.0674C118.272 27.8471 118.707 27.737 119.167 27.737ZM117.314 30.8254C117.256 31.0457 117.228 31.2899 117.228 31.558C117.228 31.8262 117.266 32.0799 117.343 32.3193C117.419 32.5492 117.544 32.7455 117.716 32.9083C117.898 33.0711 118.137 33.1525 118.434 33.1525C118.722 33.1525 118.975 33.0711 119.196 32.9083C119.425 32.7359 119.617 32.53 119.77 32.2906C119.933 32.0416 120.058 31.7783 120.144 31.5006C120.23 31.2133 120.273 30.9547 120.273 30.7249C120.273 30.5142 120.249 30.3083 120.201 30.1072C120.153 29.8965 120.077 29.7098 119.971 29.547C119.876 29.3842 119.756 29.2549 119.612 29.1591C119.469 29.0538 119.306 29.0011 119.124 29.0011C118.894 29.0011 118.679 29.0634 118.477 29.1878C118.276 29.3028 118.094 29.4512 117.932 29.6331C117.778 29.8055 117.649 30.0018 117.544 30.2221C117.438 30.4328 117.362 30.6339 117.314 30.8254ZM128.715 33.2243C128.964 33.4063 129.089 33.5978 129.089 33.7989C129.089 33.9138 129.06 34.0192 129.003 34.1149C128.945 34.2107 128.868 34.2873 128.773 34.3448C128.677 34.4022 128.562 34.4309 128.428 34.4309C128.303 34.4405 128.169 34.407 128.026 34.3304L127.408 33.9282C127.322 33.8516 127.264 33.7797 127.236 33.7127C127.207 33.6457 127.183 33.5547 127.164 33.4398V25.568C127.212 25.3764 127.298 25.2328 127.422 25.137C127.547 25.0317 127.691 24.979 127.853 24.979C128.016 24.979 128.16 25.0269 128.284 25.1227C128.409 25.2088 128.505 25.3429 128.572 25.5249V33.1381C128.591 33.1573 128.615 33.1764 128.643 33.1956C128.672 33.2052 128.696 33.2147 128.715 33.2243Z" fill="black"/>
</svg>
