<svg width="32" height="32" viewBox="0 0 32 32" fill="none" xmlns="http://www.w3.org/2000/svg">
<g clip-path="url(#clip0)">
<path d="M30.3336 19.1249C30.5554 18.0554 30.6666 17.0135 30.6666 15.9999C30.6666 14.0138 30.2817 12.1145 29.5105 10.3019C28.7398 8.48947 27.6981 6.92711 26.3856 5.61453C25.073 4.30195 23.5109 3.2603 21.6984 2.4893C19.8855 1.71881 17.9867 1.33323 16.0003 1.33323C14.9865 1.33323 13.9447 1.44444 12.8752 1.66671C11.4308 0.555593 9.80574 0 8.00017 0C5.79195 0 3.90662 0.781144 2.34404 2.34343C0.781316 3.90616 0.000244141 5.79148 0.000244141 7.99977C0.000244141 9.80534 0.555838 11.4304 1.66681 12.8748C1.44469 13.9442 1.33348 14.9861 1.33348 15.9999C1.33348 17.9858 1.71876 19.8851 2.48954 21.6978C3.26025 23.5102 4.30198 25.0726 5.61463 26.3854C6.92715 27.6979 8.48973 28.7392 10.3022 29.5103C12.1147 30.2812 14.0141 30.6665 16.0002 30.6665C17.0139 30.6665 18.0557 30.5552 19.1258 30.3329C20.5698 31.4442 22.1947 32 24.0005 32C26.2085 32 28.0943 31.2185 29.656 29.6562C31.2187 28.0935 31.9998 26.2082 31.9998 23.9997C31.9994 22.1944 31.4441 20.5696 30.3336 19.1249ZM23.7497 22.2186C23.2917 23.0312 22.6769 23.6804 21.9062 24.1666C21.1351 24.6528 20.2845 25.0239 19.3541 25.2811C18.4237 25.5378 17.4515 25.6666 16.4374 25.6666C14.0905 25.6666 12.0698 25.2116 10.3752 24.3017C8.68062 23.3917 7.83343 22.2985 7.83343 21.0204C7.83343 20.3956 8.01061 19.8753 8.3648 19.4583C8.71893 19.0414 9.24322 18.8335 9.93767 18.8335C10.3405 18.8335 10.7153 18.9445 11.0625 19.1665C11.4097 19.3888 11.7291 19.6565 12.0209 19.9691C12.3127 20.2818 12.6284 20.5939 12.9688 20.9066C13.3089 21.2192 13.7603 21.4864 14.3227 21.7086C14.8853 21.9309 15.5208 22.0423 16.2293 22.0423C17.132 22.0423 17.8609 21.8655 18.417 21.5114C18.9723 21.1568 19.25 20.7088 19.25 20.1674C19.25 19.6116 19.0281 19.195 18.5838 18.9173C18.2787 18.7223 17.5005 18.4724 16.2505 18.167L13.2085 17.4166C12.3752 17.2223 11.6599 16.9968 11.0626 16.74C10.4652 16.4829 9.90965 16.1465 9.39587 15.7295C8.88223 15.313 8.4933 14.7888 8.22937 14.1566C7.96551 13.5248 7.83358 12.7851 7.83358 11.9379C7.83358 10.9239 8.06628 10.0318 8.53139 9.26077C8.9965 8.48984 9.61493 7.88558 10.3855 7.44812C11.1562 7.01059 11.9861 6.68427 12.8752 6.46901C13.7639 6.25367 14.6806 6.14604 15.625 6.14604C16.9586 6.14604 18.222 6.30585 19.4166 6.62524C20.611 6.94463 21.5971 7.41339 22.3747 8.03144C23.1523 8.64972 23.5411 9.34067 23.5411 10.1044C23.5411 10.7292 23.3436 11.2642 22.9473 11.7085C22.5522 12.1527 22.0278 12.375 21.3748 12.375C21.0137 12.375 20.6805 12.2916 20.3749 12.1249C20.0695 11.9583 19.7919 11.757 19.5414 11.5209C19.2914 11.2849 19.0272 11.0522 18.7495 10.8231C18.4718 10.5939 18.0967 10.396 17.6251 10.2294C17.1523 10.0627 16.6179 9.9793 16.0207 9.9793C14.0209 9.9793 13.0208 10.5137 13.0208 11.5833C13.0208 11.8193 13.073 12.0277 13.177 12.2082C13.2812 12.3888 13.3959 12.5346 13.5207 12.6458C13.6454 12.7571 13.8538 12.868 14.1456 12.9792C14.4374 13.0905 14.6805 13.1706 14.8749 13.2189C15.0692 13.2675 15.375 13.3404 15.7915 13.4375L17.9583 13.9374C18.6388 14.0904 19.2461 14.2502 19.7812 14.4166C20.3161 14.5836 20.8889 14.8195 21.5 15.1251C22.111 15.4307 22.618 15.7708 23.0205 16.1459C23.4236 16.5212 23.7602 16.9964 24.0314 17.5728C24.3024 18.1493 24.4374 18.7848 24.4374 19.479C24.4373 20.4929 24.2086 21.4063 23.7497 22.2186Z" fill="#F25F61"/>
</g>
<defs>
<clipPath id="clip0">
<rect width="32" height="32" fill="white"/>
</clipPath>
</defs>
</svg>
